<?xml version="1.0" encoding="UTF-8"?>
<svg width="554px" height="468px" viewBox="0 0 554 468" version="1.1" xmlns="http://www.w3.org/2000/svg" xmlns:xlink="http://www.w3.org/1999/xlink">
    <!-- Generator: Sketch 47 (45396) - http://www.bohemiancoding.com/sketch -->
    <title>infographic-author_page</title>
    <desc>Created with Sketch.</desc>
    <defs></defs>
    <g id="Desktop" stroke="none" stroke-width="1" fill="none" fill-rule="evenodd">
        <g id="Author-page--" transform="translate(-31.000000, -3429.000000)">
            <g id="body" transform="translate(0.000000, 702.000000)">
                <g id="Methodology" transform="translate(31.000000, 1756.000000)">
                    <g id="wrap" transform="translate(0.000000, 971.000000)">
                        <g id="infographic-author_page">
                            <g id="shape" transform="translate(0.000000, 5.000000)">
                                <circle id="Oval-4" stroke="#EEEEEE" stroke-width="4" cx="223" cy="223" r="210"></circle>
                                <rect id="allign.dellete" fill="#FFFFFF" x="0" y="0" width="136" height="463"></rect>
                                <path d="M139,414.000567 C139,416.761786 136.761219,419 133.999433,419 C131.238214,419 129,416.761786 129,414.000567 C129,411.238781 131.238214,409 133.999433,409 C136.761219,409 139,411.238781 139,414.000567" id="Fill-625" fill="#EEEEEE"></path>
                                <path d="M142,31.0005666 C142,33.761786 139.761219,36 136.999433,36 C134.238214,36 132,33.761786 132,31.0005666 C132,28.2387806 134.238214,26 136.999433,26 C139.761219,26 142,28.2387806 142,31.0005666" id="Fill-625" fill="#EEEEEE"></path>
                            </g>
                            <g id="icon-vir4" transform="translate(316.000000, 369.000000)">
                                <path d="M231,43.000301 C231,62.3305956 215.329526,78 196,78 C176.670474,78 161,62.3305956 161,43.000301 C161,23.6700065 176.670474,8 196,8 C215.329526,8 231,23.6700065 231,43.000301" id="Fill-411" fill="#00D2AA"></path>
                                <path d="M194,83.5 C194,82.6711747 194.671884,82 195.49971,82 C196.328116,82 197,82.6711747 197,83.5 C197,84.3282457 196.328116,85 195.49971,85 C194.671884,85 194,84.3282457 194,83.5" id="Fill-447" fill="#00AA87"></path>
                                <path d="M194,1.5005796 C194,0.67175425 194.671884,0 195.49971,0 C196.328116,0 197,0.67175425 197,1.5005796 C197,2.32882535 196.328116,3 195.49971,3 C194.671884,3 194,2.32882535 194,1.5005796" id="Fill-448" fill="#00AA87"></path>
                                <path d="M154.49942,41 C155.328246,41 156,41.6720139 156,42.5005798 C156,43.3291457 155.328246,44 154.49942,44 C153.671175,44 153,43.3291457 153,42.5005798 C153,41.6720139 153.671175,41 154.49942,41" id="Fill-449" fill="#00AA87"></path>
                                <path d="M236.50029,41 C237.328116,41 238,41.6720139 238,42.5005798 C238,43.3291457 237.328116,44 236.50029,44 C235.671304,44 235,43.3291457 235,42.5005798 C235,41.6720139 235.671304,41 236.50029,41" id="Fill-450" fill="#00AA87"></path>
                                <path d="M201.023129,83.7605103 C200.878847,82.9444959 201.424683,82.1667322 202.239961,82.0230024 C203.055239,81.8792726 203.832853,82.4240549 203.977135,83.2394897 C204.120257,84.0549245 203.576739,84.8338473 202.759723,84.9769976 C201.944445,85.1207274 201.166831,84.5759451 201.023129,83.7605103" id="Fill-451" fill="#00AA87"></path>
                                <path d="M187.022832,2.75998231 C186.879694,1.94459285 187.424429,1.16687241 188.240372,1.02315061 C189.055736,0.878849273 189.833432,1.42418082 189.977149,2.23957027 C190.120287,3.05495973 189.576132,3.83268017 188.760188,3.9769815 C187.944825,4.12070331 187.167129,3.57653081 187.022832,2.75998231" id="Fill-452" fill="#00AA87"></path>
                                <path d="M155.24,49.0230024 C156.055389,48.8792726 156.833109,49.4240549 156.976831,50.2394897 C157.121133,51.0555041 156.576381,51.8332678 155.760412,51.9769976 C154.945022,52.1207274 154.166722,51.5759451 154.023,50.7605103 C153.879279,49.9450755 154.424031,49.1661527 155.24,49.0230024" id="Fill-453" fill="#00AA87"></path>
                                <path d="M236.239748,34.0231506 C237.055254,33.8788493 237.833665,34.4241808 237.976828,35.2395703 C238.12115,36.0549597 237.57632,36.8326802 236.760234,36.9769815 C235.944728,37.1207033 235.166896,36.5765308 235.023154,35.7599823 C234.878832,34.9445928 235.424242,34.1662929 236.239748,34.0231506" id="Fill-454" fill="#00AA87"></path>
                                <path d="M208.091166,82.0128093 C207.807231,81.2346673 208.208796,80.3748291 208.986431,80.0909202 C209.764645,79.8075908 210.626301,80.2085396 210.909077,80.9866816 C211.192433,81.7648236 210.791447,82.6258207 210.012654,82.9091501 C209.23444,83.1924796 208.374522,82.7909513 208.091166,82.0128093" id="Fill-455" fill="#00AA87"></path>
                                <path d="M180.090616,5.01257543 C179.807873,4.2342998 180.208812,3.37431393 180.986936,3.09093584 C181.765639,2.80755774 182.625457,3.20857541 182.90878,3.98685104 C183.192682,4.76454716 182.791743,5.62627155 182.013619,5.90907014 C181.234916,6.19244823 180.375098,5.79143056 180.090616,5.01257543" id="Fill-456" fill="#00AA87"></path>
                                <path d="M156.986684,55.0911069 C157.764914,54.8071371 158.626589,55.2093311 158.909371,55.9870606 C159.192154,56.7653696 158.791159,57.6259719 158.012928,57.9093621 C157.234698,58.1921729 156.374182,57.791138 156.0914,57.012829 C155.806879,56.2345199 156.209033,55.3739176 156.986684,55.0911069" id="Fill-457" fill="#00AA87"></path>
                                <path d="M233.986913,27.0911538 C234.765055,26.8072388 235.624893,27.2087757 235.909382,27.9869343 C236.192132,28.7650929 235.791183,29.6249496 235.013041,29.9094439 C234.234899,30.1922 233.374481,29.7906632 233.091152,29.0130839 C232.807243,28.2349253 233.208771,27.3744893 233.986913,27.0911538" id="Fill-458" fill="#00AA87"></path>
                                <path d="M215.201407,79.2502332 C214.786948,78.5326117 215.032725,77.6144272 215.749767,77.2011283 C216.467388,76.7872497 217.384413,77.0324467 217.798872,77.7500681 C218.21275,78.4671099 217.967553,79.3852944 217.249932,79.7985934 C216.53289,80.2130517 215.614706,79.967275 215.201407,79.2502332" id="Fill-459" fill="#00AA87"></path>
                                <path d="M174.20123,8.24905176 C173.786832,7.53223696 174.033153,6.61550211 174.750091,6.20117504 C175.46703,5.78684798 176.384502,6.0331263 176.798901,6.75052058 C177.21272,7.46733538 176.967558,8.38464971 176.25004,8.79897677 C175.532522,9.21272436 174.615049,8.96760499 174.20123,8.24905176" id="Fill-460" fill="#00AA87"></path>
                                <path d="M159.750122,62.2013582 C160.467548,61.7869568 161.384903,62.0326998 161.798669,62.7502227 C162.213014,63.4677457 161.967305,64.3852246 161.249878,64.7990464 C160.532452,65.2128682 159.615677,64.9671253 159.201331,64.2496023 C158.786986,63.5326589 159.032695,62.6151801 159.750122,62.2013582" id="Fill-461" fill="#00AA87"></path>
                                <path d="M230.750398,21.2013776 C231.467341,20.786979 232.38482,21.0327203 232.798642,21.7496587 C233.213043,22.4671767 232.9673,23.3846493 232.249777,23.7990478 C231.532254,24.2128668 230.614775,23.9671255 230.200954,23.2496075 C229.787132,22.5320895 230.032875,21.6151965 230.750398,21.2013776" id="Fill-462" fill="#00AA87"></path>
                                <path d="M221.350334,75.4645438 C220.818827,74.829823 220.901132,73.8838281 221.535811,73.3511263 C222.170489,72.8184245 223.116421,72.901315 223.649087,73.5354562 C224.181753,74.170177 224.098289,75.1167516 223.46477,75.6488737 C222.829512,76.1815755 221.883,76.098685 221.350334,75.4645438" id="Fill-463" fill="#00AA87"></path>
                                <path d="M168.35073,12.4640571 C167.818693,11.8299664 167.900991,10.8834672 168.53619,10.3508078 C169.17023,9.81814843 170.116653,9.90161193 170.64927,10.5362823 C171.181307,11.1709526 171.099009,12.1162926 170.46381,12.648952 C169.829191,13.1816114 168.883347,13.0987275 168.35073,12.4640571" id="Fill-464" fill="#00AA87"></path>
                                <path d="M163.535961,68.3511322 C164.170072,67.8184215 165.116603,67.9013134 165.6487,68.5354652 C166.181377,69.1701967 166.09907,70.1167871 165.464379,70.6489181 C164.829687,71.1816289 163.883737,71.098737 163.35106,70.4640055 C162.818383,69.829274 162.901269,68.8838429 163.535961,68.3511322" id="Fill-465" fill="#00AA87"></path>
                                <path d="M226.535572,15.3507585 C227.170312,14.818679 228.116335,14.9009832 228.649053,15.5362329 C229.181771,16.1703233 229.098298,17.1162426 228.464718,17.6489018 C227.829978,18.1815609 226.883375,18.0986771 226.350657,17.4645866 C225.818519,16.8293369 225.901412,15.8828381 226.535572,15.3507585" id="Fill-466" fill="#00AA87"></path>
                                <path d="M226.535572,70.6489181 C225.901412,70.1167871 225.818519,69.1701967 226.350657,68.5354652 C226.883375,67.9013134 227.829978,67.8184215 228.464718,68.3511322 C229.098298,68.8838429 229.181771,69.829274 228.649053,70.4640055 C228.116335,71.098737 227.170312,71.1816289 226.535572,70.6489181" id="Fill-467" fill="#00AA87"></path>
                                <path d="M163.535961,17.6489018 C162.901269,17.1162426 162.818383,16.1703233 163.35106,15.5362329 C163.883737,14.9009832 164.829687,14.818679 165.464379,15.3507585 C166.09907,15.8828381 166.181377,16.8293369 165.6487,17.4645866 C165.116603,18.0986771 164.170072,18.1815609 163.535961,17.6489018" id="Fill-468" fill="#00AA87"></path>
                                <path d="M168.35073,73.5354562 C168.883347,72.901315 169.829191,72.8184245 170.46381,73.3511263 C171.099009,73.8838281 171.181307,74.829823 170.64927,75.4645438 C170.116653,76.098685 169.17023,76.1815755 168.53619,75.6488737 C167.900991,75.1167516 167.818693,74.170177 168.35073,73.5354562" id="Fill-469" fill="#00AA87"></path>
                                <path d="M221.350334,10.5362823 C221.883,9.90161193 222.829512,9.81814843 223.46477,10.3508078 C224.098289,10.8834672 224.181753,11.8299664 223.649087,12.4640571 C223.116421,13.0987275 222.170489,13.1816114 221.535811,12.648952 C220.901132,12.1162926 220.818827,11.1709526 221.350334,10.5362823" id="Fill-470" fill="#00AA87"></path>
                                <path d="M230.750398,64.7990464 C230.032875,64.3852246 229.787132,63.4677457 230.200954,62.7502227 C230.614775,62.0326998 231.532254,61.7869568 232.249777,62.2013582 C232.9673,62.6151801 233.213043,63.5326589 232.798642,64.2496023 C232.38482,64.9671253 231.467341,65.2128682 230.750398,64.7990464" id="Fill-471" fill="#00AA87"></path>
                                <path d="M159.750122,23.7990478 C159.032695,23.3846493 158.786986,22.4671767 159.201331,21.7496587 C159.615677,21.0327203 160.532452,20.786979 161.249878,21.2013776 C161.967305,21.6151965 162.213014,22.5320895 161.798669,23.2496075 C161.384903,23.9671255 160.467548,24.2128668 159.750122,23.7990478" id="Fill-472" fill="#00AA87"></path>
                                <path d="M174.20123,77.7500681 C174.615049,77.0324467 175.532522,76.7872497 176.25004,77.2011283 C176.967558,77.6144272 177.21272,78.5326117 176.798901,79.2502332 C176.384502,79.967275 175.46703,80.2130517 174.750091,79.7985934 C174.033153,79.3852944 173.786832,78.4671099 174.20123,77.7500681" id="Fill-473" fill="#00AA87"></path>
                                <path d="M215.201407,6.75052058 C215.614706,6.0331263 216.53289,5.78684798 217.249932,6.20117504 C217.967553,6.61550211 218.21275,7.53223696 217.798872,8.24905176 C217.384413,8.96760499 216.467388,9.21272436 215.749767,8.79897677 C215.032725,8.38464971 214.786948,7.46733538 215.201407,6.75052058" id="Fill-474" fill="#00AA87"></path>
                                <path d="M233.986913,57.9093621 C233.208771,57.6259719 232.807243,56.7653696 233.091152,55.9870606 C233.374481,55.2093311 234.234899,54.8071371 235.013041,55.0911069 C235.791183,55.3739176 236.192132,56.2345199 235.909382,57.012829 C235.624893,57.791138 234.765055,58.1921729 233.986913,57.9093621" id="Fill-475" fill="#00AA87"></path>
                                <path d="M156.986684,29.9094439 C156.209033,29.6249496 155.806879,28.7650929 156.0914,27.9869343 C156.374182,27.2087757 157.234698,26.8072388 158.012928,27.0911538 C158.791159,27.3744893 159.192154,28.2349253 158.909371,29.0130839 C158.626589,29.7906632 157.764914,30.1922 156.986684,29.9094439" id="Fill-476" fill="#00AA87"></path>
                                <path d="M180.090616,80.9866816 C180.375098,80.2085396 181.234916,79.8075908 182.013619,80.0909202 C182.791743,80.3748291 183.192682,81.2346673 182.90878,82.0128093 C182.625457,82.7909513 181.765639,83.1924796 180.986936,82.9091501 C180.208812,82.6258207 179.807873,81.7648236 180.090616,80.9866816" id="Fill-477" fill="#00AA87"></path>
                                <path d="M208.091166,3.98685104 C208.374522,3.20857541 209.23444,2.80755774 210.012654,3.09093584 C210.791447,3.37431393 211.192433,4.2342998 210.909077,5.01257543 C210.626301,5.79143056 209.764645,6.19244823 208.986431,5.90907014 C208.208796,5.62627155 207.807231,4.76454716 208.091166,3.98685104" id="Fill-478" fill="#00AA87"></path>
                                <path d="M236.239748,51.9769976 C235.424242,51.8332678 234.878832,51.0555041 235.023154,50.2394897 C235.166896,49.4240549 235.944728,48.8792726 236.760234,49.0230024 C237.57632,49.1661527 238.12115,49.9450755 237.976828,50.7605103 C237.833665,51.5759451 237.055254,52.1207274 236.239748,51.9769976" id="Fill-479" fill="#00AA87"></path>
                                <path d="M155.24,36.9769815 C154.424031,36.8326802 153.879279,36.0549597 154.023,35.2395703 C154.166722,34.4241808 154.945022,33.8788493 155.760412,34.0231506 C156.576381,34.1662929 157.121133,34.9445928 156.976831,35.7599823 C156.833109,36.5765308 156.055389,37.1207033 155.24,36.9769815" id="Fill-480" fill="#00AA87"></path>
                                <path d="M187.022832,83.2394897 C187.167129,82.4240549 187.944825,81.8792726 188.760188,82.0230024 C189.576132,82.1667322 190.120287,82.9444959 189.977149,83.7605103 C189.833432,84.5759451 189.055736,85.1207274 188.240372,84.9769976 C187.424429,84.8338473 186.879694,84.0549245 187.022832,83.2394897" id="Fill-481" fill="#00AA87"></path>
                                <path d="M201.023129,2.23957027 C201.166831,1.42418082 201.944445,0.878849273 202.759723,1.02315061 C203.576739,1.16687241 204.120257,1.94459285 203.977135,2.75998231 C203.832853,3.57653081 203.055239,4.12070331 202.239961,3.9769815 C201.424683,3.83268017 200.878847,3.05495973 201.023129,2.23957027" id="Fill-482" fill="#00AA87"></path>
                                <path d="M55,42.5002935 C55,41.6714929 55.6714929,41 56.4997065,41 C57.3285071,41 58,41.6714929 58,42.5002935 C58,43.3290941 57.3285071,44 56.4997065,44 C55.6714929,44 55,43.3290941 55,42.5002935" id="Fill-606" fill="#00AA87"></path>
                                <path d="M63,42.5002935 C63,41.6714929 63.6719484,41 64.5005869,41 C65.3286385,41 66,41.6714929 66,42.5002935 C66,43.3290941 65.3286385,44 64.5005869,44 C63.6719484,44 63,43.3290941 63,42.5002935" id="Fill-607" fill="#00AA87"></path>
                                <path d="M72,42.5002935 C72,41.6714929 72.6714929,41 73.5002935,41 C74.3285071,41 75,41.6714929 75,42.5002935 C75,43.3290941 74.3285071,44 73.5002935,44 C72.6714929,44 72,43.3290941 72,42.5002935" id="Fill-608" fill="#00AA87"></path>
                                <path d="M80,42.5002935 C80,41.6714929 80.6713615,41 81.5,41 C82.3280516,41 83,41.6714929 83,42.5002935 C83,43.3290941 82.3280516,44 81.5,44 C80.6713615,44 80,43.3290941 80,42.5002935" id="Fill-609" fill="#00AA87"></path>
                                <path d="M88,42.5002935 C88,41.6714929 88.6713615,41 89.5,41 C90.3280516,41 91,41.6714929 91,42.5002935 C91,43.3290941 90.3280516,44 89.5,44 C88.6713615,44 88,43.3290941 88,42.5002935" id="Fill-610" fill="#00AA87"></path>
                                <path d="M96,42.5002935 C96,41.6714929 96.6718169,41 97.5002934,41 C98.3287698,41 99,41.6714929 99,42.5002935 C99,43.3290941 98.3287698,44 97.5002934,44 C96.6718169,44 96,43.3290941 96,42.5002935" id="Fill-611" fill="#00AA87"></path>
                                <path d="M105,42.5002935 C105,41.6714929 105.671362,41 106.5,41 C107.328638,41 108,41.6714929 108,42.5002935 C108,43.3290941 107.328638,44 106.5,44 C105.671362,44 105,43.3290941 105,42.5002935" id="Fill-612" fill="#00AA87"></path>
                                <path d="M113,42.5002935 C113,41.6714929 113.671362,41 114.5,41 C115.328638,41 116,41.6714929 116,42.5002935 C116,43.3290941 115.328638,44 114.5,44 C113.671362,44 113,43.3290941 113,42.5002935" id="Fill-613" fill="#00AA87"></path>
                                <path d="M121,42.5002935 C121,41.6714929 121.671362,41 122.5,41 C123.328052,41 124,41.6714929 124,42.5002935 C124,43.3290941 123.328052,44 122.5,44 C121.671362,44 121,43.3290941 121,42.5002935" id="Fill-614" fill="#00AA87"></path>
                                <path d="M23,42.5002935 C23,41.6714929 23.6718169,41 24.5002934,41 C25.3287698,41 26,41.6714929 26,42.5002935 C26,43.3290941 25.3287698,44 24.5002934,44 C23.6718169,44 23,43.3290941 23,42.5002935" id="Fill-611" fill="#00AA87"></path>
                                <path d="M31,42.5002935 C31,41.6714929 31.6713615,41 32.5,41 C33.3286385,41 34,41.6714929 34,42.5002935 C34,43.3290941 33.3286385,44 32.5,44 C31.6713615,44 31,43.3290941 31,42.5002935" id="Fill-612" fill="#00AA87"></path>
                                <path d="M39,42.5002935 C39,41.6714929 39.6713615,41 40.5,41 C41.3286385,41 42,41.6714929 42,42.5002935 C42,43.3290941 41.3286385,44 40.5,44 C39.6713615,44 39,43.3290941 39,42.5002935" id="Fill-613" fill="#00AA87"></path>
                                <path d="M47,42.5002935 C47,41.6714929 47.6713615,41 48.5,41 C49.3280516,41 50,41.6714929 50,42.5002935 C50,43.3290941 49.3280516,44 48.5,44 C47.6713615,44 47,43.3290941 47,42.5002935" id="Fill-614" fill="#00AA87"></path>
                                <path d="M129,42.5002935 C129,41.6714929 129.671948,41 130.5,41 C131.328638,41 132,41.6714929 132,42.5002935 C132,43.3290941 131.328638,44 130.5,44 C129.671948,44 129,43.3290941 129,42.5002935" id="Fill-615" fill="#00AA87"></path>
                                <path d="M137,42.5002935 C137,41.6714929 137.670906,41 138.499707,41 C139.32792,41 140,41.6714929 140,42.5002935 C140,43.3290941 139.32792,44 138.499707,44 C137.670906,44 137,43.3290941 137,42.5002935" id="Fill-616" fill="#00AA87"></path>
                                <path d="M145,42.5002935 C145,41.6714929 145.671817,41 146.500293,41 C147.328183,41 148,41.6714929 148,42.5002935 C148,43.3290941 147.328183,44 146.500293,44 C145.671817,44 145,43.3290941 145,42.5002935" id="Fill-617" fill="#00AA87"></path>
                                <path d="M0,42.999694 C0,47.9701493 4.02937576,52 9,52 C13.9706242,52 18,47.9701493 18,42.999694 C18,38.0292388 13.9706242,34 9,34 C4.02937576,34 0,38.0292388 0,42.999694" id="Fill-634" fill="#00AA87"></path>
                                <path d="M14,43 C14,45.761786 11.7610925,48 8.99971667,48 C6.23834079,48 4,45.761786 4,43 C4,40.2387806 6.23834079,38 8.99971667,38 C11.7610925,38 14,40.2387806 14,43" id="Fill-635" fill="#FFFFFF"></path>
                                <g id="handshake" transform="translate(180.000000, 26.000000)" fill-rule="nonzero">
                                    <path d="M16,8 C13.7945,8 12,6.2055 12,4 C12,1.7945 13.7945,0 16,0 C18.2055,0 20,1.7945 20,4 C20,6.2055 18.2055,8 16,8 Z" id="Shape" fill="#FFFFFF"></path>
                                    <path d="M19,3.64015905 C19,3.2027833 18.8201058,2.79191518 18.4885362,2.48045063 C18.1604938,2.17229954 17.7195767,2 17.2539683,2 C16.7883598,2 16.35097,2.17229954 16.0194004,2.48045063 L15.9982363,2.50033135 L15.9770723,2.48045063 C15.6455026,2.16898608 15.2081129,2 14.7425044,2 C14.2768959,2 13.8395062,2.16898608 13.5114638,2.48045063 C13.1834215,2.78860172 13,3.2027833 13,3.64015905 C13,4.07753479 13.1834215,4.48840292 13.5114638,4.79986746 L15.7477954,6.90059642 L15.7513228,6.90390987 C15.8183422,6.96686547 15.9065256,7 15.9982363,7 L15.9982363,7 C16.0899471,7 16.1781305,6.96686547 16.2451499,6.90390987 L18.4850088,4.79986746 C18.8201058,4.49171637 19,4.07753479 19,3.64015905 Z M17.7361291,4.42031687 L16.0030314,6 L14.2668664,4.41752097 C14.0950903,4.26095061 14,4.05125815 14,3.83038211 C14,3.60950606 14.0950903,3.39981361 14.2668664,3.24324324 C14.4386424,3.08667288 14.6656322,3 14.9079591,3 C15.1502861,3 15.3803433,3.08667288 15.5521193,3.24324324 L15.7852439,3.45573159 C15.9048737,3.56477167 16.0950543,3.56477167 16.2146841,3.45573159 L16.4478087,3.24324324 C16.6195848,3.08667288 16.849642,3 17.0919689,3 C17.3342958,3 17.5612856,3.08667288 17.7330617,3.24324324 C17.9048377,3.39981361 17.999928,3.60671016 17.999928,3.83038211 C18.0029955,4.05405405 17.9079051,4.26374651 17.7361291,4.42031687 Z" id="Shape" fill="#00D2AA"></path>
                                    <g id="Group" transform="translate(0.000000, 3.000000)" fill="#FFFFFF">
                                        <path d="M29.8711733,6.35513682 C27.1217837,3.45655637 22.5774744,3.20061566 19.5298774,5.77042677 L15.9993701,8.74651772 L12.4688628,5.77042677 C9.419202,3.20009546 4.87695646,3.45707657 2.12756681,6.35513682 C0.664905961,7.89702349 -0.105893089,10.0069737 0.0117388943,12.1439745 C0.129886808,14.2788945 1.12614716,16.2879249 2.74719844,17.6545026 L4.30479037,18.966979 C3.98130241,19.7290789 4.03857061,20.6243511 4.54366584,21.2938545 C4.92854944,21.8036551 5.48523764,22.1241012 6.11106043,22.1943288 C6.26222785,22.2109754 6.41236341,22.2140966 6.56095117,22.2010915 C6.54856886,22.3072132 6.5423777,22.4148956 6.54392549,22.5236184 C6.55476002,23.2284957 6.87773204,23.8855142 7.4318406,24.3250872 C7.89050215,24.68819 8.46215231,24.84061 9.0307069,24.7885895 C9.01626087,24.8993931 9.01006971,25.0117574 9.0116175,25.125162 C9.02245203,25.8300393 9.34490812,26.4860174 9.89901667,26.9255904 C10.3576782,27.2886932 10.9288125,27.4452748 11.497883,27.3890927 C11.4839529,27.4998963 11.4772458,27.6127807 11.4787936,27.7261854 C11.4896281,28.4310627 11.8126001,29.087561 12.3667087,29.5266137 C12.7655224,29.8428982 13.2525601,30 13.745273,30 C14.2859674,30 14.8328529,29.8111657 15.2775843,29.4360981 L15.4762173,29.2685922 C15.9095983,29.664468 16.4585476,29.8637064 17.0069809,29.8631862 C17.5750195,29.8631862 18.1415104,29.6525033 18.5805666,29.2316577 C19.0412919,28.7894837 19.3013205,28.1678391 19.2966771,27.5259066 C19.2961612,27.4681638 19.2822311,27.4125019 19.2775877,27.3552794 C19.3823215,27.3698452 19.4870552,27.3838907 19.5928208,27.3838907 C20.1603435,27.3838907 20.7268344,27.173728 21.1658906,26.7528824 C21.6261,26.3112286 21.8866445,25.6901043 21.8820011,25.0476515 C21.8814852,24.9899088 21.8675551,24.9337267 21.8629117,24.8765041 C21.9676454,24.8910699 22.0728951,24.9051154 22.1786607,24.9051154 C22.7456675,24.9051154 23.3126743,24.6939123 23.7512146,24.2730667 C24.2119399,23.8319331 24.4724844,23.2108088 24.467841,22.568356 C24.4673251,22.5100931 24.453395,22.4544312 24.4487516,22.3966884 C24.5534854,22.4112542 24.6582191,22.4252997 24.7639847,22.4252997 C25.3315074,22.4252997 25.8985142,22.2146168 26.3375705,21.7937712 C26.7982957,21.3515972 27.0583243,20.7299527 27.053681,20.0880201 C27.0521332,19.917393 27.0294323,19.7493668 26.9917694,19.5855024 C26.9969287,19.5813407 27.0031198,19.5803003 27.0082791,19.5756185 L29.2530895,17.6545026 C30.8741408,16.2879249 31.8704011,14.2794147 31.988549,12.1439745 C32.1046332,10.0064535 31.3338342,7.89702349 29.8711733,6.35513682 Z M3.42142661,16.7488616 C1.97239619,15.5561683 1.11600765,13.8721227 1.0109293,12.0065352 C0.90532556,10.1399133 1.56784455,8.37001026 2.87554459,7.0237047 C5.29444817,4.53384108 9.29110315,4.3124739 11.9727026,6.52097361 L20.5292325,13.5633465 C20.8108425,13.7955751 20.9773917,14.122971 20.9978819,14.4860546 C21.0183722,14.8491381 20.8896512,15.193602 20.6353616,15.4553118 C20.167763,15.9368372 19.4185544,15.9839035 18.8926372,15.567547 L15.0178731,12.4942671 C14.7919547,12.314277 14.4609579,12.3499647 14.2796977,12.5723663 C14.2786469,12.5739179 14.2786469,12.5754696 14.2775962,12.576504 L14.273393,12.5728835 C13.6329405,13.3719776 12.6762021,13.8302284 11.6485359,13.8302284 C9.79863157,13.8302284 8.29390962,12.3359999 8.29390962,10.5004108 L7.24312614,10.5004108 C7.24312614,12.1135983 8.13366514,13.5219694 9.45029684,14.2771005 L5.01283819,17.9301762 C4.987094,17.951382 4.9676545,17.9777598 4.94296109,18 L3.42142661,16.7488616 Z M13.4493082,27.7971506 C13.1691136,27.6007179 13.0053147,27.3085764 13.000152,26.9955378 C12.9945199,26.6816634 13.1456467,26.3870143 13.4141079,26.1868201 L13.6647342,26 C13.7332575,26.4237932 13.9538462,26.8204202 14.3100736,27.1121437 L15,27.6772013 L14.9145805,27.7407284 C14.4799738,28.0637976 13.8637334,28.0876203 13.4493082,27.7971506 Z M17.6068284,28.6499347 C17.1357996,29.1103152 16.3905592,29.1181985 15.9092795,28.6641245 L14.4080354,27.2482967 C14.1476626,27.00234 14.0026124,26.66704 14.0000496,26.3017838 C13.9969744,25.9375786 14.1368991,25.5991254 14.3931716,25.3494898 C14.6320175,25.1166718 14.9400571,25 15.2491217,25 C15.5510106,25 15.8528996,25.1114163 16.0902079,25.3353 L16.5832761,25.8004104 L17.5935022,26.7537555 C17.8523374,26.9991867 17.9968751,27.3339611 17.9999504,27.6971152 C18.0030256,28.0613203 17.8631009,28.4002992 17.6068284,28.6499347 Z M20.6068284,25.6508199 C20.1347745,26.1101945 19.3900467,26.1175529 18.9097921,25.6655367 L18.7211756,25.4873582 C18.7196379,25.4857814 18.7186128,25.4842046 18.7170752,25.4826278 L17.4080354,24.2479926 L17.4080354,24.2479926 C17.1481751,24.0025372 17.0031249,23.6672042 17.0000496,23.3024376 C16.9969744,22.937671 17.1368991,22.5991844 17.3931716,22.3495242 C17.6320175,22.1172089 17.9400571,22 18.2491217,22 C18.5510106,22 18.8534121,22.1119529 19.0907205,22.3358586 L20.5919646,23.7518259 C20.8523374,23.9978068 20.9973876,24.3331398 20.9999504,24.6984321 C21.0030256,25.0621475 20.8631009,25.4006341 20.6068284,25.6508199 Z M22.6072905,23.6502986 C22.1351761,24.110725 21.3903529,24.1175579 20.9100368,23.6644898 L19.4080877,22.2479953 C19.1476815,22.0025396 19.0031253,21.6666806 19.0000496,21.3019136 C18.996974,20.9371465 19.1369167,20.5991851 19.393222,20.3495246 C19.6320985,20.1166834 19.9406901,20 20.2497943,20 C20.5517219,20 20.8536496,20.1114274 21.0904757,20.3353334 L22.1843867,21.3670881 L22.59345,21.7534048 C22.8528309,21.9983348 22.9968745,22.3341938 22.9999502,22.6984353 C23.0030258,23.0626767 22.8635958,23.4001126 22.6072905,23.6502986 Z M25.6068284,20.6505103 C25.1347745,21.1108309 24.3895342,21.1171367 23.9092795,20.6652238 L23.7201505,20.4865605 C23.7186128,20.4855096 23.7181003,20.4834076 23.7165626,20.4823567 L22.5505229,19.3825268 L22.4080354,19.2480039 C22.1476626,19.0020792 22.0026124,18.6668229 22.0000496,18.3016142 C21.9969744,17.9374565 22.1368991,17.5990473 22.3931716,17.3494443 C22.631505,17.1166566 22.9395445,17 23.2486091,17 C23.5504981,17 23.8528996,17.1119273 24.0902079,17.3357818 L25.5919646,18.7519507 C25.8518249,18.9973499 25.9968751,19.3326062 25.9999504,19.6972894 C26.0030256,20.0619726 25.8631009,20.4009073 25.6068284,20.6505103 Z M30.9891022,11.941678 C30.8852885,13.7892458 30.0392072,15.4580003 28.6045024,16.6420627 L26.5204432,18.3881834 C26.4534834,18.3082554 26.3901571,18.2257655 26.3122968,18.1550599 L24.7914267,16.7742515 C23.9053771,15.9703596 22.5277699,15.9800945 21.654697,16.7998694 C21.1916881,17.2348625 20.9295586,17.8466196 20.9342302,18.4793834 C20.9347493,18.5362553 20.9487641,18.5910777 20.9534357,18.6474373 C20.2817614,18.5557249 19.5768666,18.7509339 19.0531267,19.2417741 C18.5901178,19.6767672 18.3274692,20.2890366 18.3326599,20.9212881 C18.333179,20.97816 18.3471938,21.0329824 18.3518654,21.089342 C17.6801911,20.9976296 16.9752963,21.1918138 16.4515564,21.6831664 C15.9880284,22.1186719 15.726418,22.7309413 15.7310896,23.3631928 C15.7316087,23.4200647 15.7456235,23.4748871 15.7502951,23.5307343 C15.0786207,23.439022 14.3742451,23.6337185 13.8505052,24.1250711 C13.7150283,24.2521363 13.6029096,24.3976463 13.5032485,24.5513541 C13.4368077,24.5708238 13.3724433,24.6025901 13.3153457,24.6492148 L12.2237451,25.5509672 C12.223226,25.5514796 12.2221879,25.5514796 12.2216688,25.5519919 L12.0643911,25.6821312 C11.584253,26.0776726 10.9032354,26.1079018 10.4438599,25.7512997 C10.1339761,25.5104908 9.95334038,25.1523516 9.94763063,24.7685945 C9.94140181,24.384325 10.1080227,24.0241363 10.4033726,23.7787162 L10.4059679,23.7766668 L10.4059679,23.7766668 L15.8053164,19.3201651 L15.1393517,18.5336935 L9.74000331,22.9901952 L9.74052238,22.9907075 L9.74000331,22.9907075 L9.73948424,22.9907075 L9.58272561,23.1203344 C9.10206837,23.5174129 8.42105077,23.5461051 7.96219439,23.1900153 C7.65231062,22.9492064 7.47115578,22.5905549 7.46544603,22.2062853 C7.45973628,21.8220158 7.6263572,21.4618272 7.92170706,21.2169194 L7.92378334,21.2153824 L13.3989157,16.6963728 L12.7329511,15.9099012 L7.25781871,20.4289107 C7.25678058,20.4299355 7.25574244,20.4309602 7.2547043,20.4319849 L7.05434394,20.5964523 C6.7880619,20.8167668 6.45222471,20.9141151 6.10756337,20.8787623 C5.76290202,20.8403353 5.45509452,20.6666455 5.24123838,20.3894591 C4.83376976,19.8601919 4.95471268,19.0552753 5.51167296,18.595689 L10.315131,14.6310523 C10.6629067,14.7202028 11.0257355,14.7729758 11.4010219,14.7729758 C12.5601014,14.7729758 13.6485876,14.3226119 14.4593723,13.5243561 L17.9070239,16.2665033 C18.8496519,17.0176221 20.1919625,16.9310334 21.0307769,16.0661708 C21.4761375,15.6065845 21.7117945,14.9774072 21.6754597,14.3405445 C21.639644,13.7041942 21.3359891,13.1052461 20.8423551,12.6974081 L16.7500207,9.31993518 L20.1582231,6.50708231 C22.8075477,4.3187955 26.7566193,4.5380853 29.1458907,7.0050956 C30.4394089,8.33927937 31.093954,10.0925731 30.9891022,11.941678 Z" id="Shape"></path>
                                        <path d="M21.9515906,2 L22,1.00745156 C21.9151683,1.00248385 21.8294145,1 21.7441217,1 L21,1 L21,1.99354198 L21.7436607,1.99354198 C21.813278,1.99354198 21.8824343,1.99602583 21.9515906,2 Z" id="Shape"></path>
                                        <path d="M24,1.34101208 C23.7491713,1.19675227 23.481768,1.08194864 23.2044199,1 L23,1.72583082 C23.2228361,1.79191843 23.4383057,1.88406344 23.6401473,2 L24,1.34101208 Z" id="Shape"></path>
                                        <path d="M26,2.60538117 C25.8455679,2.38427044 25.6651662,2.18075198 25.4646814,2 L25,2.51121076 C25.1617036,2.65712315 25.307133,2.8213177 25.4317867,3 L26,2.60538117 Z" id="Shape"></path>
                                        <path d="M7,2.51190066 L6.53617169,2 C6.33541018,2.18040704 6.15507096,2.38358055 6,2.60469127 L6.56732433,3 C6.69262721,2.82166264 6.83835237,2.65746809 7,2.51190066 Z" id="Shape"></path>
                                        <path d="M8,1.72637944 L7.79631676,1 C7.51933702,1.08163265 7.25156538,1.19614512 7,1.34013605 L7.35911602,2 C7.56095764,1.88435374 7.77679558,1.79213908 8,1.72637944 Z" id="Shape"></path>
                                        <path d="M10.2509208,1.99403579 L11,1.99403579 L11,1 L10.2509208,1 C10.1662063,1 10.0833333,1.00198807 10,1.00695825 L10.0492634,2 C10.1164825,1.99602386 10.1837017,1.99403579 10.2509208,1.99403579 Z" id="Shape"></path>
                                    </g>
                                </g>
                            </g>
                            <g id="icon-vir3" transform="translate(418.000000, 246.000000)">
                                <path d="M92,83.5 C92,82.6711747 92.6718841,82 93.4997101,82 C94.3281159,82 95,82.6711747 95,83.5 C95,84.3282457 94.3281159,85 93.4997101,85 C92.6718841,85 92,84.3282457 92,83.5" id="Fill-483" fill="#00AAB4"></path>
                                <path d="M92,1.5 C92,0.67175425 92.6718841,0 93.4997101,0 C94.3281159,0 95,0.67175425 95,1.5 C95,2.32882535 94.3281159,3 93.4997101,3 C92.6718841,3 92,2.32882535 92,1.5" id="Fill-484" fill="#00AAB4"></path>
                                <path d="M52.4994204,41 C53.3282457,41 54,41.6708543 54,42.4994202 C54,43.3285659 53.3282457,44 52.4994204,44 C51.6711747,44 51,43.3285659 51,42.4994202 C51,41.6708543 51.6711747,41 52.4994204,41" id="Fill-485" fill="#00AAB4"></path>
                                <path d="M134.50029,41 C135.328116,41 136,41.6708543 136,42.4994202 C136,43.3285659 135.328116,44 134.50029,44 C133.671304,44 133,43.3285659 133,42.4994202 C133,41.6708543 133.671304,41 134.50029,41" id="Fill-486" fill="#00AAB4"></path>
                                <path d="M99.0231286,82.7604297 C98.878847,81.9450403 99.4246833,81.1673198 100.239961,81.0230185 C101.055239,80.8792967 101.832853,81.4234692 101.977135,82.2400177 C102.120257,83.0554072 101.576739,83.8331276 100.759723,83.9768494 C99.9444447,84.1211507 99.1668307,83.5758192 99.0231286,82.7604297" id="Fill-487" fill="#00AAB4"></path>
                                <path d="M85.0228319,2.76051026 C84.8796941,1.94507547 85.424429,1.16615268 86.2403723,1.02300244 C87.0557362,0.879272638 87.8334322,1.42405494 87.9771494,2.23948974 C88.1202872,3.05550409 87.5761318,3.83326776 86.7601885,3.97699756 C85.9448247,4.12072736 85.1671287,3.57594506 85.0228319,2.76051026" id="Fill-488" fill="#00AAB4"></path>
                                <path d="M53.2399996,48.0230153 C54.055389,47.8793132 54.8331094,48.4234111 54.9768312,49.2398477 C55.1211326,50.0557048 54.5763806,50.8333187 53.7604116,50.9770208 C52.9450222,51.1207229 52.1667222,50.5754661 52.0230004,49.7601884 C51.8792786,48.9449107 52.4240306,48.1672969 53.2399996,48.0230153" id="Fill-489" fill="#00AAB4"></path>
                                <path d="M134.239748,34.0229986 C135.055254,33.8792884 135.833665,34.4239961 135.976828,35.2398987 C136.12115,36.0558013 135.57632,36.8334584 134.760234,36.9771685 C133.944728,37.1202992 133.166896,36.5755915 133.023154,35.7602684 C132.878832,34.9443658 133.424242,34.1667087 134.239748,34.0229986" id="Fill-490" fill="#00AAB4"></path>
                                <path d="M106.091166,82.013569 C105.807231,81.235355 106.208796,80.3736989 106.986431,80.0909227 C107.764645,79.807567 108.626301,80.2085529 108.909077,80.9873464 C109.192433,81.7655604 108.791447,82.6254781 108.012654,82.9088338 C107.23444,83.1927689 106.374522,82.7912035 106.091166,82.013569" id="Fill-491" fill="#00AAB4"></path>
                                <path d="M78.0906163,5.01304083 C77.8078729,4.23489885 78.2088123,3.37448125 78.986936,3.09115182 C79.7656391,2.80724298 80.625457,3.20877119 80.9087798,3.98691317 C81.192682,4.76505515 80.7917426,5.62489335 80.0136189,5.90938159 C79.2349158,6.19213162 78.3750978,5.79118281 78.0906163,5.01304083" id="Fill-492" fill="#00AAB4"></path>
                                <path d="M54.9866838,55.0908578 C55.7649145,54.8075223 56.626589,55.2090591 56.9093713,55.9866384 C57.1921535,56.7647971 56.791159,57.6258127 56.0129284,57.9091482 C55.2346977,58.1924837 54.3741821,57.7909469 54.0913999,57.0127881 C53.8068792,56.2346294 54.2090327,55.3747727 54.9866838,55.0908578" id="Fill-493" fill="#00AAB4"></path>
                                <path d="M131.987099,27.0906338 C132.765169,26.8078358 133.624928,27.2088526 133.90939,27.9871266 C134.192114,28.7654006 133.791202,29.6259642 133.013132,29.9087622 C132.235062,30.1927192 131.374724,29.7917024 131.090841,29.0134284 C130.807538,28.2351544 131.209029,27.3740113 131.987099,27.0906338" id="Fill-494" fill="#00AAB4"></path>
                                <path d="M113.201407,79.2494478 C112.786948,78.5326028 113.032725,77.6152499 113.749767,77.2009053 C114.467388,76.7871403 115.384413,77.0328495 115.798872,77.7508535 C116.21275,78.4676985 115.967553,79.384472 115.249932,79.7988165 C114.53289,80.213161 113.614706,79.9668723 113.201407,79.2494478" id="Fill-495" fill="#00AAB4"></path>
                                <path d="M72.2012304,8.24993187 C71.7868319,7.53289006 72.0331527,6.61470556 72.7500911,6.2014066 C73.4670296,5.78694832 74.3845022,6.03272498 74.7989007,6.74976679 C75.2127197,7.46738826 74.967558,8.38441343 74.25004,8.79887172 C73.532522,9.21275033 72.6150494,8.96755334 72.2012304,8.24993187" id="Fill-496" fill="#00AAB4"></path>
                                <path d="M57.7501216,62.2008343 C58.4675478,61.786998 59.3849029,62.0333291 59.7986689,62.7502978 C60.2130144,63.467846 59.9673046,64.3847776 59.2498784,64.798614 C58.5324522,65.2130299 57.6156766,64.9672784 57.2013311,64.2503097 C56.7869856,63.5327615 57.0326954,62.6152503 57.7501216,62.2008343" id="Fill-497" fill="#00AAB4"></path>
                                <path d="M128.750398,21.2009419 C129.467341,20.7871442 130.38482,21.0328728 130.798642,21.7503539 C131.213043,22.4672555 130.9673,23.3846809 130.249777,23.7990581 C129.532254,24.2128558 128.614775,23.9671272 128.200954,23.2496461 C127.787132,22.5321649 128.032875,21.6147395 128.750398,21.2009419" id="Fill-498" fill="#00AAB4"></path>
                                <path d="M119.350334,74.4637177 C118.818827,73.8290474 118.901132,72.8837074 119.535811,72.351048 C120.170489,71.8183886 121.116421,71.9012725 121.649087,72.5359429 C122.181753,73.1700336 122.098289,74.1165328 121.46477,74.6491922 C120.829512,75.1818516 119.883,75.0983881 119.350334,74.4637177" id="Fill-499" fill="#00AAB4"></path>
                                <path d="M66.3507305,12.4645438 C65.8186935,11.829823 65.9009911,10.8832484 66.53619,10.3511263 C67.1702298,9.81842455 68.1166529,9.90131503 68.6492695,10.5354562 C69.1813065,11.170177 69.0990089,12.1161719 68.46381,12.6488737 C67.8291907,13.1815755 66.8833471,13.098685 66.3507305,12.4645438" id="Fill-500" fill="#00AAB4"></path>
                                <path d="M61.5359605,67.3510094 C62.1700722,66.8183323 63.1166026,66.9012189 63.6487,67.5364899 C64.1813769,68.1706017 64.0990699,69.1171323 63.4643787,69.6492297 C62.8296874,70.1813271 61.8837366,70.0990201 61.3510596,69.4637491 C60.8183827,68.8296374 60.9012693,67.8836864 61.5359605,67.3510094" id="Fill-501" fill="#00AAB4"></path>
                                <path d="M124.535572,15.3510596 C125.170312,14.8183827 126.116335,14.9012693 126.649053,15.5359605 C127.181771,16.1706518 127.098298,17.1171822 126.464718,17.6487 C125.829978,18.1813769 124.883375,18.0990699 124.350657,17.4643787 C123.818519,16.8296874 123.901412,15.8831569 124.535572,15.3510596" id="Fill-502" fill="#00AAB4"></path>
                                <path d="M124.535572,69.6492297 C123.901412,69.1171323 123.818519,68.1706017 124.350657,67.5364899 C124.883375,66.9012189 125.829978,66.8183323 126.464718,67.3510094 C127.098298,67.8836864 127.181771,68.8296374 126.649053,69.4637491 C126.116335,70.0990201 125.170312,70.1813271 124.535572,69.6492297" id="Fill-503" fill="#00AAB4"></path>
                                <path d="M61.5359605,17.6487 C60.9012693,17.1171822 60.8183827,16.1706518 61.3510596,15.5359605 C61.8837366,14.9012693 62.8296874,14.8183827 63.4643787,15.3510596 C64.0990699,15.8831569 64.1813769,16.8296874 63.6487,17.4643787 C63.1166026,18.0990699 62.1700722,18.1813769 61.5359605,17.6487" id="Fill-504" fill="#00AAB4"></path>
                                <path d="M66.3507305,72.5359429 C66.8833471,71.9012725 67.8291907,71.8183886 68.46381,72.351048 C69.0990089,72.8837074 69.1813065,73.8290474 68.6492695,74.4637177 C68.1166529,75.0983881 67.1702298,75.1818516 66.53619,74.6491922 C65.9009911,74.1165328 65.8186935,73.1700336 66.3507305,72.5359429" id="Fill-505" fill="#00AAB4"></path>
                                <path d="M119.350334,10.5354562 C119.883,9.90131503 120.829512,9.81842455 121.46477,10.3511263 C122.098289,10.8832484 122.181753,11.829823 121.649087,12.4645438 C121.116421,13.098685 120.170489,13.1815755 119.535811,12.6488737 C118.901132,12.1161719 118.818827,11.170177 119.350334,10.5354562" id="Fill-506" fill="#00AAB4"></path>
                                <path d="M128.750398,64.798614 C128.032875,64.3847776 127.787132,63.467846 128.200954,62.7502978 C128.614775,62.0333291 129.532254,61.786998 130.249777,62.2008343 C130.9673,62.6152503 131.213043,63.5327615 130.798642,64.2503097 C130.38482,64.9672784 129.467341,65.2130299 128.750398,64.798614" id="Fill-507" fill="#00AAB4"></path>
                                <path d="M57.7501216,23.7990581 C57.0326954,23.3846809 56.7869856,22.4672555 57.2013311,21.7503539 C57.6156766,21.0328728 58.5324522,20.7871442 59.2498784,21.2009419 C59.9673046,21.6147395 60.2130144,22.5321649 59.7986689,23.2496461 C59.3849029,23.9671272 58.4675478,24.2128558 57.7501216,23.7990581" id="Fill-508" fill="#00AAB4"></path>
                                <path d="M72.2012304,77.7508535 C72.6150494,77.0328495 73.532522,76.7871403 74.25004,77.2009053 C74.967558,77.6152499 75.2127197,78.5326028 74.7989007,79.2494478 C74.3845022,79.9668723 73.4670296,80.213161 72.7500911,79.7988165 C72.0331527,79.384472 71.7868319,78.4676985 72.2012304,77.7508535" id="Fill-509" fill="#00AAB4"></path>
                                <path d="M113.201407,6.74976679 C113.614706,6.03272498 114.53289,5.78694832 115.249932,6.2014066 C115.967553,6.61470556 116.21275,7.53289006 115.798872,8.24993187 C115.384413,8.96755334 114.467388,9.21275033 113.749767,8.79887172 C113.032725,8.38441343 112.786948,7.46738826 113.201407,6.74976679" id="Fill-510" fill="#00AAB4"></path>
                                <path d="M131.987099,57.9091482 C131.209029,57.6258127 130.807538,56.7647971 131.090841,55.9866384 C131.374724,55.2090591 132.235062,54.8075223 133.013132,55.0908578 C133.791202,55.3747727 134.192114,56.2346294 133.90939,57.0127881 C133.624928,57.7909469 132.765169,58.1924837 131.987099,57.9091482" id="Fill-511" fill="#00AAB4"></path>
                                <path d="M54.9866838,29.9087622 C54.2090327,29.6259642 53.8068792,28.7654006 54.0913999,27.9871266 C54.3741821,27.2088526 55.2346977,26.8078358 56.0129284,27.0906338 C56.791159,27.3740113 57.1921535,28.2351544 56.9093713,29.0134284 C56.626589,29.7917024 55.7649145,30.1927192 54.9866838,29.9087622" id="Fill-512" fill="#00AAB4"></path>
                                <path d="M78.0906163,80.9873464 C78.3750978,80.2085529 79.2349158,79.807567 80.0136189,80.0909227 C80.7917426,80.3736989 81.192682,81.235355 80.9087798,82.013569 C80.625457,82.7912035 79.7656391,83.1927689 78.986936,82.9088338 C78.2088123,82.6254781 77.8078729,81.7655604 78.0906163,80.9873464" id="Fill-513" fill="#00AAB4"></path>
                                <path d="M106.091166,3.98691317 C106.374522,3.20877119 107.23444,2.80724298 108.012654,3.09115182 C108.791447,3.37448125 109.192433,4.23489885 108.909077,5.01304083 C108.626301,5.79118281 107.764645,6.19213162 106.986431,5.90938159 C106.208796,5.62489335 105.807231,4.76505515 106.091166,3.98691317" id="Fill-514" fill="#00AAB4"></path>
                                <path d="M134.239748,50.9770208 C133.424242,50.8333187 132.878832,50.0557048 133.023154,49.2398477 C133.166896,48.4234111 133.944728,47.8793132 134.760234,48.0230153 C135.57632,48.1672969 136.12115,48.9449107 135.976828,49.7601884 C135.833665,50.5754661 135.055254,51.1207229 134.239748,50.9770208" id="Fill-515" fill="#00AAB4"></path>
                                <path d="M53.2399996,36.9771685 C52.4240306,36.8334584 51.8792786,36.0558013 52.0230004,35.2398987 C52.1667222,34.4239961 52.9450222,33.8792884 53.7604116,34.0229986 C54.5763806,34.1667087 55.1211326,34.9443658 54.9768312,35.7602684 C54.8331094,36.5755915 54.055389,37.1202992 53.2399996,36.9771685" id="Fill-516" fill="#00AAB4"></path>
                                <path d="M85.0228319,82.2400177 C85.1671287,81.4234692 85.9448247,80.8792967 86.7601885,81.0230185 C87.5761318,81.1673198 88.1202872,81.9450403 87.9771494,82.7604297 C87.8334322,83.5758192 87.0557362,84.1211507 86.2403723,83.9768494 C85.424429,83.8331276 84.8796941,83.0554072 85.0228319,82.2400177" id="Fill-517" fill="#00AAB4"></path>
                                <path d="M99.0231286,2.23948974 C99.1668307,1.42405494 99.9444447,0.879272638 100.759723,1.02300244 C101.576739,1.16615268 102.120257,1.94507547 101.977135,2.76051026 C101.832853,3.57594506 101.055239,4.12072736 100.239961,3.97699756 C99.4246833,3.83326776 98.878847,3.05550409 99.0231286,2.23948974" id="Fill-518" fill="#00AAB4"></path>
                                <path d="M27,42.4997065 C27,41.6709059 27.6719484,41 28.5,41 C29.3286385,41 30,41.6709059 30,42.4997065 C30,43.3290941 29.3286385,44 28.5,44 C27.6719484,44 27,43.3290941 27,42.4997065" id="Fill-621" fill="#00AAB4"></path>
                                <path d="M35,42.4997065 C35,41.6709059 35.6707746,41 36.5,41 C37.3280516,41 38,41.6709059 38,42.4997065 C38,43.3290941 37.3280516,44 36.5,44 C35.6707746,44 35,43.3290941 35,42.4997065" id="Fill-622" fill="#00AAB4"></path>
                                <path d="M43,42.4997065 C43,41.6709059 43.6718169,41 44.5002934,41 C45.3281831,41 46,41.6709059 46,42.4997065 C46,43.3290941 45.3281831,44 44.5002934,44 C43.6718169,44 43,43.3290941 43,42.4997065" id="Fill-623" fill="#00AAB4"></path>
                                <path d="M20,42.4997065 C20,41.6709059 20.6718169,41 21.5002934,41 C22.3281831,41 23,41.6709059 23,42.4997065 C23,43.3290941 22.3281831,44 21.5002934,44 C20.6718169,44 20,43.3290941 20,42.4997065" id="Fill-623" fill="#00AAB4"></path>
                                <path d="M0,42.5 C0,46.6421869 3.35781314,50 7.5,50 C11.6426969,50 15,46.6421869 15,42.5 C15,38.3578131 11.6426969,35 7.5,35 C3.35781314,35 0,38.3578131 0,42.5" id="Fill-632" stroke="#00AAB4" stroke-width="4" fill="#FFFFFF"></path>
                                <path d="M129,42.999398 C129,62.3301283 113.329526,78 94,78 C74.6704737,78 59,62.3301283 59,42.999398 C59,23.6704737 74.6704737,8 94,8 C113.329526,8 129,23.6704737 129,42.999398" id="Fill-410" fill="#00D7E1"></path>
                                <g id="user" transform="translate(78.000000, 27.000000)" fill-rule="nonzero" fill="#FFFFFF">
                                    <path d="M23.6332623,16.9392523 L26.6588486,16.9392523 C27.0170576,18.1378505 28.0469083,19 29.2622601,19 C30.771855,19 32,17.6542056 32,16 C32,14.3457944 30.771855,13 29.2622601,13 C27.8933902,13 26.7547974,14.114486 26.5565032,15.5584112 L23.6332623,15.5584112 C23.2814499,15.5584112 23,15.8668224 23,16.2523364 C23,16.6308411 23.2878465,16.9392523 23.6332623,16.9392523 Z M29.5,14 C30.3282609,14 31,14.6717391 31,15.5 C31,16.3282609 30.3282609,17 29.5,17 C28.6717391,17 28,16.3282609 28,15.5 C28,14.6717391 28.6717391,14 29.5,14 Z" id="Shape"></path>
                                    <path d="M21.1986737,10.8189117 C21.3317005,10.9375558 21.5137373,11 21.6887727,11 C21.8638081,11 22.0458448,10.9375558 22.1788717,10.8189117 L24.3353075,8.8956289 C24.8254065,9.18911686 25.3995225,9.34522748 26.0016442,9.34522748 C26.7998054,9.34522748 27.5559582,9.06422837 28.1230728,8.5646744 C29.2923091,7.52185549 29.2923091,5.82337199 28.1230728,4.78055308 C27.5559582,4.27475468 26.7998054,4 26.0016442,4 C25.2034829,4 24.4473301,4.28099911 23.8802155,4.78055308 C22.9070189,5.6485281 22.7459863,6.97234612 23.3971179,7.99018733 L21.2056751,9.94469224 C20.9326199,10.1819804 20.9326199,10.5753791 21.1986737,10.8189117 Z M24.4392625,5.43600868 C24.7255965,5.14967462 25.0965293,5 25.5,5 C25.9034707,5 26.2744035,5.15618221 26.5607375,5.43600868 C27.1464208,6.02169197 27.1464208,6.97180043 26.5607375,7.55748373 C26.2744035,7.84381779 25.9034707,8 25.5,8 C25.0965293,8 24.7255965,7.84381779 24.4392625,7.55748373 C23.8535792,6.97180043 23.8535792,6.02169197 24.4392625,5.43600868 Z" id="Shape"></path>
                                    <path d="M15.0817757,5.33617021 L15.0817757,8.36808511 C15.0817757,8.71914894 15.3901869,9 15.7757009,9 C16.161215,9 16.4696262,8.71914894 16.4696262,8.36808511 L16.4696262,5.43191489 C17.8995327,5.22765957 19,4.09787234 19,2.73191489 C19,1.22553191 17.6542056,0 16,0 C14.3457944,0 13,1.22553191 13,2.73191489 C13,3.95106383 13.8761682,4.9787234 15.0817757,5.33617021 Z M15.5,1 C16.3282609,1 17,1.67173913 17,2.5 C17,3.32826087 16.3282609,4 15.5,4 C14.6717391,4 14,3.32826087 14,2.5 C14,1.67173913 14.6717391,1 15.5,1 Z" id="Shape"></path>
                                    <path d="M2.81580696,19 C4.0592245,19 5.11843203,18.1318553 5.49343097,16.9416569 L8.34868605,16.9416569 C8.71052713,16.9416569 9,16.6336056 9,16.2485414 C9,15.8634772 8.71052713,15.5554259 8.34868605,15.5554259 L5.59869383,15.5554259 C5.39474704,14.1131855 4.22369772,13 2.81580696,13 C1.26317977,13 2.5451036e-05,14.344224 2.5451036e-05,15.9964994 C-0.00655347773,17.6487748 1.26317977,19 2.81580696,19 Z M2.50002332,14 C3.32827131,14 4,14.6717391 4,15.5 C4,16.3282609 3.32827131,17 2.50002332,17 C1.67177533,17 1.00004664,16.3282609 1.00004664,15.5 C0.993525003,14.6717391 1.67177533,14 2.50002332,14 Z" id="Shape"></path>
                                    <path d="M7.04567627,9.2622807 C7.59201774,9.2622807 8.11707317,9.13333333 8.57827051,8.9 L10.7991131,10.8219298 C10.9339246,10.9385965 11.1184035,11 11.2957871,11 C11.4731707,11 11.6576497,10.9385965 11.7924612,10.8219298 C12.0691796,10.5824561 12.0691796,10.2017544 11.7924612,9.9622807 L9.59290466,8.05877193 C10.3521064,7.03947368 10.2243902,5.66403509 9.18847007,4.76754386 C8.61374723,4.27017544 7.84745011,4 7.03858093,4 C6.22971175,4 5.46341463,4.27631579 4.8886918,4.76754386 C3.7037694,5.79298246 3.7037694,7.46315789 4.8886918,8.48859649 C5.47050998,8.98596491 6.2368071,9.2622807 7.04567627,9.2622807 Z M5.43926247,5.43600868 C5.72559653,5.14967462 6.09652928,5 6.5,5 C6.90347072,5 7.27440347,5.15618221 7.56073753,5.43600868 C8.14642082,6.02169197 8.14642082,6.97180043 7.56073753,7.55748373 C7.27440347,7.84381779 6.90347072,8 6.5,8 C6.09652928,8 5.72559653,7.84381779 5.43926247,7.55748373 C4.85357918,6.97180043 4.85357918,6.02169197 5.43926247,5.43600868 Z" id="Shape"></path>
                                    <path d="M12.5921099,20.0622951 L12.5921099,22.8819672 C11.7932371,23.3016393 9.74533286,24.4557377 7.83691441,26.0754098 C7.30433251,26.5278689 7,27.1967213 7,27.9114754 L7,30.3508197 C7,30.7114754 7.27897147,31 7.6276858,31 C7.97640014,31 8.25537161,30.7114754 8.25537161,30.3508197 L8.25537161,27.9114754 C8.25537161,27.5901639 8.39485734,27.2819672 8.63578725,27.0786885 C10.721733,25.3081967 12.9788658,24.1278689 13.4100035,23.9114754 C13.6826347,23.7737705 13.8474815,23.4983607 13.8474815,23.1836066 L13.8474815,19.7540984 C13.8474815,19.5377049 13.7396971,19.3344262 13.56851,19.2163934 C13.3085594,19.0393443 13.1563931,18.7377049 13.1563931,18.4229508 L13.1563931,14.8622951 C13.1563931,13.452459 14.2659387,12.304918 15.6290948,12.304918 L16.3709052,12.304918 C17.7340613,12.304918 18.8436069,13.452459 18.8436069,14.8622951 L18.8436069,18.4229508 C18.8436069,18.7442623 18.6914406,19.0393443 18.43149,19.2163934 C18.2539627,19.3344262 18.1525185,19.5377049 18.1525185,19.7540984 L18.1525185,23.1836066 C18.1525185,23.4918033 18.3237055,23.7737705 18.5899965,23.9114754 C19.0211342,24.1278689 21.278267,25.3081967 23.3642128,27.0786885 C23.6051427,27.2819672 23.7446284,27.5836066 23.7446284,27.9114754 L23.7446284,30.3508197 C23.7446284,30.7114754 24.0235999,31 24.3723142,31 C24.7210285,31 25,30.7114754 25,30.3508197 L25,27.9114754 C25,27.1967213 24.6956675,26.5278689 24.1630856,26.0754098 C22.2546671,24.4491803 20.2067629,23.3016393 19.4078901,22.8819672 L19.4078901,20.0622951 C19.8453681,19.642623 20.0989785,19.0459016 20.0989785,18.4163934 L20.0989785,14.8557377 C20.0989785,12.7311475 18.4251497,11 16.3709052,11 L15.6290948,11 C13.5748503,11 11.9010215,12.7311475 11.9010215,14.8557377 L11.9010215,18.4163934 C11.9010215,19.0459016 12.1546319,19.642623 12.5921099,20.0622951 Z" id="Shape"></path>
                                </g>
                            </g>
                            <g id="icon-vir2" transform="translate(414.000000, 124.000000)">
                                <path d="M96,83.5 C96,82.6711747 96.6718841,82 97.4997101,82 C98.3281159,82 99,82.6711747 99,83.5 C99,84.3282457 98.3281159,85 97.4997101,85 C96.6718841,85 96,84.3282457 96,83.5" id="Fill-519" fill="#008CB4"></path>
                                <path d="M96,1.49971014 C96,0.671304348 96.6718841,0 97.4997101,0 C98.3281159,0 99,0.671304348 99,1.49971014 C99,2.32811594 98.3281159,3 97.4997101,3 C96.6718841,3 96,2.32811594 96,1.49971014" id="Fill-520" fill="#008CB4"></path>
                                <path d="M56.4994204,41 C57.3282457,41 58,41.6713043 58,42.4997101 C58,43.3286957 57.3282457,44 56.4994204,44 C55.6711747,44 55,43.3286957 55,42.4997101 C55,41.6713043 55.6711747,41 56.4994204,41" id="Fill-521" fill="#008CB4"></path>
                                <path d="M138.50029,41 C139.328116,41 140,41.6713043 140,42.4997101 C140,43.3286957 139.328116,44 138.50029,44 C137.671304,44 137,43.3286957 137,42.4997101 C137,41.6713043 137.671304,41 138.50029,41" id="Fill-522" fill="#008CB4"></path>
                                <path d="M103.023129,82.7604997 C102.878847,81.9450698 103.424683,81.1667312 104.239961,81.0230023 C105.055239,80.8792734 105.832853,81.4240524 105.977135,82.2394823 C106.120257,83.0554917 105.576739,83.8332507 104.759723,83.9769796 C103.944445,84.1207086 103.166831,83.5765091 103.023129,82.7604997" id="Fill-523" fill="#008CB4"></path>
                                <path d="M89.0228319,1.76057951 C88.8796941,0.944610752 89.424429,0.166890528 90.2403723,0.0231687583 C91.0557362,-0.121132535 91.8334322,0.423619335 91.9771494,1.23958809 C92.1202872,2.05497733 91.5761318,2.83327708 90.7601885,2.97699885 C89.9448247,3.12072062 89.1671287,2.57596875 89.0228319,1.76057951" id="Fill-524" fill="#008CB4"></path>
                                <path d="M57.2399996,48.0230204 C58.055389,47.8792914 58.8331094,48.423491 58.9768312,49.2395006 C59.1211326,50.0549307 58.5763806,50.8332695 57.7604116,50.9769984 C56.9450222,51.1207274 56.1667222,50.5759482 56.0230004,49.7599386 C55.8792786,48.9445085 56.4240306,48.1661698 57.2399996,48.0230204" id="Fill-525" fill="#008CB4"></path>
                                <path d="M138.239748,34.0229993 C139.055254,33.8792892 139.833665,34.4239968 139.976828,35.2393197 C140.12115,36.055222 139.57632,36.832879 138.760234,36.9771686 C137.944728,37.1202992 137.166896,36.5755916 137.023154,35.7602687 C136.878832,34.9449458 137.424242,34.1667094 138.239748,34.0229993" id="Fill-526" fill="#008CB4"></path>
                                <path d="M110.091166,81.0129724 C109.807231,80.2347401 110.208796,79.3742227 110.986431,79.0908604 C111.764645,78.8074981 112.626301,79.2090729 112.909077,79.9873051 C113.192433,80.7655374 112.791447,81.6254753 112.012654,81.9088376 C111.23444,82.1927794 110.374522,81.7912046 110.091166,81.0129724" id="Fill-527" fill="#008CB4"></path>
                                <path d="M82.0906163,4.01278617 C81.8078729,3.23462591 82.2088123,2.37418809 82.986936,2.090852 C83.7656391,1.80751591 84.625457,2.20905356 84.9087798,2.98721383 C85.192682,3.76537409 84.7917426,4.62581191 84.0136189,4.909148 C83.2349158,5.19248409 82.3750978,4.79094644 82.0906163,4.01278617" id="Fill-528" fill="#008CB4"></path>
                                <path d="M58.9866838,55.0909234 C59.7649145,54.8075655 60.626589,55.2085546 60.9093713,55.9873543 C61.1921535,56.7649951 60.791159,57.6254993 60.0129284,57.9094367 C59.2346977,58.1922152 58.3741821,57.7906466 58.0913999,57.0130058 C57.8068792,56.2347855 58.2090327,55.3742813 58.9866838,55.0909234" id="Fill-529" fill="#008CB4"></path>
                                <path d="M135.987099,27.0905633 C136.765169,26.8077848 137.624928,27.2093534 137.90939,27.9869942 C138.192114,28.765794 137.791202,29.6257187 137.013132,29.9090766 C136.235062,30.1924345 135.374724,29.7914454 135.090841,29.0126457 C134.807538,28.2344254 135.209029,27.3739212 135.987099,27.0905633" id="Fill-530" fill="#008CB4"></path>
                                <path d="M117.201407,78.2495513 C116.786948,77.5326799 117.032725,76.6152932 117.749767,76.2009334 C118.467388,75.7871531 119.384413,76.0328714 119.798872,76.7503223 C120.21275,77.4671937 119.967553,78.3845804 119.249932,78.7989402 C118.53289,79.2127205 117.614706,78.9675817 117.201407,78.2495513" id="Fill-531" fill="#008CB4"></path>
                                <path d="M76.2012304,7.24978242 C75.7868319,6.53226439 76.0331527,5.6153714 76.7500911,5.20097286 C77.4670296,4.7871539 78.3845022,5.03289513 78.7989007,5.74983358 C79.2127197,6.46793119 78.967558,7.38482418 78.25004,7.79864314 C77.532522,8.21304168 76.6150494,7.96730045 76.2012304,7.24978242" id="Fill-532" fill="#008CB4"></path>
                                <path d="M61.7501216,61.2009419 C62.4675478,60.7871442 63.3849029,61.0328728 63.7986689,61.7503539 C64.2130144,62.4672555 63.9673046,63.3846809 63.2498784,63.7990581 C62.5324522,64.2128558 61.6156766,63.9671272 61.2013311,63.2496461 C60.7869856,62.5327445 61.0326954,61.6153191 61.7501216,61.2009419" id="Fill-533" fill="#008CB4"></path>
                                <path d="M132.750398,20.2012131 C133.467341,19.7868502 134.38482,20.0331498 134.798642,20.7500267 C135.213043,21.4674832 134.9673,22.384877 134.249777,22.7986604 C133.532254,23.2130234 132.614775,22.9673033 132.200954,22.2498468 C131.787132,21.5323904 132.032875,20.6155761 132.750398,20.2012131" id="Fill-534" fill="#008CB4"></path>
                                <path d="M123.350334,74.4639965 C122.818827,73.829834 122.901132,72.8838074 123.535811,72.3510878 C124.170489,71.8183681 125.116421,71.9012614 125.649087,72.5360035 C126.181753,73.1707456 126.098289,74.1167723 125.46477,74.6489122 C124.829512,75.1816319 123.883,75.0987386 123.350334,74.4639965" id="Fill-535" fill="#008CB4"></path>
                                <path d="M70.3507305,11.4640144 C69.8186935,10.8298732 69.9009911,9.88329851 70.53619,9.35059666 C71.1702298,8.81847447 72.1166529,8.90136496 72.6492695,9.53608588 C73.1813065,10.1702271 73.0990089,11.1168018 72.46381,11.648924 C71.8291907,12.1816258 70.8833471,12.0987353 70.3507305,11.4640144" id="Fill-536" fill="#008CB4"></path>
                                <path d="M65.5359605,67.3510479 C66.1700722,66.8183887 67.1166026,66.9012726 67.6487,67.5359426 C68.1813769,68.1706127 68.0990699,69.1171116 67.4643787,69.6491911 C66.8296874,70.1812707 65.8837366,70.0989665 65.3510596,69.4642964 C64.8183827,68.8296263 64.9012693,67.8837071 65.5359605,67.3510479" id="Fill-537" fill="#008CB4"></path>
                                <path d="M128.535572,14.3510596 C129.170312,13.8183827 130.116335,13.9012693 130.649053,14.5359605 C131.181771,15.1706518 131.098298,16.1166026 130.464718,16.6487 C129.829978,17.1813769 128.883375,17.0990699 128.350657,16.4643787 C127.818519,15.8296874 127.901412,14.8837366 128.535572,14.3510596" id="Fill-538" fill="#008CB4"></path>
                                <path d="M128.535572,69.6491911 C127.901412,69.1171116 127.818519,68.1706127 128.350657,67.5359426 C128.883375,66.9012726 129.829978,66.8183887 130.464718,67.3510479 C131.098298,67.8837071 131.181771,68.8296263 130.649053,69.4642964 C130.116335,70.0989665 129.170312,70.1812707 128.535572,69.6491911" id="Fill-539" fill="#008CB4"></path>
                                <path d="M65.5359605,16.6487 C64.9012693,16.1166026 64.8183827,15.1706518 65.3510596,14.5359605 C65.8837366,13.9012693 66.8296874,13.8183827 67.4643787,14.3510596 C68.0990699,14.8837366 68.1813769,15.8296874 67.6487,16.4643787 C67.1166026,17.0990699 66.1700722,17.1813769 65.5359605,16.6487" id="Fill-540" fill="#008CB4"></path>
                                <path d="M70.3507305,72.5360035 C70.8833471,71.9012614 71.8291907,71.8183681 72.46381,72.3510878 C73.0990089,72.8838074 73.1813065,73.829834 72.6492695,74.4639965 C72.1166529,75.0987386 71.1702298,75.1816319 70.53619,74.6489122 C69.9009911,74.1167723 69.8186935,73.1707456 70.3507305,72.5360035" id="Fill-541" fill="#008CB4"></path>
                                <path d="M123.350334,9.53608588 C123.883,8.90136496 124.829512,8.81847447 125.46477,9.35059666 C126.098289,9.88329851 126.181753,10.8298732 125.649087,11.4640144 C125.116421,12.0987353 124.170489,12.1816258 123.535811,11.648924 C122.901132,11.1168018 122.818827,10.1702271 123.350334,9.53608588" id="Fill-542" fill="#008CB4"></path>
                                <path d="M132.750398,63.7990581 C132.032875,63.3846809 131.787132,62.4672555 132.200954,61.7503539 C132.614775,61.0328728 133.532254,60.7871442 134.249777,61.2009419 C134.9673,61.6153191 135.213043,62.5327445 134.798642,63.2496461 C134.38482,63.9671272 133.467341,64.2128558 132.750398,63.7990581" id="Fill-543" fill="#008CB4"></path>
                                <path d="M61.7501216,22.7986604 C61.0326954,22.384877 60.7869856,21.4674832 61.2013311,20.7500267 C61.6156766,20.0331498 62.5324522,19.7868502 63.2498784,20.2012131 C63.9673046,20.6155761 64.2130144,21.5323904 63.7986689,22.2498468 C63.3849029,22.9673033 62.4675478,23.2130234 61.7501216,22.7986604" id="Fill-544" fill="#008CB4"></path>
                                <path d="M76.2012304,76.7503223 C76.6150494,76.0328714 77.532522,75.7871531 78.25004,76.2009334 C78.967558,76.6152932 79.2127197,77.5326799 78.7989007,78.2495513 C78.3845022,78.9675817 77.4670296,79.2127205 76.7500911,78.7989402 C76.0331527,78.3845804 75.7868319,77.4671937 76.2012304,76.7503223" id="Fill-545" fill="#008CB4"></path>
                                <path d="M117.201407,5.74983358 C117.614706,5.03289513 118.53289,4.7871539 119.249932,5.20097286 C119.967553,5.6153714 120.21275,6.53226439 119.798872,7.24978242 C119.384413,7.96730045 118.467388,8.21304168 117.749767,7.79864314 C117.032725,7.38482418 116.786948,6.46793119 117.201407,5.74983358" id="Fill-546" fill="#008CB4"></path>
                                <path d="M135.987099,57.9094367 C135.209029,57.6254993 134.807538,56.7649951 135.090841,55.9873543 C135.374724,55.2085546 136.235062,54.8075655 137.013132,55.0909234 C137.791202,55.3742813 138.192114,56.2347855 137.90939,57.0130058 C137.624928,57.7906466 136.765169,58.1922152 135.987099,57.9094367" id="Fill-547" fill="#008CB4"></path>
                                <path d="M58.9866838,29.9090766 C58.2090327,29.6257187 57.8068792,28.765794 58.0913999,27.9869942 C58.3741821,27.2093534 59.2346977,26.8077848 60.0129284,27.0905633 C60.791159,27.3739212 61.1921535,28.2344254 60.9093713,29.0126457 C60.626589,29.7914454 59.7649145,30.1924345 58.9866838,29.9090766" id="Fill-548" fill="#008CB4"></path>
                                <path d="M82.0906163,79.9873051 C82.3750978,79.2090729 83.2349158,78.8074981 84.0136189,79.0908604 C84.7917426,79.3742227 85.192682,80.2347401 84.9087798,81.0129724 C84.625457,81.7912046 83.7656391,82.1927794 82.986936,81.9088376 C82.2088123,81.6254753 81.8078729,80.7655374 82.0906163,79.9873051" id="Fill-549" fill="#008CB4"></path>
                                <path d="M110.091166,2.98721383 C110.374522,2.20905356 111.23444,1.80751591 112.012654,2.090852 C112.791447,2.37418809 113.192433,3.23462591 112.909077,4.01278617 C112.626301,4.79094644 111.764645,5.19248409 110.986431,4.909148 C110.208796,4.62581191 109.807231,3.76537409 110.091166,2.98721383" id="Fill-550" fill="#008CB4"></path>
                                <path d="M138.239748,50.9769984 C137.424242,50.8332695 136.878832,50.0549307 137.023154,49.2395006 C137.166896,48.423491 137.944728,47.8792914 138.760234,48.0230204 C139.57632,48.1661698 140.12115,48.9445085 139.976828,49.7599386 C139.833665,50.5759482 139.055254,51.1207274 138.239748,50.9769984" id="Fill-551" fill="#008CB4"></path>
                                <path d="M57.2399996,36.9771686 C56.4240306,36.832879 55.8792786,36.055222 56.0230004,35.2393197 C56.1667222,34.4239968 56.9450222,33.8792892 57.7604116,34.0229993 C58.5763806,34.1667094 59.1211326,34.9449458 58.9768312,35.7602687 C58.8331094,36.5755916 58.055389,37.1202992 57.2399996,36.9771686" id="Fill-552" fill="#008CB4"></path>
                                <path d="M89.0228319,82.2394823 C89.1671287,81.4240524 89.9448247,80.8792734 90.7601885,81.0230023 C91.5761318,81.1667312 92.1202872,81.9450698 91.9771494,82.7604997 C91.8334322,83.5765091 91.0557362,84.1207086 90.2403723,83.9769796 C89.424429,83.8332507 88.8796941,83.0554917 89.0228319,82.2394823" id="Fill-553" fill="#008CB4"></path>
                                <path d="M103.023129,1.23958809 C103.166831,0.423619335 103.944445,-0.121132535 104.759723,0.0231687583 C105.576739,0.166890528 106.120257,0.944610752 105.977135,1.76057951 C105.832853,2.57596875 105.055239,3.12072062 104.239961,2.97699885 C103.424683,2.83327708 102.878847,2.05497733 103.023129,1.23958809" id="Fill-554" fill="#008CB4"></path>
                                <path d="M31,42.4994131 C31,41.6713615 31.6719484,41 32.5,41 C33.3286385,41 34,41.6713615 34,42.4994131 C34,43.3280516 33.3286385,44 32.5,44 C31.6719484,44 31,43.3280516 31,42.4994131" id="Fill-618" fill="#008CB4"></path>
                                <path d="M23,42.4994131 C23,41.6713615 23.6719484,41 24.5,41 C25.3286385,41 26,41.6713615 26,42.4994131 C26,43.3280516 25.3286385,44 24.5,44 C23.6719484,44 23,43.3280516 23,42.4994131" id="Fill-618" fill="#008CB4"></path>
                                <path d="M39,42.4994131 C39,41.6713615 39.6707746,41 40.5,41 C41.3280516,41 42,41.6713615 42,42.4994131 C42,43.3280516 41.3280516,44 40.5,44 C39.6707746,44 39,43.3280516 39,42.4994131" id="Fill-619" fill="#008CB4"></path>
                                <path d="M47,42.4994131 C47,41.6713615 47.6718169,41 48.5002934,41 C49.3281831,41 50,41.6713615 50,42.4994131 C50,43.3280516 49.3281831,44 48.5002934,44 C47.6718169,44 47,43.3280516 47,42.4994131" id="Fill-620" fill="#008CB4"></path>
                                <path d="M0,42.000306 C0,46.9701493 4.02937576,51 9,51 C13.9712362,51 18,46.9701493 18,42.000306 C18,37.0298507 13.9712362,33 9,33 C4.02937576,33 0,37.0298507 0,42.000306" id="Fill-626" fill="#008CB4"></path>
                                <path d="M133,42 C133,61.3301283 117.329526,77 98,77 C78.6704737,77 63,61.3301283 63,42 C63,22.6698717 78.6704737,7 98,7 C117.329526,7 133,22.6698717 133,42" id="Fill-409" fill="#00AAE1"></path>
                                <path d="M14,41.9997167 C14,44.7610925 11.7612194,47 8.99943336,47 C6.23821396,47 4,44.7610925 4,41.9997167 C4,39.2383408 6.23821396,37 8.99943336,37 C11.7612194,37 14,39.2383408 14,41.9997167" id="Fill-627" fill="#FFFFFF"></path>
                                <g id="growth" transform="translate(81.000000, 25.000000)" fill-rule="nonzero" fill="#FFFFFF">
                                    <path d="M33.0606129,24.4028926 C32.4634194,23.8689648 31.6693548,23.6090692 30.8626774,23.6889952 L21.3673548,24.645933 C21.4019032,24.3441714 21.3832581,24.0320792 21.2916774,23.7232492 C20.9280968,22.496629 19.6229355,21.7876251 18.3863226,22.1415833 L17.5483871,22.3808177 L17.5483871,19.0777512 L20.4701935,17.1464767 C23.1079355,17.0518704 25.2258065,14.9003915 25.2258065,12.262288 L25.2258065,11.7185733 L24.6774194,11.7185733 C22.0583226,11.7185733 19.9157742,13.7531535 19.7572903,16.3107873 L17.5483871,17.7706612 L17.5483871,9.54371466 L16.4516129,9.54371466 L16.4516129,15.0526316 L14.2427097,13.5927577 C14.0842258,11.0340365 11.9416774,9 9.32258065,9 L8.77419355,9 L8.77419355,9.54371466 C8.77419355,12.1818182 10.8920645,14.3332971 13.5298065,14.4279034 L16.4516129,16.3591779 L16.4516129,22.6945411 L9.24470968,24.7568508 L4.93548387,24.7568508 L4.93548387,23.6694215 L0,23.6694215 L0,33.4562853 L4.93548387,33.4562853 L4.93548387,32.9897782 L12.5405161,33.9951066 L20.4,34 L32.2473548,29.1054806 C33.3117742,28.6650718 34,27.6423445 34,26.4983689 C34,25.7007395 33.6578065,24.9368204 33.0606129,24.4028926 Z M24,13 C23.7597737,14.5401235 22.5401235,15.7597737 21,16 C21.2402263,14.4593621 22.4598765,13.2397119 24,13 Z M10,10 C11.5401235,10.2402263 12.7597737,11.4598765 13,13 C11.4598765,12.7597737 10.2402263,11.5401235 10,10 Z M4,33 L1,33 L1,25 L4,25 L4,33 Z M31.9206275,28.0789609 L20.2627451,33 L12.7225098,33 L5,31.9571713 L5,25.7697211 L9.39215686,25.7697211 L18.7710588,23.0500238 C19.4331765,22.8559186 20.1276863,23.244129 20.3214902,23.9126517 C20.4960784,24.5161019 20.2160784,25.1495856 19.6538824,25.4182183 L13.0003137,28.6039904 L13.4697255,29.6101115 L20.1232941,26.4243394 C20.4763137,26.2552621 20.764,26.004427 20.9858039,25.7096541 L31.068,24.671831 C31.5665098,24.6189944 32.048,24.779729 32.4207843,25.1206645 C32.7946667,25.4615999 33,25.9298995 33,26.4387999 C33,27.1584908 32.5767059,27.8019856 31.9206275,28.0789609 Z" id="Shape"></path>
                                    <path d="M17,10 C14.2427778,10 12,7.75722222 12,5 C12,2.24277778 14.2427778,0 17,0 C19.7572222,0 22,2.24277778 22,5 C22,7.75722222 19.7572222,10 17,10 Z" id="Shape"></path>
                                    <g id="Group" transform="translate(1.000000, 1.000000)">
                                        <polygon id="Shape" points="30 5 30 6 31 6 31 7 32 7 32 6 33 6 33 5 32 5 32 4 31 4 31 5"></polygon>
                                        <polygon id="Shape" points="26.5 4 27.5 4 27.5 2.5 29 2.5 29 1.5 27.5 1.5 27.5 0 26.5 0 26.5 1.5 25 1.5 25 2.5 26.5 2.5"></polygon>
                                        <polygon id="Shape" points="28 10 28 9 29 9 29 8 28 8 28 7 27 7 27 8 26 8 26 9 27 9 27 10"></polygon>
                                        <polygon id="Shape" points="5 6 6 6 6 5 7 5 7 4 6 4 6 3 5 3 5 4 4 4 4 5 5 5"></polygon>
                                        <polygon id="Shape" points="1.5 10 2.5 10 2.5 8.5 4 8.5 4 7.5 2.5 7.5 2.5 6 1.5 6 1.5 7.5 0 7.5 0 8.5 1.5 8.5"></polygon>
                                    </g>
                                </g>
                            </g>
                            <g id="icon-vir1" transform="translate(315.000000, 0.000000)">
                                <path d="M195,83.5 C195,82.6711747 195.671884,82 196.49971,82 C197.328116,82 198,82.6711747 198,83.5 C198,84.3282457 197.328116,85 196.49971,85 C195.671884,85 195,84.3282457 195,83.5" id="Fill-558" fill="#FF5656"></path>
                                <path d="M195,1.5 C195,0.67175425 195.671884,0 196.49971,0 C197.328116,0 198,0.67175425 198,1.5 C198,2.32824575 197.328116,3 196.49971,3 C195.671884,3 195,2.32824575 195,1.5" id="Fill-559" fill="#FF5656"></path>
                                <path d="M155.49942,41 C156.328246,41 157,41.6717543 157,42.5005796 C157,43.3288253 156.328246,44 155.49942,44 C154.671175,44 154,43.3288253 154,42.5005796 C154,41.6717543 154.671175,41 155.49942,41" id="Fill-560" fill="#FF5656"></path>
                                <path d="M237.50029,41 C238.328116,41 239,41.6717543 239,42.5005796 C239,43.3288253 238.328116,44 237.50029,44 C236.671304,44 236,43.3288253 236,42.5005796 C236,41.6717543 236.671304,41 237.50029,41" id="Fill-561" fill="#FF5656"></path>
                                <path d="M202.02298,83.7605103 C201.879271,82.9450755 202.424555,82.1667322 203.239874,82.0230024 C204.055192,81.8792726 204.832845,82.4240549 204.977133,83.2394897 C205.120263,84.0555041 204.576718,84.8332678 203.759661,84.9769976 C202.944342,85.1207274 202.16669,84.5759451 202.02298,83.7605103" id="Fill-562" fill="#FF5656"></path>
                                <path d="M188.022832,2.76017987 C187.879694,1.94463801 188.424429,1.16677221 189.240372,1.02302353 C190.055736,0.879274862 190.833432,1.42354907 190.977149,2.23967057 C191.120287,3.05579206 190.576132,3.83307823 189.760188,3.9768269 C188.945404,4.12115521 188.167129,3.57630137 188.022832,2.76017987" id="Fill-563" fill="#FF5656"></path>
                                <path d="M156.24,48.0228524 C157.055389,47.879703 157.833109,48.4239024 157.976831,49.2399118 C158.121133,50.0553415 157.576381,50.8331004 156.760412,50.9768294 C155.945022,51.1211378 155.166722,50.5763589 155.023,49.7609291 C154.879279,48.9449198 155.424031,48.1671609 156.24,48.0228524" id="Fill-564" fill="#FF5656"></path>
                                <path d="M237.239748,34.0230023 C238.055254,33.8792734 238.833665,34.4240524 238.976828,35.2394823 C239.12115,36.0554917 238.57632,36.8326711 237.760234,36.9769796 C236.944728,37.1207086 236.166896,36.5765091 236.023154,35.7604997 C235.878832,34.9450698 236.424242,34.1667312 237.239748,34.0230023" id="Fill-565" fill="#FF5656"></path>
                                <path d="M209.091166,82.0130058 C208.807231,81.234206 209.208796,80.3742813 209.986431,80.0909234 C210.764645,79.8075655 211.626301,80.2085546 211.909077,80.9873543 C212.192433,81.7649951 211.791447,82.6260788 211.012654,82.9094367 C210.23444,83.1922152 209.374522,82.7906466 209.091166,82.0130058" id="Fill-566" fill="#FF5656"></path>
                                <path d="M181.090616,5.01261863 C180.807873,4.2343263 181.208812,3.37374245 181.986936,3.09093779 C182.765639,2.80755361 183.625457,3.20857989 183.90878,3.98687222 C184.192682,4.76516455 183.791743,5.6257484 183.013619,5.90913258 C182.234916,6.19251675 181.375098,5.79091096 181.090616,5.01261863" id="Fill-567" fill="#FF5656"></path>
                                <path d="M157.986684,55.0909299 C158.764914,54.8075518 159.626589,55.2085694 159.909371,55.9874246 C160.192154,56.7657002 159.791159,57.6262656 159.012928,57.9090642 C158.234698,58.1924423 157.374182,57.7914246 157.0914,57.013149 C156.806879,56.2342938 157.209033,55.3737285 157.986684,55.0909299" id="Fill-568" fill="#FF5656"></path>
                                <path d="M234.986913,27.0909378 C235.765055,26.8075536 236.624893,27.2085799 236.909382,27.9868722 C237.192132,28.7651646 236.791183,29.6257484 236.013041,29.9091326 C235.234899,30.1925168 234.374481,29.790911 234.091152,29.0126186 C233.807243,28.2343263 234.208771,27.374322 234.986913,27.0909378" id="Fill-569" fill="#FF5656"></path>
                                <path d="M216.201407,79.2503413 C215.786948,78.5328233 216.032725,77.6153507 216.749767,77.2009522 C217.467388,76.7871332 218.384413,77.0328745 218.798872,77.7503925 C219.21275,78.4679105 218.967553,79.3848035 218.249932,79.7986224 C217.53289,80.213021 216.614706,79.9672797 216.201407,79.2503413" id="Fill-570" fill="#FF5656"></path>
                                <path d="M175.20123,8.24980886 C174.786832,7.53289568 175.033153,6.61545544 175.750091,6.20107151 C176.46703,5.78726713 177.384502,6.03242014 177.798901,6.75049244 C178.21272,7.46740563 177.967558,8.38426631 177.25004,8.79865024 C176.532522,9.21303418 175.615049,8.9673016 175.20123,8.24980886" id="Fill-571" fill="#FF5656"></path>
                                <path d="M160.750122,62.2013762 C161.467548,61.7869805 162.384903,62.03272 162.798669,62.7496535 C163.213014,63.4671666 162.967305,64.3846329 162.249878,64.7990285 C161.532452,65.2128446 160.615677,64.9671051 160.201331,64.2501716 C159.786986,63.5326585 160.032695,62.6151923 160.750122,62.2013762" id="Fill-572" fill="#FF5656"></path>
                                <path d="M231.750398,21.2010964 C232.467341,20.7872834 233.38482,21.0324415 233.798642,21.7499491 C234.213043,22.4674566 233.9673,23.3849158 233.249777,23.7993083 C232.532254,24.2125417 231.614775,23.9673836 231.200954,23.249876 C230.787132,22.5323685 231.032875,21.6154888 231.750398,21.2010964" id="Fill-573" fill="#FF5656"></path>
                                <path d="M222.350334,75.4639965 C221.818827,74.8292544 221.901132,73.8832277 222.535811,73.3510878 C223.170489,72.8183681 224.116421,72.9012614 224.649087,73.5360035 C225.181753,74.170166 225.098289,75.1161926 224.46477,75.6489122 C223.829512,76.1816319 222.883,76.0987386 222.350334,75.4639965" id="Fill-574" fill="#FF5656"></path>
                                <path d="M169.35073,12.4640055 C168.818693,11.829274 168.900991,10.8832633 169.53619,10.3511322 C170.17023,9.8184215 171.116653,9.90131337 171.64927,10.5354652 C172.181307,11.1701967 172.099009,12.1167871 171.46381,12.6489181 C170.829191,13.1816289 169.883347,13.098737 169.35073,12.4640055" id="Fill-575" fill="#FF5656"></path>
                                <path d="M164.535961,68.350669 C165.170072,67.8185134 166.116603,67.9014091 166.6487,68.5355902 C167.181377,69.1703511 167.09907,70.1164056 166.464379,70.649141 C165.829687,71.1812966 164.883737,71.0989806 164.35106,70.4642198 C163.818383,69.8294589 163.901269,68.8834044 164.535961,68.350669" id="Fill-576" fill="#FF5656"></path>
                                <path d="M227.535572,15.3510199 C228.170312,14.8184032 229.116335,14.9012804 229.649053,15.5358999 C230.181771,16.1699399 230.098298,17.1163633 229.464718,17.6489801 C228.829978,18.1815968 227.883375,18.0987196 227.350657,17.4641001 C226.818519,16.8294805 226.901412,15.8830571 227.535572,15.3510199" id="Fill-577" fill="#FF5656"></path>
                                <path d="M227.535572,70.649141 C226.901412,70.1164056 226.818519,69.1703511 227.350657,68.5355902 C227.883375,67.9014091 228.829978,67.8185134 229.464718,68.350669 C230.098298,68.8834044 230.181771,69.8294589 229.649053,70.4642198 C229.116335,71.0989806 228.170312,71.1812966 227.535572,70.649141" id="Fill-578" fill="#FF5656"></path>
                                <path d="M164.535961,17.6489801 C163.901269,17.1163633 163.818383,16.1699399 164.35106,15.5358999 C164.883737,14.9012804 165.829687,14.8184032 166.464379,15.3510199 C167.09907,15.8830571 167.181377,16.8294805 166.6487,17.4641001 C166.116603,18.0987196 165.170072,18.1815968 164.535961,17.6489801" id="Fill-579" fill="#FF5656"></path>
                                <path d="M169.35073,73.5360035 C169.883347,72.9012614 170.829191,72.8183681 171.46381,73.3510878 C172.099009,73.8832277 172.181307,74.8292544 171.64927,75.4639965 C171.116653,76.0987386 170.17023,76.1816319 169.53619,75.6489122 C168.900991,75.1161926 168.818693,74.170166 169.35073,73.5360035" id="Fill-580" fill="#FF5656"></path>
                                <path d="M222.350334,10.5354652 C222.883,9.90131337 223.829512,9.8184215 224.46477,10.3511322 C225.098289,10.8832633 225.181753,11.829274 224.649087,12.4640055 C224.116421,13.098737 223.170489,13.1816289 222.535811,12.6489181 C221.901132,12.1167871 221.818827,11.1701967 222.350334,10.5354652" id="Fill-581" fill="#FF5656"></path>
                                <path d="M231.750398,64.7990285 C231.032875,64.3846329 230.787132,63.4671666 231.200954,62.7496535 C231.614775,62.03272 232.532254,61.7869805 233.249777,62.2013762 C233.9673,62.6151923 234.213043,63.5326585 233.798642,64.2501716 C233.38482,64.9671051 232.467341,65.2128446 231.750398,64.7990285" id="Fill-582" fill="#FF5656"></path>
                                <path d="M160.750122,23.7993083 C160.032695,23.3849158 159.786986,22.4674566 160.201331,21.7499491 C160.615677,21.0324415 161.532452,20.7872834 162.249878,21.2010964 C162.967305,21.6154888 163.213014,22.5323685 162.798669,23.249876 C162.384903,23.9673836 161.467548,24.2125417 160.750122,23.7993083" id="Fill-583" fill="#FF5656"></path>
                                <path d="M175.20123,77.7503925 C175.615049,77.0328745 176.532522,76.7871332 177.25004,77.2009522 C177.967558,77.6153507 178.21272,78.5328233 177.798901,79.2503413 C177.384502,79.9672797 176.46703,80.213021 175.750091,79.7986224 C175.033153,79.3848035 174.786832,78.4679105 175.20123,77.7503925" id="Fill-584" fill="#FF5656"></path>
                                <path d="M216.201407,6.75049244 C216.614706,6.03242014 217.53289,5.78726713 218.249932,6.20107151 C218.967553,6.61545544 219.21275,7.53289568 218.798872,8.24980886 C218.384413,8.9673016 217.467388,9.21303418 216.749767,8.79865024 C216.032725,8.38426631 215.786948,7.46740563 216.201407,6.75049244" id="Fill-585" fill="#FF5656"></path>
                                <path d="M234.986913,57.9090642 C234.208771,57.6262656 233.807243,56.7657002 234.091152,55.9874246 C234.374481,55.2085694 235.234899,54.8075518 236.013041,55.0909299 C236.791183,55.3737285 237.192132,56.2342938 236.909382,57.013149 C236.624893,57.7914246 235.765055,58.1924423 234.986913,57.9090642" id="Fill-586" fill="#FF5656"></path>
                                <path d="M157.986684,29.9091326 C157.209033,29.6257484 156.806879,28.7651646 157.0914,27.9868722 C157.374182,27.2085799 158.234698,26.8075536 159.012928,27.0909378 C159.791159,27.374322 160.192154,28.2343263 159.909371,29.0126186 C159.626589,29.790911 158.764914,30.1925168 157.986684,29.9091326" id="Fill-587" fill="#FF5656"></path>
                                <path d="M181.090616,80.9873543 C181.375098,80.2085546 182.234916,79.8075655 183.013619,80.0909234 C183.791743,80.3742813 184.192682,81.234206 183.90878,82.0130058 C183.625457,82.7906466 182.765639,83.1922152 181.986936,82.9094367 C181.208812,82.6260788 180.807873,81.7649951 181.090616,80.9873543" id="Fill-588" fill="#FF5656"></path>
                                <path d="M209.091166,3.98687222 C209.374522,3.20857989 210.23444,2.80755361 211.012654,3.09093779 C211.791447,3.37374245 212.192433,4.2343263 211.909077,5.01261863 C211.626301,5.79091096 210.764645,6.19251675 209.986431,5.90913258 C209.208796,5.6257484 208.807231,4.76516455 209.091166,3.98687222" id="Fill-589" fill="#FF5656"></path>
                                <path d="M237.239748,50.9768294 C236.424242,50.8331004 235.878832,50.0553415 236.023154,49.2399118 C236.166896,48.4239024 236.944728,47.879703 237.760234,48.0228524 C238.57632,48.1671609 239.12115,48.9449198 238.976828,49.7609291 C238.833665,50.5763589 238.055254,51.1211378 237.239748,50.9768294" id="Fill-590" fill="#FF5656"></path>
                                <path d="M156.24,36.9769796 C155.424031,36.8326711 154.879279,36.0554917 155.023,35.2394823 C155.166722,34.4240524 155.945022,33.8792734 156.760412,34.0230023 C157.576381,34.1667312 158.121133,34.9450698 157.976831,35.7604997 C157.833109,36.5765091 157.055389,37.1207086 156.24,36.9769796" id="Fill-591" fill="#FF5656"></path>
                                <path d="M188.022832,83.2394897 C188.167129,82.4240549 188.945404,81.8792726 189.760188,82.0230024 C190.576132,82.1667322 191.120287,82.9450755 190.977149,83.7605103 C190.833432,84.5759451 190.055736,85.1207274 189.240372,84.9769976 C188.424429,84.8332678 187.879694,84.0555041 188.022832,83.2394897" id="Fill-592" fill="#FF5656"></path>
                                <path d="M202.02298,2.23967057 C202.16669,1.42354907 202.944342,0.879274862 203.759661,1.02302353 C204.576718,1.16677221 205.120263,1.94463801 204.977133,2.76017987 C204.832845,3.57630137 204.055192,4.12115521 203.239874,3.9768269 C202.424555,3.83307823 201.879271,3.05579206 202.02298,2.23967057" id="Fill-593" fill="#FF5656"></path>
                                <path d="M56,42.5 C56,41.6713615 56.6714929,41 57.4997065,41 C58.3285071,41 59,41.6713615 59,42.5 C59,43.3286385 58.3285071,44 57.4997065,44 C56.6714929,44 56,43.3286385 56,42.5" id="Fill-594" fill="#FF5656"></path>
                                <path d="M64,42.5 C64,41.6713615 64.6719484,41 65.5005869,41 C66.3286385,41 67,41.6713615 67,42.5 C67,43.3286385 66.3286385,44 65.5005869,44 C64.6719484,44 64,43.3286385 64,42.5" id="Fill-595" fill="#FF5656"></path>
                                <path d="M73,42.5 C73,41.6713615 73.6714929,41 74.5002935,41 C75.3285071,41 76,41.6713615 76,42.5 C76,43.3286385 75.3285071,44 74.5002935,44 C73.6714929,44 73,43.3286385 73,42.5" id="Fill-596" fill="#FF5656"></path>
                                <path d="M81,42.5 C81,41.6713615 81.6713615,41 82.5,41 C83.3280516,41 84,41.6713615 84,42.5 C84,43.3286385 83.3280516,44 82.5,44 C81.6713615,44 81,43.3286385 81,42.5" id="Fill-597" fill="#FF5656"></path>
                                <path d="M89,42.5 C89,41.6713615 89.6713615,41 90.5,41 C91.3280516,41 92,41.6713615 92,42.5 C92,43.3286385 91.3280516,44 90.5,44 C89.6713615,44 89,43.3286385 89,42.5" id="Fill-598" fill="#FF5656"></path>
                                <path d="M14,42.5 C14,41.6713615 14.6714929,41 15.4997065,41 C16.3285071,41 17,41.6713615 17,42.5 C17,43.3286385 16.3285071,44 15.4997065,44 C14.6714929,44 14,43.3286385 14,42.5" id="Fill-594" fill="#FF5656"></path>
                                <path d="M22,42.5 C22,41.6713615 22.6719484,41 23.5005869,41 C24.3286385,41 25,41.6713615 25,42.5 C25,43.3286385 24.3286385,44 23.5005869,44 C22.6719484,44 22,43.3286385 22,42.5" id="Fill-595" fill="#FF5656"></path>
                                <path d="M31,42.5 C31,41.6713615 31.6714929,41 32.5002935,41 C33.3285071,41 34,41.6713615 34,42.5 C34,43.3286385 33.3285071,44 32.5002935,44 C31.6714929,44 31,43.3286385 31,42.5" id="Fill-596" fill="#FF5656"></path>
                                <path d="M39,42.5 C39,41.6713615 39.6713615,41 40.5,41 C41.3280516,41 42,41.6713615 42,42.5 C42,43.3286385 41.3280516,44 40.5,44 C39.6713615,44 39,43.3286385 39,42.5" id="Fill-597" fill="#FF5656"></path>
                                <path d="M47,42.5 C47,41.6713615 47.6713615,41 48.5,41 C49.3280516,41 50,41.6713615 50,42.5 C50,43.3286385 49.3280516,44 48.5,44 C47.6713615,44 47,43.3286385 47,42.5" id="Fill-598" fill="#FF5656"></path>
                                <path d="M97,42.5 C97,41.6713615 97.6718169,41 98.5002934,41 C99.3287698,41 100,41.6713615 100,42.5 C100,43.3286385 99.3287698,44 98.5002934,44 C97.6718169,44 97,43.3286385 97,42.5" id="Fill-599" fill="#FF5656"></path>
                                <path d="M106,42.5 C106,41.6713615 106.671362,41 107.5,41 C108.328638,41 109,41.6713615 109,42.5 C109,43.3286385 108.328638,44 107.5,44 C106.671362,44 106,43.3286385 106,42.5" id="Fill-600" fill="#FF5656"></path>
                                <path d="M114,42.5 C114,41.6713615 114.671362,41 115.5,41 C116.328638,41 117,41.6713615 117,42.5 C117,43.3286385 116.328638,44 115.5,44 C114.671362,44 114,43.3286385 114,42.5" id="Fill-601" fill="#FF5656"></path>
                                <path d="M122,42.5 C122,41.6713615 122.671362,41 123.5,41 C124.328052,41 125,41.6713615 125,42.5 C125,43.3286385 124.328052,44 123.5,44 C122.671362,44 122,43.3286385 122,42.5" id="Fill-602" fill="#FF5656"></path>
                                <path d="M130,42.5 C130,41.6713615 130.671948,41 131.5,41 C132.328638,41 133,41.6713615 133,42.5 C133,43.3286385 132.328638,44 131.5,44 C130.671948,44 130,43.3286385 130,42.5" id="Fill-603" fill="#FF5656"></path>
                                <path d="M138,42.5 C138,41.6713615 138.670906,41 139.499707,41 C140.32792,41 141,41.6713615 141,42.5 C141,43.3286385 140.32792,44 139.499707,44 C138.670906,44 138,43.3286385 138,42.5" id="Fill-604" fill="#FF5656"></path>
                                <path d="M146,42.5 C146,41.6713615 146.671817,41 147.500293,41 C148.328183,41 149,41.6713615 149,42.5 C149,43.3286385 148.328183,44 147.500293,44 C146.671817,44 146,43.3286385 146,42.5" id="Fill-605" fill="#FF5656"></path>
                                <path d="M232,43 C232,62.3301283 216.329526,78 197,78 C177.670474,78 162,62.3301283 162,43 C162,23.6698717 177.670474,8 197,8 C216.329526,8 232,23.6698717 232,43" id="Fill-408" fill="#FF5656"></path>
                                <path d="M0,43.000306 C0,47.9707612 4.02910179,52 8.99938805,52 C13.9702863,52 18,47.9707612 18,43.000306 C18,38.0292388 13.9702863,34 8.99938805,34 C4.02910179,34 0,38.0292388 0,43.000306" id="Fill-624" fill="#FF5656"></path>
                                <path d="M14,43.0005666 C14,45.761786 11.7612194,48 8.99943336,48 C6.23821396,48 4,45.761786 4,43.0005666 C4,40.2387806 6.23821396,38 8.99943336,38 C11.7612194,38 14,40.2387806 14,43.0005666" id="Fill-625" fill="#FFFFFF"></path>
                                <g id="icon" transform="translate(183.000000, 25.000000)" fill-rule="nonzero" fill="#FFFFFF">
                                    <path d="M26.6062777,11.5192767 C27.3776868,11.5192767 28,10.8969635 28,10.1255544 L28,8.86148072 C28,8.09007165 27.3776868,7.46775844 26.6062777,7.46775844 L25.9515524,7.46775844 C25.7830092,6.83248038 25.5301945,6.22961447 25.1995906,5.6591607 L25.6598431,5.19890822 C26.2043671,4.65438417 26.2043671,3.7727738 25.6598431,3.22824974 L24.7652678,2.33367451 C24.4994882,2.06789492 24.1494371,1.92528147 23.7799386,1.92528147 C23.4104401,1.92528147 23.0603889,2.06789492 22.7946093,2.33367451 L22.3343569,2.79392699 C21.7639031,2.46980553 21.1610372,2.21699079 20.5257591,2.0419652 L20.5257591,1.39372228 C20.5257591,0.622313204 19.9034459,0 19.1320368,0 L17.8679632,0 C17.0965541,0 16.4742409,0.622313204 16.4742409,1.39372228 L16.4742409,2.04844763 C15.8389628,2.21699079 15.2360969,2.46980553 14.6656431,2.80040942 L14.2053907,2.34015694 C13.9396111,2.07437735 13.5895599,1.9317639 13.2200614,1.9317639 C12.8505629,1.9317639 12.5005118,2.07437735 12.2347322,2.34015694 L11.3401569,3.23473217 C10.7956329,3.77925623 10.7956329,4.6608666 11.3401569,5.20539065 L11.8004094,5.66564313 C11.476288,6.2360969 11.2234732,6.83896281 11.0484476,7.47424087 L10.3937223,7.47424087 C9.6223132,7.47424087 9,8.09655408 9,8.86796315 L9,10.1320368 C9,10.9034459 9.6223132,11.5257591 10.3937223,11.5257591 L11.0484476,11.5257591 C11.2169908,12.1610372 11.4698055,12.7639031 11.8004094,13.3343569 L11.3401569,13.7946093 C10.7956329,14.3391334 10.7956329,15.2207438 11.3401569,15.7652678 L12.2347322,16.6598431 C12.5005118,16.9256227 12.8505629,17.0682361 13.2200614,17.0682361 C13.5895599,17.0682361 13.9396111,16.9256227 14.2053907,16.6598431 L14.6656431,16.1995906 C15.2360969,16.523712 15.8389628,16.7765268 16.4742409,16.9515524 L16.4742409,17.6062777 C16.4742409,18.3776868 17.0965541,19 17.8679632,19 L19.1320368,19 C19.9034459,19 20.5257591,18.3776868 20.5257591,17.6062777 L20.5257591,16.9515524 C21.1610372,16.7830092 21.7639031,16.5301945 22.3343569,16.1995906 L22.7946093,16.6598431 C23.0603889,16.9256227 23.4104401,17.0682361 23.7799386,17.0682361 C24.1494371,17.0682361 24.4994882,16.9256227 24.7652678,16.6598431 L25.6598431,15.7652678 C26.2043671,15.2207438 26.2043671,14.3391334 25.6598431,13.7946093 L25.1995906,13.3343569 C25.523712,12.7639031 25.7765268,12.1610372 25.9515524,11.5257591 L26.6062777,11.5257591 L26.6062777,11.5192767 Z M24.1492302,10.2285827 C23.9913146,11.0371101 23.6754836,11.7951046 23.2143703,12.4836163 C23.0501382,12.7299645 23.0817213,13.0647454 23.2901698,13.2731938 L24.0923806,14.0754047 C24.1365969,14.119621 24.1365969,14.1827872 24.0923806,14.2270036 L23.2206869,15.0923806 C23.1954205,15.1176471 23.1638373,15.1239637 23.1448875,15.1239637 C23.1259376,15.1239637 23.0943545,15.1176471 23.069088,15.0923806 L22.2668772,14.2901698 C22.0584287,14.0817213 21.7236478,14.0438216 21.4772996,14.2143703 C20.788788,14.6754836 20.0307935,14.984998 19.2222661,15.1492302 C18.9317015,15.2060797 18.7169364,15.4650612 18.7169364,15.7619424 L18.7169364,16.8926174 C18.7169364,16.949467 18.6664035,17 18.6095539,17 L17.3778129,17 C17.3209633,17 17.2704303,16.949467 17.2704303,16.8926174 L17.2704303,15.7619424 C17.2704303,15.4650612 17.0619818,15.2060797 16.7651007,15.1492302 C15.9565732,14.9913146 15.1985788,14.6754836 14.5100671,14.2143703 C14.4026846,14.1448875 14.2826688,14.1069878 14.162653,14.1069878 C13.9984208,14.1069878 13.8405053,14.170154 13.7204895,14.2901698 L12.930912,15.0923806 C12.9056455,15.1176471 12.8740624,15.1239637 12.8551125,15.1239637 C12.8361627,15.1239637 12.8045795,15.1176471 12.7793131,15.0923806 L11.9076194,14.2206869 C11.8634031,14.1764706 11.8634031,14.1133044 11.9076194,14.069088 L12.7098302,13.2668772 C12.9182787,13.0584287 12.9561784,12.7236478 12.7856297,12.4772996 C12.3245164,11.788788 12.015002,11.0307935 11.8507698,10.2222661 C11.7939203,9.93170154 11.5349388,9.71693644 11.2380576,9.71693644 L10.1073826,9.71693644 C10.050533,9.71693644 10,9.66640347 10,9.60955389 L10,8.37781287 C10,8.32096328 10.050533,8.27043032 10.1073826,8.27043032 L11.2380576,8.27043032 C11.5349388,8.27043032 11.7939203,8.06198184 11.8507698,7.76510067 C12.0086854,6.95657323 12.3245164,6.19857876 12.7856297,5.51006711 C12.9498618,5.26371891 12.9182787,4.92893802 12.7098302,4.72048954 L11.9076194,3.91827872 C11.8634031,3.87406238 11.8634031,3.81089617 11.9076194,3.76667983 L12.7793131,2.89498618 C12.8045795,2.8697197 12.8361627,2.86340308 12.8551125,2.86340308 C12.8740624,2.86340308 12.9056455,2.8697197 12.930912,2.89498618 L13.7331228,3.697197 C13.9415713,3.90564548 14.2763522,3.9435452 14.5227004,3.77299645 C15.211212,3.31188314 15.9692065,3.00236873 16.7777339,2.8381366 C17.0682985,2.78128701 17.2830636,2.52230557 17.2830636,2.2254244 L17.2830636,1.10738255 C17.2830636,1.05053296 17.3335965,1 17.3904461,1 L18.6221871,1 C18.6790367,1 18.7295697,1.05053296 18.7295697,1.10738255 L18.7295697,2.23805764 C18.7295697,2.53493881 18.9380182,2.79392025 19.2348993,2.85076984 C20.0434268,3.00868535 20.8014212,3.32451638 21.4899329,3.78562969 C21.7362811,3.94986182 22.071062,3.91827872 22.2795105,3.70983024 L23.0817213,2.90761942 C23.1069878,2.88235294 23.1385709,2.87603632 23.1575207,2.87603632 C23.1764706,2.87603632 23.2080537,2.88235294 23.2333202,2.90761942 L24.1050138,3.77931307 C24.1492302,3.82352941 24.1492302,3.88669562 24.1050138,3.93091196 L23.2901698,4.73312278 C23.0817213,4.94157126 23.0438216,5.27635215 23.2143703,5.52270036 C23.6754836,6.211212 23.984998,6.96920647 24.1492302,7.77773391 C24.2060797,8.06829846 24.4650612,8.28306356 24.7619424,8.28306356 L25.8926174,8.28306356 C25.949467,8.28306356 26,8.33359653 26,8.39044611 L26,9.62218713 C26,9.67903672 25.949467,9.72956968 25.8926174,9.72956968 L24.7619424,9.72956968 C24.4650612,9.72325306 24.2060166,9.93170154 24.1492302,10.2285827 Z" id="Shape"></path>
                                    <path d="M19,5 C16.7948718,5 15,6.79487179 15,9 C15,11.2051282 16.7948718,13 19,13 C21.2051282,13 23,11.2051282 23,9 C23,6.79487179 21.2051282,5 19,5 Z M18.5,11 C17.120892,11 16,9.87910798 16,8.5 C16,7.12089202 17.120892,6 18.5,6 C19.879108,6 21,7.12089202 21,8.5 C21,9.87910798 19.879108,11 18.5,11 Z" id="Shape"></path>
                                    <path d="M5.05600487,29.4521299 L7.20520263,29.1229477 L7.20520263,31.3482193 C7.20520263,31.7103197 7.48748532,32 7.84033868,32 L19.6320565,32 C19.9849099,32 20.2671926,31.7103197 20.2671926,31.3482193 L20.2671926,23.1713338 C21.5053871,21.9467761 22.4356369,20.4259544 22.9681247,18.7537089 C23.0771885,18.4113594 22.897554,18.0426753 22.5639472,17.9307534 C22.2303404,17.8188315 21.8710715,18.0031735 21.7620077,18.345523 C21.2615975,19.8926792 20.3762564,21.301579 19.202217,22.4076311 C19.0739067,22.5327204 18.9969205,22.7038951 18.9969205,22.8882371 L18.9969205,30.6898549 L8.47547474,30.6898549 L8.47547474,28.3658287 C8.47547474,28.174903 8.39207303,27.9971446 8.2573472,27.8720554 C8.11620586,27.7469662 7.9301559,27.694297 7.75052146,27.7206316 L4.92127904,28.1551521 C4.13217061,28.1288175 3.50345007,27.4704531 3.50345007,26.6540813 L3.50345007,22.8684862 C3.50345007,22.5063858 3.22116738,22.2167055 2.86831402,22.2167055 L1.91240218,22.2167055 C1.61728846,22.2167055 1.39274541,22.1311181 1.3093437,21.9928616 C1.225942,21.8546051 1.25801958,21.6110102 1.39916092,21.3410808 L3.42646388,17.3579764 C3.47137249,17.2658054 3.49703456,17.1604671 3.49703456,17.0551288 L3.49703456,15.3565487 C3.49703456,11.6499573 5.61415474,8.23962987 8.90531429,6.67272267 C9.21967456,6.52129886 9.54045034,6.38304235 9.86764164,6.2711204 C10.2012485,6.15261482 10.3744674,5.78393077 10.2654036,5.4415813 C10.1499243,5.09923182 9.79065546,4.92147344 9.45704864,5.03339539 C9.08494873,5.16506826 8.71926433,5.31649207 8.37282649,5.4876668 C4.64541187,7.2652506 2.23959348,11.1364331 2.23959348,15.3499651 L2.23959348,16.8905377 L0.276445675,20.728802 C-0.0764076883,21.4135009 -0.0892387197,22.1179508 0.22512155,22.6578096 C0.545897334,23.1976684 1.16178684,23.5070996 1.91240218,23.5070996 L2.23317796,23.5070996 L2.23317796,26.640914 C2.23317796,28.1880703 3.45854146,29.4455462 4.96618765,29.4455462 C4.99184971,29.4587135 5.02392729,29.4521299 5.05600487,29.4521299 Z" id="Shape"></path>
                                </g>
                            </g>
                            <g id="dots" transform="translate(137.000000, 179.000000)">
                                <path d="M11,5.49968833 C11,8.53720179 8.53734134,11 5.5,11 C2.46203536,11 0,8.53720179 0,5.49968833 C0,2.46217487 2.46203536,0 5.5,0 C8.53734134,0 11,2.46217487 11,5.49968833" id="Fill-628" fill="#FF5656"></path>
                                <path d="M45,5.49968833 C45,8.53720179 42.5373413,11 39.5,11 C36.4620354,11 34,8.53720179 34,5.49968833 C34,2.46217487 36.4620354,0 39.5,0 C42.5373413,0 45,2.46217487 45,5.49968833" id="Fill-629" fill="#00AAE1"></path>
                                <path d="M79,5.49968833 C79,8.53720179 76.5378251,11 73.5003117,11 C70.4627982,11 68,8.53720179 68,5.49968833 C68,2.46217487 70.4627982,0 73.5003117,0 C76.5378251,0 79,2.46217487 79,5.49968833" id="Fill-630" fill="#00D7E1"></path>
                                <path d="M113,5.49968833 C113,8.53720179 110.537965,11 107.5,11 C104.462659,11 102,8.53720179 102,5.49968833 C102,2.46217487 104.462659,0 107.5,0 C110.537965,0 113,2.46217487 113,5.49968833" id="Fill-631" fill="#00D2AA"></path>
                                <polygon id="Fill-723" fill="#6D6E71" points="128 144 129 144 129 142 128 142"></polygon>
                            </g>
                        </g>
                    </g>
                </g>
            </g>
        </g>
    </g>
</svg>