<?xml version="1.0" encoding="UTF-8"?>
<svg width="85px" height="85px" viewBox="0 0 85 85" version="1.1" xmlns="http://www.w3.org/2000/svg" xmlns:xlink="http://www.w3.org/1999/xlink">
    <!-- Generator: Sketch 47 (45396) - http://www.bohemiancoding.com/sketch -->
    <title>icon-vir3</title>
    <desc>Created with Sketch.</desc>
    <defs></defs>
    <g id="mobile" stroke="none" stroke-width="1" fill="none" fill-rule="evenodd">
        <g id="Author-page-(-320px)-" transform="translate(-118.000000, -5690.000000)">
            <g id="body" transform="translate(0.000000, 650.000000)">
                <g id="about-section" transform="translate(15.000000, 60.000000)">
                    <g id="text" transform="translate(0.000000, 244.000000)">
                        <g id="P2" transform="translate(0.000000, 2589.000000)">
                            <g id="wrao" transform="translate(0.000000, 1236.000000)">
                                <g id="icons-svg">
                                    <g id="icon-vir3" transform="translate(103.000000, 911.000000)">
                                        <path d="M41,83.5 C41,82.6711747 41.6718841,82 42.4997101,82 C43.3281159,82 44,82.6711747 44,83.5 C44,84.3282457 43.3281159,85 42.4997101,85 C41.6718841,85 41,84.3282457 41,83.5" id="Fill-483" fill="#00AAB4"></path>
                                        <path d="M41,1.5 C41,0.67175425 41.6718841,0 42.4997101,0 C43.3281159,0 44,0.67175425 44,1.5 C44,2.32882535 43.3281159,3 42.4997101,3 C41.6718841,3 41,2.32882535 41,1.5" id="Fill-484" fill="#00AAB4"></path>
                                        <path d="M1.4994204,41 C2.32824575,41 3,41.6708543 3,42.4994202 C3,43.3285659 2.32824575,44 1.4994204,44 C0.671174652,44 0,43.3285659 0,42.4994202 C0,41.6708543 0.671174652,41 1.4994204,41" id="Fill-485" fill="#00AAB4"></path>
                                        <path d="M83.5002899,41 C84.3281159,41 85,41.6708543 85,42.4994202 C85,43.3285659 84.3281159,44 83.5002899,44 C82.6713043,44 82,43.3285659 82,42.4994202 C82,41.6708543 82.6713043,41 83.5002899,41" id="Fill-486" fill="#00AAB4"></path>
                                        <path d="M48.0231286,82.7604297 C47.878847,81.9450403 48.4246833,81.1673198 49.2399612,81.0230185 C50.055239,80.8792967 50.832853,81.4234692 50.9771346,82.2400177 C51.1202573,83.0554072 50.5767387,83.8331276 49.7597225,83.9768494 C48.9444447,84.1211507 48.1668307,83.5758192 48.0231286,82.7604297" id="Fill-487" fill="#00AAB4"></path>
                                        <path d="M34.0228319,2.76051026 C33.8796941,1.94507547 34.424429,1.16615268 35.2403723,1.02300244 C36.0557362,0.879272638 36.8334322,1.42405494 36.9771494,2.23948974 C37.1202872,3.05550409 36.5761318,3.83326776 35.7601885,3.97699756 C34.9448247,4.12072736 34.1671287,3.57594506 34.0228319,2.76051026" id="Fill-488" fill="#00AAB4"></path>
                                        <path d="M2.23999958,48.0230153 C3.05538902,47.8793132 3.83310943,48.4234111 3.97683124,49.2398477 C4.12113256,50.0557048 3.57638056,50.8333187 2.7604116,50.9770208 C1.94502217,51.1207229 1.16672224,50.5754661 1.02300043,49.7601884 C0.879278625,48.9449107 1.42403063,48.1672969 2.23999958,48.0230153" id="Fill-489" fill="#00AAB4"></path>
                                        <path d="M83.2397477,34.0229986 C84.0552538,33.8792884 84.8336651,34.4239961 84.9768279,35.2398987 C85.1211499,36.0558013 84.5763199,36.8334584 83.7602342,36.9771685 C82.944728,37.1202992 82.1668963,36.5755915 82.0231539,35.7602684 C81.8788319,34.9443658 82.4242415,34.1667087 83.2397477,34.0229986" id="Fill-490" fill="#00AAB4"></path>
                                        <path d="M55.0911662,82.013569 C54.8072311,81.235355 55.2087965,80.3736989 55.986431,80.0909227 C56.764645,79.807567 57.6263011,80.2085529 57.9090773,80.9873464 C58.192433,81.7655604 57.7914471,82.6254781 57.0126536,82.9088338 C56.2344396,83.1927689 55.3745219,82.7912035 55.0911662,82.013569" id="Fill-491" fill="#00AAB4"></path>
                                        <path d="M27.0906163,5.01304083 C26.8078729,4.23489885 27.2088123,3.37448125 27.986936,3.09115182 C28.7656391,2.80724298 29.625457,3.20877119 29.9087798,3.98691317 C30.192682,4.76505515 29.7917426,5.62489335 29.0136189,5.90938159 C28.2349158,6.19213162 27.3750978,5.79118281 27.0906163,5.01304083" id="Fill-492" fill="#00AAB4"></path>
                                        <path d="M3.98668382,55.0908578 C4.76491445,54.8075223 5.62658903,55.2090591 5.90937127,55.9866384 C6.19215351,56.7647971 5.79115902,57.6258127 5.01292838,57.9091482 C4.23469775,58.1924837 3.37418212,57.7909469 3.09139988,57.0127881 C2.80687922,56.2346294 3.20903265,55.3747727 3.98668382,55.0908578" id="Fill-493" fill="#00AAB4"></path>
                                        <path d="M80.9870993,27.0906338 C81.7651694,26.8078358 82.624928,27.2088526 82.90939,27.9871266 C83.1921138,28.7654006 82.7912021,29.6259642 82.0131321,29.9087622 C81.2350621,30.1927192 80.3747241,29.7917024 80.0908415,29.0134284 C79.8075382,28.2351544 80.2090293,27.3740113 80.9870993,27.0906338" id="Fill-494" fill="#00AAB4"></path>
                                        <path d="M62.2014066,79.2494478 C61.7869483,78.5326028 62.032725,77.6152499 62.7497668,77.2009053 C63.4673883,76.7871403 64.3844134,77.0328495 64.7988717,77.7508535 C65.2127503,78.4676985 64.9675533,79.384472 64.2499319,79.7988165 C63.5328901,80.213161 62.6147056,79.9668723 62.2014066,79.2494478" id="Fill-495" fill="#00AAB4"></path>
                                        <path d="M21.2012304,8.24993187 C20.7868319,7.53289006 21.0331527,6.61470556 21.7500911,6.2014066 C22.4670296,5.78694832 23.3845022,6.03272498 23.7989007,6.74976679 C24.2127197,7.46738826 23.967558,8.38441343 23.25004,8.79887172 C22.532522,9.21275033 21.6150494,8.96755334 21.2012304,8.24993187" id="Fill-496" fill="#00AAB4"></path>
                                        <path d="M6.75012156,62.2008343 C7.46754776,61.786998 8.38490291,62.0333291 8.79866891,62.7502978 C9.21301442,63.467846 8.96730464,64.3847776 8.24987844,64.798614 C7.53245224,65.2130299 6.61567659,64.9672784 6.20133109,64.2503097 C5.78698558,63.5327615 6.03269536,62.6152503 6.75012156,62.2008343" id="Fill-497" fill="#00AAB4"></path>
                                        <path d="M77.7503977,21.2009419 C78.4673411,20.7871442 79.3848199,21.0328728 79.7986418,21.7503539 C80.2130432,22.4672555 79.9673002,23.3846809 79.2497773,23.7990581 C78.5322543,24.2128558 77.6147754,23.9671272 77.2009536,23.2496461 C76.7871318,22.5321649 77.0328747,21.6147395 77.7503977,21.2009419" id="Fill-498" fill="#00AAB4"></path>
                                        <path d="M68.3503341,74.4637177 C67.8188272,73.8290474 67.9011325,72.8837074 68.5358109,72.351048 C69.1704893,71.8183886 70.116421,71.9012725 70.6490871,72.5359429 C71.1817533,73.1700336 71.0982888,74.1165328 70.4647696,74.6491922 C69.8295116,75.1818516 68.8830003,75.0983881 68.3503341,74.4637177" id="Fill-499" fill="#00AAB4"></path>
                                        <path d="M15.3507305,12.4645438 C14.8186935,11.829823 14.9009911,10.8832484 15.53619,10.3511263 C16.1702298,9.81842455 17.1166529,9.90131503 17.6492695,10.5354562 C18.1813065,11.170177 18.0990089,12.1161719 17.46381,12.6488737 C16.8291907,13.1815755 15.8833471,13.098685 15.3507305,12.4645438" id="Fill-500" fill="#00AAB4"></path>
                                        <path d="M10.5359605,67.3510094 C11.1700722,66.8183323 12.1166026,66.9012189 12.6487,67.5364899 C13.1813769,68.1706017 13.0990699,69.1171323 12.4643787,69.6492297 C11.8296874,70.1813271 10.8837366,70.0990201 10.3510596,69.4637491 C9.81838265,68.8296374 9.90126927,67.8836864 10.5359605,67.3510094" id="Fill-501" fill="#00AAB4"></path>
                                        <path d="M73.5355725,15.3510596 C74.1703123,14.8183827 75.1163355,14.9012693 75.6490532,15.5359605 C76.1817709,16.1706518 76.0982983,17.1171822 75.4647178,17.6487 C74.829978,18.1813769 73.8833751,18.0990699 73.3506574,17.4643787 C72.8185194,16.8296874 72.9014123,15.8831569 73.5355725,15.3510596" id="Fill-502" fill="#00AAB4"></path>
                                        <path d="M73.5355725,69.6492297 C72.9014123,69.1171323 72.8185194,68.1706017 73.3506574,67.5364899 C73.8833751,66.9012189 74.829978,66.8183323 75.4647178,67.3510094 C76.0982983,67.8836864 76.1817709,68.8296374 75.6490532,69.4637491 C75.1163355,70.0990201 74.1703123,70.1813271 73.5355725,69.6492297" id="Fill-503" fill="#00AAB4"></path>
                                        <path d="M10.5359605,17.6487 C9.90126927,17.1171822 9.81838265,16.1706518 10.3510596,15.5359605 C10.8837366,14.9012693 11.8296874,14.8183827 12.4643787,15.3510596 C13.0990699,15.8831569 13.1813769,16.8296874 12.6487,17.4643787 C12.1166026,18.0990699 11.1700722,18.1813769 10.5359605,17.6487" id="Fill-504" fill="#00AAB4"></path>
                                        <path d="M15.3507305,72.5359429 C15.8833471,71.9012725 16.8291907,71.8183886 17.46381,72.351048 C18.0990089,72.8837074 18.1813065,73.8290474 17.6492695,74.4637177 C17.1166529,75.0983881 16.1702298,75.1818516 15.53619,74.6491922 C14.9009911,74.1165328 14.8186935,73.1700336 15.3507305,72.5359429" id="Fill-505" fill="#00AAB4"></path>
                                        <path d="M68.3503341,10.5354562 C68.8830003,9.90131503 69.8295116,9.81842455 70.4647696,10.3511263 C71.0982888,10.8832484 71.1817533,11.829823 70.6490871,12.4645438 C70.116421,13.098685 69.1704893,13.1815755 68.5358109,12.6488737 C67.9011325,12.1161719 67.8188272,11.170177 68.3503341,10.5354562" id="Fill-506" fill="#00AAB4"></path>
                                        <path d="M77.7503977,64.798614 C77.0328747,64.3847776 76.7871318,63.467846 77.2009536,62.7502978 C77.6147754,62.0333291 78.5322543,61.786998 79.2497773,62.2008343 C79.9673002,62.6152503 80.2130432,63.5327615 79.7986418,64.2503097 C79.3848199,64.9672784 78.4673411,65.2130299 77.7503977,64.798614" id="Fill-507" fill="#00AAB4"></path>
                                        <path d="M6.75012156,23.7990581 C6.03269536,23.3846809 5.78698558,22.4672555 6.20133109,21.7503539 C6.61567659,21.0328728 7.53245224,20.7871442 8.24987844,21.2009419 C8.96730464,21.6147395 9.21301442,22.5321649 8.79866891,23.2496461 C8.38490291,23.9671272 7.46754776,24.2128558 6.75012156,23.7990581" id="Fill-508" fill="#00AAB4"></path>
                                        <path d="M21.2012304,77.7508535 C21.6150494,77.0328495 22.532522,76.7871403 23.25004,77.2009053 C23.967558,77.6152499 24.2127197,78.5326028 23.7989007,79.2494478 C23.3845022,79.9668723 22.4670296,80.213161 21.7500911,79.7988165 C21.0331527,79.384472 20.7868319,78.4676985 21.2012304,77.7508535" id="Fill-509" fill="#00AAB4"></path>
                                        <path d="M62.2014066,6.74976679 C62.6147056,6.03272498 63.5328901,5.78694832 64.2499319,6.2014066 C64.9675533,6.61470556 65.2127503,7.53289006 64.7988717,8.24993187 C64.3844134,8.96755334 63.4673883,9.21275033 62.7497668,8.79887172 C62.032725,8.38441343 61.7869483,7.46738826 62.2014066,6.74976679" id="Fill-510" fill="#00AAB4"></path>
                                        <path d="M80.9870993,57.9091482 C80.2090293,57.6258127 79.8075382,56.7647971 80.0908415,55.9866384 C80.3747241,55.2090591 81.2350621,54.8075223 82.0131321,55.0908578 C82.7912021,55.3747727 83.1921138,56.2346294 82.90939,57.0127881 C82.624928,57.7909469 81.7651694,58.1924837 80.9870993,57.9091482" id="Fill-511" fill="#00AAB4"></path>
                                        <path d="M3.98668382,29.9087622 C3.20903265,29.6259642 2.80687922,28.7654006 3.09139988,27.9871266 C3.37418212,27.2088526 4.23469775,26.8078358 5.01292838,27.0906338 C5.79115902,27.3740113 6.19215351,28.2351544 5.90937127,29.0134284 C5.62658903,29.7917024 4.76491445,30.1927192 3.98668382,29.9087622" id="Fill-512" fill="#00AAB4"></path>
                                        <path d="M27.0906163,80.9873464 C27.3750978,80.2085529 28.2349158,79.807567 29.0136189,80.0909227 C29.7917426,80.3736989 30.192682,81.235355 29.9087798,82.013569 C29.625457,82.7912035 28.7656391,83.1927689 27.986936,82.9088338 C27.2088123,82.6254781 26.8078729,81.7655604 27.0906163,80.9873464" id="Fill-513" fill="#00AAB4"></path>
                                        <path d="M55.0911662,3.98691317 C55.3745219,3.20877119 56.2344396,2.80724298 57.0126536,3.09115182 C57.7914471,3.37448125 58.192433,4.23489885 57.9090773,5.01304083 C57.6263011,5.79118281 56.764645,6.19213162 55.986431,5.90938159 C55.2087965,5.62489335 54.8072311,4.76505515 55.0911662,3.98691317" id="Fill-514" fill="#00AAB4"></path>
                                        <path d="M83.2397477,50.9770208 C82.4242415,50.8333187 81.8788319,50.0557048 82.0231539,49.2398477 C82.1668963,48.4234111 82.944728,47.8793132 83.7602342,48.0230153 C84.5763199,48.1672969 85.1211499,48.9449107 84.9768279,49.7601884 C84.8336651,50.5754661 84.0552538,51.1207229 83.2397477,50.9770208" id="Fill-515" fill="#00AAB4"></path>
                                        <path d="M2.23999958,36.9771685 C1.42403063,36.8334584 0.879278625,36.0558013 1.02300043,35.2398987 C1.16672224,34.4239961 1.94502217,33.8792884 2.7604116,34.0229986 C3.57638056,34.1667087 4.12113256,34.9443658 3.97683124,35.7602684 C3.83310943,36.5755915 3.05538902,37.1202992 2.23999958,36.9771685" id="Fill-516" fill="#00AAB4"></path>
                                        <path d="M34.0228319,82.2400177 C34.1671287,81.4234692 34.9448247,80.8792967 35.7601885,81.0230185 C36.5761318,81.1673198 37.1202872,81.9450403 36.9771494,82.7604297 C36.8334322,83.5758192 36.0557362,84.1211507 35.2403723,83.9768494 C34.424429,83.8331276 33.8796941,83.0554072 34.0228319,82.2400177" id="Fill-517" fill="#00AAB4"></path>
                                        <path d="M48.0231286,2.23948974 C48.1668307,1.42405494 48.9444447,0.879272638 49.7597225,1.02300244 C50.5767387,1.16615268 51.1202573,1.94507547 50.9771346,2.76051026 C50.832853,3.57594506 50.055239,4.12072736 49.2399612,3.97699756 C48.4246833,3.83326776 47.878847,3.05550409 48.0231286,2.23948974" id="Fill-518" fill="#00AAB4"></path>
                                        <path d="M78,42.999398 C78,62.3301283 62.3295263,78 43,78 C23.6704737,78 8,62.3301283 8,42.999398 C8,23.6704737 23.6704737,8 43,8 C62.3295263,8 78,23.6704737 78,42.999398" id="Fill-410" fill="#00D7E1"></path>
                                        <g id="user" transform="translate(27.000000, 27.000000)" fill-rule="nonzero" fill="#FFFFFF">
                                            <path d="M23.6332623,16.9392523 L26.6588486,16.9392523 C27.0170576,18.1378505 28.0469083,19 29.2622601,19 C30.771855,19 32,17.6542056 32,16 C32,14.3457944 30.771855,13 29.2622601,13 C27.8933902,13 26.7547974,14.114486 26.5565032,15.5584112 L23.6332623,15.5584112 C23.2814499,15.5584112 23,15.8668224 23,16.2523364 C23,16.6308411 23.2878465,16.9392523 23.6332623,16.9392523 Z M29.5,14 C30.3282609,14 31,14.6717391 31,15.5 C31,16.3282609 30.3282609,17 29.5,17 C28.6717391,17 28,16.3282609 28,15.5 C28,14.6717391 28.6717391,14 29.5,14 Z" id="Shape"></path>
                                            <path d="M21.1986737,10.8189117 C21.3317005,10.9375558 21.5137373,11 21.6887727,11 C21.8638081,11 22.0458448,10.9375558 22.1788717,10.8189117 L24.3353075,8.8956289 C24.8254065,9.18911686 25.3995225,9.34522748 26.0016442,9.34522748 C26.7998054,9.34522748 27.5559582,9.06422837 28.1230728,8.5646744 C29.2923091,7.52185549 29.2923091,5.82337199 28.1230728,4.78055308 C27.5559582,4.27475468 26.7998054,4 26.0016442,4 C25.2034829,4 24.4473301,4.28099911 23.8802155,4.78055308 C22.9070189,5.6485281 22.7459863,6.97234612 23.3971179,7.99018733 L21.2056751,9.94469224 C20.9326199,10.1819804 20.9326199,10.5753791 21.1986737,10.8189117 Z M24.4392625,5.43600868 C24.7255965,5.14967462 25.0965293,5 25.5,5 C25.9034707,5 26.2744035,5.15618221 26.5607375,5.43600868 C27.1464208,6.02169197 27.1464208,6.97180043 26.5607375,7.55748373 C26.2744035,7.84381779 25.9034707,8 25.5,8 C25.0965293,8 24.7255965,7.84381779 24.4392625,7.55748373 C23.8535792,6.97180043 23.8535792,6.02169197 24.4392625,5.43600868 Z" id="Shape"></path>
                                            <path d="M15.0817757,5.33617021 L15.0817757,8.36808511 C15.0817757,8.71914894 15.3901869,9 15.7757009,9 C16.161215,9 16.4696262,8.71914894 16.4696262,8.36808511 L16.4696262,5.43191489 C17.8995327,5.22765957 19,4.09787234 19,2.73191489 C19,1.22553191 17.6542056,0 16,0 C14.3457944,0 13,1.22553191 13,2.73191489 C13,3.95106383 13.8761682,4.9787234 15.0817757,5.33617021 Z M15.5,1 C16.3282609,1 17,1.67173913 17,2.5 C17,3.32826087 16.3282609,4 15.5,4 C14.6717391,4 14,3.32826087 14,2.5 C14,1.67173913 14.6717391,1 15.5,1 Z" id="Shape"></path>
                                            <path d="M2.81580696,19 C4.0592245,19 5.11843203,18.1318553 5.49343097,16.9416569 L8.34868605,16.9416569 C8.71052713,16.9416569 9,16.6336056 9,16.2485414 C9,15.8634772 8.71052713,15.5554259 8.34868605,15.5554259 L5.59869383,15.5554259 C5.39474704,14.1131855 4.22369772,13 2.81580696,13 C1.26317977,13 2.5451036e-05,14.344224 2.5451036e-05,15.9964994 C-0.00655347773,17.6487748 1.26317977,19 2.81580696,19 Z M2.50002332,14 C3.32827131,14 4,14.6717391 4,15.5 C4,16.3282609 3.32827131,17 2.50002332,17 C1.67177533,17 1.00004664,16.3282609 1.00004664,15.5 C0.993525003,14.6717391 1.67177533,14 2.50002332,14 Z" id="Shape"></path>
                                            <path d="M7.04567627,9.2622807 C7.59201774,9.2622807 8.11707317,9.13333333 8.57827051,8.9 L10.7991131,10.8219298 C10.9339246,10.9385965 11.1184035,11 11.2957871,11 C11.4731707,11 11.6576497,10.9385965 11.7924612,10.8219298 C12.0691796,10.5824561 12.0691796,10.2017544 11.7924612,9.9622807 L9.59290466,8.05877193 C10.3521064,7.03947368 10.2243902,5.66403509 9.18847007,4.76754386 C8.61374723,4.27017544 7.84745011,4 7.03858093,4 C6.22971175,4 5.46341463,4.27631579 4.8886918,4.76754386 C3.7037694,5.79298246 3.7037694,7.46315789 4.8886918,8.48859649 C5.47050998,8.98596491 6.2368071,9.2622807 7.04567627,9.2622807 Z M5.43926247,5.43600868 C5.72559653,5.14967462 6.09652928,5 6.5,5 C6.90347072,5 7.27440347,5.15618221 7.56073753,5.43600868 C8.14642082,6.02169197 8.14642082,6.97180043 7.56073753,7.55748373 C7.27440347,7.84381779 6.90347072,8 6.5,8 C6.09652928,8 5.72559653,7.84381779 5.43926247,7.55748373 C4.85357918,6.97180043 4.85357918,6.02169197 5.43926247,5.43600868 Z" id="Shape"></path>
                                            <path d="M12.5921099,20.0622951 L12.5921099,22.8819672 C11.7932371,23.3016393 9.74533286,24.4557377 7.83691441,26.0754098 C7.30433251,26.5278689 7,27.1967213 7,27.9114754 L7,30.3508197 C7,30.7114754 7.27897147,31 7.6276858,31 C7.97640014,31 8.25537161,30.7114754 8.25537161,30.3508197 L8.25537161,27.9114754 C8.25537161,27.5901639 8.39485734,27.2819672 8.63578725,27.0786885 C10.721733,25.3081967 12.9788658,24.1278689 13.4100035,23.9114754 C13.6826347,23.7737705 13.8474815,23.4983607 13.8474815,23.1836066 L13.8474815,19.7540984 C13.8474815,19.5377049 13.7396971,19.3344262 13.56851,19.2163934 C13.3085594,19.0393443 13.1563931,18.7377049 13.1563931,18.4229508 L13.1563931,14.8622951 C13.1563931,13.452459 14.2659387,12.304918 15.6290948,12.304918 L16.3709052,12.304918 C17.7340613,12.304918 18.8436069,13.452459 18.8436069,14.8622951 L18.8436069,18.4229508 C18.8436069,18.7442623 18.6914406,19.0393443 18.43149,19.2163934 C18.2539627,19.3344262 18.1525185,19.5377049 18.1525185,19.7540984 L18.1525185,23.1836066 C18.1525185,23.4918033 18.3237055,23.7737705 18.5899965,23.9114754 C19.0211342,24.1278689 21.278267,25.3081967 23.3642128,27.0786885 C23.6051427,27.2819672 23.7446284,27.5836066 23.7446284,27.9114754 L23.7446284,30.3508197 C23.7446284,30.7114754 24.0235999,31 24.3723142,31 C24.7210285,31 25,30.7114754 25,30.3508197 L25,27.9114754 C25,27.1967213 24.6956675,26.5278689 24.1630856,26.0754098 C22.2546671,24.4491803 20.2067629,23.3016393 19.4078901,22.8819672 L19.4078901,20.0622951 C19.8453681,19.642623 20.0989785,19.0459016 20.0989785,18.4163934 L20.0989785,14.8557377 C20.0989785,12.7311475 18.4251497,11 16.3709052,11 L15.6290948,11 C13.5748503,11 11.9010215,12.7311475 11.9010215,14.8557377 L11.9010215,18.4163934 C11.9010215,19.0459016 12.1546319,19.642623 12.5921099,20.0622951 Z" id="Shape"></path>
                                        </g>
                                    </g>
                                </g>
                            </g>
                        </g>
                    </g>
                </g>
            </g>
        </g>
    </g>
</svg>