<?xml version="1.0" encoding="UTF-8"?>
<svg width="85px" height="85px" viewBox="0 0 85 85" version="1.1" xmlns="http://www.w3.org/2000/svg" xmlns:xlink="http://www.w3.org/1999/xlink">
    <!-- Generator: Sketch 47 (45396) - http://www.bohemiancoding.com/sketch -->
    <title>icon-vir2</title>
    <desc>Created with Sketch.</desc>
    <defs></defs>
    <g id="mobile" stroke="none" stroke-width="1" fill="none" fill-rule="evenodd">
        <g id="Author-page-(-320px)-" transform="translate(-118.000000, -5451.000000)">
            <g id="body" transform="translate(0.000000, 650.000000)">
                <g id="about-section" transform="translate(15.000000, 60.000000)">
                    <g id="text" transform="translate(0.000000, 244.000000)">
                        <g id="P2" transform="translate(0.000000, 2589.000000)">
                            <g id="wrao" transform="translate(0.000000, 1236.000000)">
                                <g id="icons-svg">
                                    <g id="icon-vir2" transform="translate(103.000000, 672.000000)">
                                        <path d="M41,83.5 C41,82.6711747 41.6718841,82 42.4997101,82 C43.3281159,82 44,82.6711747 44,83.5 C44,84.3282457 43.3281159,85 42.4997101,85 C41.6718841,85 41,84.3282457 41,83.5" id="Fill-519" fill="#008CB4"></path>
                                        <path d="M41,1.49971014 C41,0.671304348 41.6718841,0 42.4997101,0 C43.3281159,0 44,0.671304348 44,1.49971014 C44,2.32811594 43.3281159,3 42.4997101,3 C41.6718841,3 41,2.32811594 41,1.49971014" id="Fill-520" fill="#008CB4"></path>
                                        <path d="M1.4994204,41 C2.32824575,41 3,41.6713043 3,42.4997101 C3,43.3286957 2.32824575,44 1.4994204,44 C0.671174652,44 0,43.3286957 0,42.4997101 C0,41.6713043 0.671174652,41 1.4994204,41" id="Fill-521" fill="#008CB4"></path>
                                        <path d="M83.5002899,41 C84.3281159,41 85,41.6713043 85,42.4997101 C85,43.3286957 84.3281159,44 83.5002899,44 C82.6713043,44 82,43.3286957 82,42.4997101 C82,41.6713043 82.6713043,41 83.5002899,41" id="Fill-522" fill="#008CB4"></path>
                                        <path d="M48.0231286,82.7604997 C47.878847,81.9450698 48.4246833,81.1667312 49.2399612,81.0230023 C50.055239,80.8792734 50.832853,81.4240524 50.9771346,82.2394823 C51.1202573,83.0554917 50.5767387,83.8332507 49.7597225,83.9769796 C48.9444447,84.1207086 48.1668307,83.5765091 48.0231286,82.7604997" id="Fill-523" fill="#008CB4"></path>
                                        <path d="M34.0228319,1.76057951 C33.8796941,0.944610752 34.424429,0.166890528 35.2403723,0.0231687583 C36.0557362,-0.121132535 36.8334322,0.423619335 36.9771494,1.23958809 C37.1202872,2.05497733 36.5761318,2.83327708 35.7601885,2.97699885 C34.9448247,3.12072062 34.1671287,2.57596875 34.0228319,1.76057951" id="Fill-524" fill="#008CB4"></path>
                                        <path d="M2.23999958,48.0230204 C3.05538902,47.8792914 3.83310943,48.423491 3.97683124,49.2395006 C4.12113256,50.0549307 3.57638056,50.8332695 2.7604116,50.9769984 C1.94502217,51.1207274 1.16672224,50.5759482 1.02300043,49.7599386 C0.879278625,48.9445085 1.42403063,48.1661698 2.23999958,48.0230204" id="Fill-525" fill="#008CB4"></path>
                                        <path d="M83.2397477,34.0229993 C84.0552538,33.8792892 84.8336651,34.4239968 84.9768279,35.2393197 C85.1211499,36.055222 84.5763199,36.832879 83.7602342,36.9771686 C82.944728,37.1202992 82.1668963,36.5755916 82.0231539,35.7602687 C81.8788319,34.9449458 82.4242415,34.1667094 83.2397477,34.0229993" id="Fill-526" fill="#008CB4"></path>
                                        <path d="M55.0911662,81.0129724 C54.8072311,80.2347401 55.2087965,79.3742227 55.986431,79.0908604 C56.764645,78.8074981 57.6263011,79.2090729 57.9090773,79.9873051 C58.192433,80.7655374 57.7914471,81.6254753 57.0126536,81.9088376 C56.2344396,82.1927794 55.3745219,81.7912046 55.0911662,81.0129724" id="Fill-527" fill="#008CB4"></path>
                                        <path d="M27.0906163,4.01278617 C26.8078729,3.23462591 27.2088123,2.37418809 27.986936,2.090852 C28.7656391,1.80751591 29.625457,2.20905356 29.9087798,2.98721383 C30.192682,3.76537409 29.7917426,4.62581191 29.0136189,4.909148 C28.2349158,5.19248409 27.3750978,4.79094644 27.0906163,4.01278617" id="Fill-528" fill="#008CB4"></path>
                                        <path d="M3.98668382,55.0909234 C4.76491445,54.8075655 5.62658903,55.2085546 5.90937127,55.9873543 C6.19215351,56.7649951 5.79115902,57.6254993 5.01292838,57.9094367 C4.23469775,58.1922152 3.37418212,57.7906466 3.09139988,57.0130058 C2.80687922,56.2347855 3.20903265,55.3742813 3.98668382,55.0909234" id="Fill-529" fill="#008CB4"></path>
                                        <path d="M80.9870993,27.0905633 C81.7651694,26.8077848 82.624928,27.2093534 82.90939,27.9869942 C83.1921138,28.765794 82.7912021,29.6257187 82.0131321,29.9090766 C81.2350621,30.1924345 80.3747241,29.7914454 80.0908415,29.0126457 C79.8075382,28.2344254 80.2090293,27.3739212 80.9870993,27.0905633" id="Fill-530" fill="#008CB4"></path>
                                        <path d="M62.2014066,78.2495513 C61.7869483,77.5326799 62.032725,76.6152932 62.7497668,76.2009334 C63.4673883,75.7871531 64.3844134,76.0328714 64.7988717,76.7503223 C65.2127503,77.4671937 64.9675533,78.3845804 64.2499319,78.7989402 C63.5328901,79.2127205 62.6147056,78.9675817 62.2014066,78.2495513" id="Fill-531" fill="#008CB4"></path>
                                        <path d="M21.2012304,7.24978242 C20.7868319,6.53226439 21.0331527,5.6153714 21.7500911,5.20097286 C22.4670296,4.7871539 23.3845022,5.03289513 23.7989007,5.74983358 C24.2127197,6.46793119 23.967558,7.38482418 23.25004,7.79864314 C22.532522,8.21304168 21.6150494,7.96730045 21.2012304,7.24978242" id="Fill-532" fill="#008CB4"></path>
                                        <path d="M6.75012156,61.2009419 C7.46754776,60.7871442 8.38490291,61.0328728 8.79866891,61.7503539 C9.21301442,62.4672555 8.96730464,63.3846809 8.24987844,63.7990581 C7.53245224,64.2128558 6.61567659,63.9671272 6.20133109,63.2496461 C5.78698558,62.5327445 6.03269536,61.6153191 6.75012156,61.2009419" id="Fill-533" fill="#008CB4"></path>
                                        <path d="M77.7503977,20.2012131 C78.4673411,19.7868502 79.3848199,20.0331498 79.7986418,20.7500267 C80.2130432,21.4674832 79.9673002,22.384877 79.2497773,22.7986604 C78.5322543,23.2130234 77.6147754,22.9673033 77.2009536,22.2498468 C76.7871318,21.5323904 77.0328747,20.6155761 77.7503977,20.2012131" id="Fill-534" fill="#008CB4"></path>
                                        <path d="M68.3503341,74.4639965 C67.8188272,73.829834 67.9011325,72.8838074 68.5358109,72.3510878 C69.1704893,71.8183681 70.116421,71.9012614 70.6490871,72.5360035 C71.1817533,73.1707456 71.0982888,74.1167723 70.4647696,74.6489122 C69.8295116,75.1816319 68.8830003,75.0987386 68.3503341,74.4639965" id="Fill-535" fill="#008CB4"></path>
                                        <path d="M15.3507305,11.4640144 C14.8186935,10.8298732 14.9009911,9.88329851 15.53619,9.35059666 C16.1702298,8.81847447 17.1166529,8.90136496 17.6492695,9.53608588 C18.1813065,10.1702271 18.0990089,11.1168018 17.46381,11.648924 C16.8291907,12.1816258 15.8833471,12.0987353 15.3507305,11.4640144" id="Fill-536" fill="#008CB4"></path>
                                        <path d="M10.5359605,67.3510479 C11.1700722,66.8183887 12.1166026,66.9012726 12.6487,67.5359426 C13.1813769,68.1706127 13.0990699,69.1171116 12.4643787,69.6491911 C11.8296874,70.1812707 10.8837366,70.0989665 10.3510596,69.4642964 C9.81838265,68.8296263 9.90126927,67.8837071 10.5359605,67.3510479" id="Fill-537" fill="#008CB4"></path>
                                        <path d="M73.5355725,14.3510596 C74.1703123,13.8183827 75.1163355,13.9012693 75.6490532,14.5359605 C76.1817709,15.1706518 76.0982983,16.1166026 75.4647178,16.6487 C74.829978,17.1813769 73.8833751,17.0990699 73.3506574,16.4643787 C72.8185194,15.8296874 72.9014123,14.8837366 73.5355725,14.3510596" id="Fill-538" fill="#008CB4"></path>
                                        <path d="M73.5355725,69.6491911 C72.9014123,69.1171116 72.8185194,68.1706127 73.3506574,67.5359426 C73.8833751,66.9012726 74.829978,66.8183887 75.4647178,67.3510479 C76.0982983,67.8837071 76.1817709,68.8296263 75.6490532,69.4642964 C75.1163355,70.0989665 74.1703123,70.1812707 73.5355725,69.6491911" id="Fill-539" fill="#008CB4"></path>
                                        <path d="M10.5359605,16.6487 C9.90126927,16.1166026 9.81838265,15.1706518 10.3510596,14.5359605 C10.8837366,13.9012693 11.8296874,13.8183827 12.4643787,14.3510596 C13.0990699,14.8837366 13.1813769,15.8296874 12.6487,16.4643787 C12.1166026,17.0990699 11.1700722,17.1813769 10.5359605,16.6487" id="Fill-540" fill="#008CB4"></path>
                                        <path d="M15.3507305,72.5360035 C15.8833471,71.9012614 16.8291907,71.8183681 17.46381,72.3510878 C18.0990089,72.8838074 18.1813065,73.829834 17.6492695,74.4639965 C17.1166529,75.0987386 16.1702298,75.1816319 15.53619,74.6489122 C14.9009911,74.1167723 14.8186935,73.1707456 15.3507305,72.5360035" id="Fill-541" fill="#008CB4"></path>
                                        <path d="M68.3503341,9.53608588 C68.8830003,8.90136496 69.8295116,8.81847447 70.4647696,9.35059666 C71.0982888,9.88329851 71.1817533,10.8298732 70.6490871,11.4640144 C70.116421,12.0987353 69.1704893,12.1816258 68.5358109,11.648924 C67.9011325,11.1168018 67.8188272,10.1702271 68.3503341,9.53608588" id="Fill-542" fill="#008CB4"></path>
                                        <path d="M77.7503977,63.7990581 C77.0328747,63.3846809 76.7871318,62.4672555 77.2009536,61.7503539 C77.6147754,61.0328728 78.5322543,60.7871442 79.2497773,61.2009419 C79.9673002,61.6153191 80.2130432,62.5327445 79.7986418,63.2496461 C79.3848199,63.9671272 78.4673411,64.2128558 77.7503977,63.7990581" id="Fill-543" fill="#008CB4"></path>
                                        <path d="M6.75012156,22.7986604 C6.03269536,22.384877 5.78698558,21.4674832 6.20133109,20.7500267 C6.61567659,20.0331498 7.53245224,19.7868502 8.24987844,20.2012131 C8.96730464,20.6155761 9.21301442,21.5323904 8.79866891,22.2498468 C8.38490291,22.9673033 7.46754776,23.2130234 6.75012156,22.7986604" id="Fill-544" fill="#008CB4"></path>
                                        <path d="M21.2012304,76.7503223 C21.6150494,76.0328714 22.532522,75.7871531 23.25004,76.2009334 C23.967558,76.6152932 24.2127197,77.5326799 23.7989007,78.2495513 C23.3845022,78.9675817 22.4670296,79.2127205 21.7500911,78.7989402 C21.0331527,78.3845804 20.7868319,77.4671937 21.2012304,76.7503223" id="Fill-545" fill="#008CB4"></path>
                                        <path d="M62.2014066,5.74983358 C62.6147056,5.03289513 63.5328901,4.7871539 64.2499319,5.20097286 C64.9675533,5.6153714 65.2127503,6.53226439 64.7988717,7.24978242 C64.3844134,7.96730045 63.4673883,8.21304168 62.7497668,7.79864314 C62.032725,7.38482418 61.7869483,6.46793119 62.2014066,5.74983358" id="Fill-546" fill="#008CB4"></path>
                                        <path d="M80.9870993,57.9094367 C80.2090293,57.6254993 79.8075382,56.7649951 80.0908415,55.9873543 C80.3747241,55.2085546 81.2350621,54.8075655 82.0131321,55.0909234 C82.7912021,55.3742813 83.1921138,56.2347855 82.90939,57.0130058 C82.624928,57.7906466 81.7651694,58.1922152 80.9870993,57.9094367" id="Fill-547" fill="#008CB4"></path>
                                        <path d="M3.98668382,29.9090766 C3.20903265,29.6257187 2.80687922,28.765794 3.09139988,27.9869942 C3.37418212,27.2093534 4.23469775,26.8077848 5.01292838,27.0905633 C5.79115902,27.3739212 6.19215351,28.2344254 5.90937127,29.0126457 C5.62658903,29.7914454 4.76491445,30.1924345 3.98668382,29.9090766" id="Fill-548" fill="#008CB4"></path>
                                        <path d="M27.0906163,79.9873051 C27.3750978,79.2090729 28.2349158,78.8074981 29.0136189,79.0908604 C29.7917426,79.3742227 30.192682,80.2347401 29.9087798,81.0129724 C29.625457,81.7912046 28.7656391,82.1927794 27.986936,81.9088376 C27.2088123,81.6254753 26.8078729,80.7655374 27.0906163,79.9873051" id="Fill-549" fill="#008CB4"></path>
                                        <path d="M55.0911662,2.98721383 C55.3745219,2.20905356 56.2344396,1.80751591 57.0126536,2.090852 C57.7914471,2.37418809 58.192433,3.23462591 57.9090773,4.01278617 C57.6263011,4.79094644 56.764645,5.19248409 55.986431,4.909148 C55.2087965,4.62581191 54.8072311,3.76537409 55.0911662,2.98721383" id="Fill-550" fill="#008CB4"></path>
                                        <path d="M83.2397477,50.9769984 C82.4242415,50.8332695 81.8788319,50.0549307 82.0231539,49.2395006 C82.1668963,48.423491 82.944728,47.8792914 83.7602342,48.0230204 C84.5763199,48.1661698 85.1211499,48.9445085 84.9768279,49.7599386 C84.8336651,50.5759482 84.0552538,51.1207274 83.2397477,50.9769984" id="Fill-551" fill="#008CB4"></path>
                                        <path d="M2.23999958,36.9771686 C1.42403063,36.832879 0.879278625,36.055222 1.02300043,35.2393197 C1.16672224,34.4239968 1.94502217,33.8792892 2.7604116,34.0229993 C3.57638056,34.1667094 4.12113256,34.9449458 3.97683124,35.7602687 C3.83310943,36.5755916 3.05538902,37.1202992 2.23999958,36.9771686" id="Fill-552" fill="#008CB4"></path>
                                        <path d="M34.0228319,82.2394823 C34.1671287,81.4240524 34.9448247,80.8792734 35.7601885,81.0230023 C36.5761318,81.1667312 37.1202872,81.9450698 36.9771494,82.7604997 C36.8334322,83.5765091 36.0557362,84.1207086 35.2403723,83.9769796 C34.424429,83.8332507 33.8796941,83.0554917 34.0228319,82.2394823" id="Fill-553" fill="#008CB4"></path>
                                        <path d="M48.0231286,1.23958809 C48.1668307,0.423619335 48.9444447,-0.121132535 49.7597225,0.0231687583 C50.5767387,0.166890528 51.1202573,0.944610752 50.9771346,1.76057951 C50.832853,2.57596875 50.055239,3.12072062 49.2399612,2.97699885 C48.4246833,2.83327708 47.878847,2.05497733 48.0231286,1.23958809" id="Fill-554" fill="#008CB4"></path>
                                        <path d="M78,42 C78,61.3301283 62.3295263,77 43,77 C23.6704737,77 8,61.3301283 8,42 C8,22.6698717 23.6704737,7 43,7 C62.3295263,7 78,22.6698717 78,42" id="Fill-409" fill="#00AAE1"></path>
                                        <g id="growth" transform="translate(26.000000, 25.000000)" fill-rule="nonzero" fill="#FFFFFF">
                                            <path d="M33.0606129,24.4028926 C32.4634194,23.8689648 31.6693548,23.6090692 30.8626774,23.6889952 L21.3673548,24.645933 C21.4019032,24.3441714 21.3832581,24.0320792 21.2916774,23.7232492 C20.9280968,22.496629 19.6229355,21.7876251 18.3863226,22.1415833 L17.5483871,22.3808177 L17.5483871,19.0777512 L20.4701935,17.1464767 C23.1079355,17.0518704 25.2258065,14.9003915 25.2258065,12.262288 L25.2258065,11.7185733 L24.6774194,11.7185733 C22.0583226,11.7185733 19.9157742,13.7531535 19.7572903,16.3107873 L17.5483871,17.7706612 L17.5483871,9.54371466 L16.4516129,9.54371466 L16.4516129,15.0526316 L14.2427097,13.5927577 C14.0842258,11.0340365 11.9416774,9 9.32258065,9 L8.77419355,9 L8.77419355,9.54371466 C8.77419355,12.1818182 10.8920645,14.3332971 13.5298065,14.4279034 L16.4516129,16.3591779 L16.4516129,22.6945411 L9.24470968,24.7568508 L4.93548387,24.7568508 L4.93548387,23.6694215 L0,23.6694215 L0,33.4562853 L4.93548387,33.4562853 L4.93548387,32.9897782 L12.5405161,33.9951066 L20.4,34 L32.2473548,29.1054806 C33.3117742,28.6650718 34,27.6423445 34,26.4983689 C34,25.7007395 33.6578065,24.9368204 33.0606129,24.4028926 Z M24,13 C23.7597737,14.5401235 22.5401235,15.7597737 21,16 C21.2402263,14.4593621 22.4598765,13.2397119 24,13 Z M10,10 C11.5401235,10.2402263 12.7597737,11.4598765 13,13 C11.4598765,12.7597737 10.2402263,11.5401235 10,10 Z M4,33 L1,33 L1,25 L4,25 L4,33 Z M31.9206275,28.0789609 L20.2627451,33 L12.7225098,33 L5,31.9571713 L5,25.7697211 L9.39215686,25.7697211 L18.7710588,23.0500238 C19.4331765,22.8559186 20.1276863,23.244129 20.3214902,23.9126517 C20.4960784,24.5161019 20.2160784,25.1495856 19.6538824,25.4182183 L13.0003137,28.6039904 L13.4697255,29.6101115 L20.1232941,26.4243394 C20.4763137,26.2552621 20.764,26.004427 20.9858039,25.7096541 L31.068,24.671831 C31.5665098,24.6189944 32.048,24.779729 32.4207843,25.1206645 C32.7946667,25.4615999 33,25.9298995 33,26.4387999 C33,27.1584908 32.5767059,27.8019856 31.9206275,28.0789609 Z" id="Shape"></path>
                                            <path d="M17,10 C14.2427778,10 12,7.75722222 12,5 C12,2.24277778 14.2427778,0 17,0 C19.7572222,0 22,2.24277778 22,5 C22,7.75722222 19.7572222,10 17,10 Z" id="Shape"></path>
                                            <g id="Group" transform="translate(1.000000, 1.000000)">
                                                <polygon id="Shape" points="30 5 30 6 31 6 31 7 32 7 32 6 33 6 33 5 32 5 32 4 31 4 31 5"></polygon>
                                                <polygon id="Shape" points="26.5 4 27.5 4 27.5 2.5 29 2.5 29 1.5 27.5 1.5 27.5 0 26.5 0 26.5 1.5 25 1.5 25 2.5 26.5 2.5"></polygon>
                                                <polygon id="Shape" points="28 10 28 9 29 9 29 8 28 8 28 7 27 7 27 8 26 8 26 9 27 9 27 10"></polygon>
                                                <polygon id="Shape" points="5 6 6 6 6 5 7 5 7 4 6 4 6 3 5 3 5 4 4 4 4 5 5 5"></polygon>
                                                <polygon id="Shape" points="1.5 10 2.5 10 2.5 8.5 4 8.5 4 7.5 2.5 7.5 2.5 6 1.5 6 1.5 7.5 0 7.5 0 8.5 1.5 8.5"></polygon>
                                            </g>
                                        </g>
                                    </g>
                                </g>
                            </g>
                        </g>
                    </g>
                </g>
            </g>
        </g>
    </g>
</svg>