<?xml version="1.0" encoding="UTF-8"?>
<svg width="85px" height="85px" viewBox="0 0 85 85" version="1.1" xmlns="http://www.w3.org/2000/svg" xmlns:xlink="http://www.w3.org/1999/xlink">
    <!-- Generator: Sketch 47 (45396) - http://www.bohemiancoding.com/sketch -->
    <title>icon-vir4</title>
    <desc>Created with Sketch.</desc>
    <defs></defs>
    <g id="mobile" stroke="none" stroke-width="1" fill="none" fill-rule="evenodd">
        <g id="Author-page-(-320px)-" transform="translate(-118.000000, -5930.000000)">
            <g id="body" transform="translate(0.000000, 650.000000)">
                <g id="about-section" transform="translate(15.000000, 60.000000)">
                    <g id="text" transform="translate(0.000000, 244.000000)">
                        <g id="P2" transform="translate(0.000000, 2589.000000)">
                            <g id="wrao" transform="translate(0.000000, 1236.000000)">
                                <g id="icons-svg">
                                    <g id="icon-vir4" transform="translate(103.000000, 1151.000000)">
                                        <path d="M78,43.000301 C78,62.3305956 62.3295263,78 43,78 C23.6704737,78 8,62.3305956 8,43.000301 C8,23.6700065 23.6704737,8 43,8 C62.3295263,8 78,23.6700065 78,43.000301" id="Fill-411" fill="#00D2AA"></path>
                                        <path d="M41,83.5 C41,82.6711747 41.6718841,82 42.4997101,82 C43.3281159,82 44,82.6711747 44,83.5 C44,84.3282457 43.3281159,85 42.4997101,85 C41.6718841,85 41,84.3282457 41,83.5" id="Fill-447" fill="#00AA87"></path>
                                        <path d="M41,1.5005796 C41,0.67175425 41.6718841,0 42.4997101,0 C43.3281159,0 44,0.67175425 44,1.5005796 C44,2.32882535 43.3281159,3 42.4997101,3 C41.6718841,3 41,2.32882535 41,1.5005796" id="Fill-448" fill="#00AA87"></path>
                                        <path d="M1.4994204,41 C2.32824575,41 3,41.6720139 3,42.5005798 C3,43.3291457 2.32824575,44 1.4994204,44 C0.671174652,44 0,43.3291457 0,42.5005798 C0,41.6720139 0.671174652,41 1.4994204,41" id="Fill-449" fill="#00AA87"></path>
                                        <path d="M83.5002899,41 C84.3281159,41 85,41.6720139 85,42.5005798 C85,43.3291457 84.3281159,44 83.5002899,44 C82.6713043,44 82,43.3291457 82,42.5005798 C82,41.6720139 82.6713043,41 83.5002899,41" id="Fill-450" fill="#00AA87"></path>
                                        <path d="M48.0231286,83.7605103 C47.878847,82.9444959 48.4246833,82.1667322 49.2399612,82.0230024 C50.055239,81.8792726 50.832853,82.4240549 50.9771346,83.2394897 C51.1202573,84.0549245 50.5767387,84.8338473 49.7597225,84.9769976 C48.9444447,85.1207274 48.1668307,84.5759451 48.0231286,83.7605103" id="Fill-451" fill="#00AA87"></path>
                                        <path d="M34.0228319,2.75998231 C33.8796941,1.94459285 34.424429,1.16687241 35.2403723,1.02315061 C36.0557362,0.878849273 36.8334322,1.42418082 36.9771494,2.23957027 C37.1202872,3.05495973 36.5761318,3.83268017 35.7601885,3.9769815 C34.9448247,4.12070331 34.1671287,3.57653081 34.0228319,2.75998231" id="Fill-452" fill="#00AA87"></path>
                                        <path d="M2.23999958,49.0230024 C3.05538902,48.8792726 3.83310943,49.4240549 3.97683124,50.2394897 C4.12113256,51.0555041 3.57638056,51.8332678 2.7604116,51.9769976 C1.94502217,52.1207274 1.16672224,51.5759451 1.02300043,50.7605103 C0.879278625,49.9450755 1.42403063,49.1661527 2.23999958,49.0230024" id="Fill-453" fill="#00AA87"></path>
                                        <path d="M83.2397477,34.0231506 C84.0552538,33.8788493 84.8336651,34.4241808 84.9768279,35.2395703 C85.1211499,36.0549597 84.5763199,36.8326802 83.7602342,36.9769815 C82.944728,37.1207033 82.1668963,36.5765308 82.0231539,35.7599823 C81.8788319,34.9445928 82.4242415,34.1662929 83.2397477,34.0231506" id="Fill-454" fill="#00AA87"></path>
                                        <path d="M55.0911662,82.0128093 C54.8072311,81.2346673 55.2087965,80.3748291 55.986431,80.0909202 C56.764645,79.8075908 57.6263011,80.2085396 57.9090773,80.9866816 C58.192433,81.7648236 57.7914471,82.6258207 57.0126536,82.9091501 C56.2344396,83.1924796 55.3745219,82.7909513 55.0911662,82.0128093" id="Fill-455" fill="#00AA87"></path>
                                        <path d="M27.0906163,5.01257543 C26.8078729,4.2342998 27.2088123,3.37431393 27.986936,3.09093584 C28.7656391,2.80755774 29.625457,3.20857541 29.9087798,3.98685104 C30.192682,4.76454716 29.7917426,5.62627155 29.0136189,5.90907014 C28.2349158,6.19244823 27.3750978,5.79143056 27.0906163,5.01257543" id="Fill-456" fill="#00AA87"></path>
                                        <path d="M3.98668382,55.0911069 C4.76491445,54.8071371 5.62658903,55.2093311 5.90937127,55.9870606 C6.19215351,56.7653696 5.79115902,57.6259719 5.01292838,57.9093621 C4.23469775,58.1921729 3.37418212,57.791138 3.09139988,57.012829 C2.80687922,56.2345199 3.20903265,55.3739176 3.98668382,55.0911069" id="Fill-457" fill="#00AA87"></path>
                                        <path d="M80.9869132,27.0911538 C81.7650551,26.8072388 82.6248933,27.2087757 82.9093816,27.9869343 C83.1921316,28.7650929 82.7911828,29.6249496 82.0130408,29.9094439 C81.2348988,30.1922 80.3744812,29.7906632 80.0911518,29.0130839 C79.807243,28.2349253 80.2087712,27.3744893 80.9869132,27.0911538" id="Fill-458" fill="#00AA87"></path>
                                        <path d="M62.2014066,79.2502332 C61.7869483,78.5326117 62.032725,77.6144272 62.7497668,77.2011283 C63.4673883,76.7872497 64.3844134,77.0324467 64.7988717,77.7500681 C65.2127503,78.4671099 64.9675533,79.3852944 64.2499319,79.7985934 C63.5328901,80.2130517 62.6147056,79.967275 62.2014066,79.2502332" id="Fill-459" fill="#00AA87"></path>
                                        <path d="M21.2012304,8.24905176 C20.7868319,7.53223696 21.0331527,6.61550211 21.7500911,6.20117504 C22.4670296,5.78684798 23.3845022,6.0331263 23.7989007,6.75052058 C24.2127197,7.46733538 23.967558,8.38464971 23.25004,8.79897677 C22.532522,9.21272436 21.6150494,8.96760499 21.2012304,8.24905176" id="Fill-460" fill="#00AA87"></path>
                                        <path d="M6.75012156,62.2013582 C7.46754776,61.7869568 8.38490291,62.0326998 8.79866891,62.7502227 C9.21301442,63.4677457 8.96730464,64.3852246 8.24987844,64.7990464 C7.53245224,65.2128682 6.61567659,64.9671253 6.20133109,64.2496023 C5.78698558,63.5326589 6.03269536,62.6151801 6.75012156,62.2013582" id="Fill-461" fill="#00AA87"></path>
                                        <path d="M77.7503977,21.2013776 C78.4673411,20.786979 79.3848199,21.0327203 79.7986418,21.7496587 C80.2130432,22.4671767 79.9673002,23.3846493 79.2497773,23.7990478 C78.5322543,24.2128668 77.6147754,23.9671255 77.2009536,23.2496075 C76.7871318,22.5320895 77.0328747,21.6151965 77.7503977,21.2013776" id="Fill-462" fill="#00AA87"></path>
                                        <path d="M68.3503341,75.4645438 C67.8188272,74.829823 67.9011325,73.8838281 68.5358109,73.3511263 C69.1704893,72.8184245 70.116421,72.901315 70.6490871,73.5354562 C71.1817533,74.170177 71.0982888,75.1167516 70.4647696,75.6488737 C69.8295116,76.1815755 68.8830003,76.098685 68.3503341,75.4645438" id="Fill-463" fill="#00AA87"></path>
                                        <path d="M15.3507305,12.4640571 C14.8186935,11.8299664 14.9009911,10.8834672 15.53619,10.3508078 C16.1702298,9.81814843 17.1166529,9.90161193 17.6492695,10.5362823 C18.1813065,11.1709526 18.0990089,12.1162926 17.46381,12.648952 C16.8291907,13.1816114 15.8833471,13.0987275 15.3507305,12.4640571" id="Fill-464" fill="#00AA87"></path>
                                        <path d="M10.5359605,68.3511322 C11.1700722,67.8184215 12.1166026,67.9013134 12.6487,68.5354652 C13.1813769,69.1701967 13.0990699,70.1167871 12.4643787,70.6489181 C11.8296874,71.1816289 10.8837366,71.098737 10.3510596,70.4640055 C9.81838265,69.829274 9.90126927,68.8838429 10.5359605,68.3511322" id="Fill-465" fill="#00AA87"></path>
                                        <path d="M73.5355725,15.3507585 C74.1703123,14.818679 75.1163355,14.9009832 75.6490532,15.5362329 C76.1817709,16.1703233 76.0982983,17.1162426 75.4647178,17.6489018 C74.829978,18.1815609 73.8833751,18.0986771 73.3506574,17.4645866 C72.8185194,16.8293369 72.9014123,15.8828381 73.5355725,15.3507585" id="Fill-466" fill="#00AA87"></path>
                                        <path d="M73.5355725,70.6489181 C72.9014123,70.1167871 72.8185194,69.1701967 73.3506574,68.5354652 C73.8833751,67.9013134 74.829978,67.8184215 75.4647178,68.3511322 C76.0982983,68.8838429 76.1817709,69.829274 75.6490532,70.4640055 C75.1163355,71.098737 74.1703123,71.1816289 73.5355725,70.6489181" id="Fill-467" fill="#00AA87"></path>
                                        <path d="M10.5359605,17.6489018 C9.90126927,17.1162426 9.81838265,16.1703233 10.3510596,15.5362329 C10.8837366,14.9009832 11.8296874,14.818679 12.4643787,15.3507585 C13.0990699,15.8828381 13.1813769,16.8293369 12.6487,17.4645866 C12.1166026,18.0986771 11.1700722,18.1815609 10.5359605,17.6489018" id="Fill-468" fill="#00AA87"></path>
                                        <path d="M15.3507305,73.5354562 C15.8833471,72.901315 16.8291907,72.8184245 17.46381,73.3511263 C18.0990089,73.8838281 18.1813065,74.829823 17.6492695,75.4645438 C17.1166529,76.098685 16.1702298,76.1815755 15.53619,75.6488737 C14.9009911,75.1167516 14.8186935,74.170177 15.3507305,73.5354562" id="Fill-469" fill="#00AA87"></path>
                                        <path d="M68.3503341,10.5362823 C68.8830003,9.90161193 69.8295116,9.81814843 70.4647696,10.3508078 C71.0982888,10.8834672 71.1817533,11.8299664 70.6490871,12.4640571 C70.116421,13.0987275 69.1704893,13.1816114 68.5358109,12.648952 C67.9011325,12.1162926 67.8188272,11.1709526 68.3503341,10.5362823" id="Fill-470" fill="#00AA87"></path>
                                        <path d="M77.7503977,64.7990464 C77.0328747,64.3852246 76.7871318,63.4677457 77.2009536,62.7502227 C77.6147754,62.0326998 78.5322543,61.7869568 79.2497773,62.2013582 C79.9673002,62.6151801 80.2130432,63.5326589 79.7986418,64.2496023 C79.3848199,64.9671253 78.4673411,65.2128682 77.7503977,64.7990464" id="Fill-471" fill="#00AA87"></path>
                                        <path d="M6.75012156,23.7990478 C6.03269536,23.3846493 5.78698558,22.4671767 6.20133109,21.7496587 C6.61567659,21.0327203 7.53245224,20.786979 8.24987844,21.2013776 C8.96730464,21.6151965 9.21301442,22.5320895 8.79866891,23.2496075 C8.38490291,23.9671255 7.46754776,24.2128668 6.75012156,23.7990478" id="Fill-472" fill="#00AA87"></path>
                                        <path d="M21.2012304,77.7500681 C21.6150494,77.0324467 22.532522,76.7872497 23.25004,77.2011283 C23.967558,77.6144272 24.2127197,78.5326117 23.7989007,79.2502332 C23.3845022,79.967275 22.4670296,80.2130517 21.7500911,79.7985934 C21.0331527,79.3852944 20.7868319,78.4671099 21.2012304,77.7500681" id="Fill-473" fill="#00AA87"></path>
                                        <path d="M62.2014066,6.75052058 C62.6147056,6.0331263 63.5328901,5.78684798 64.2499319,6.20117504 C64.9675533,6.61550211 65.2127503,7.53223696 64.7988717,8.24905176 C64.3844134,8.96760499 63.4673883,9.21272436 62.7497668,8.79897677 C62.032725,8.38464971 61.7869483,7.46733538 62.2014066,6.75052058" id="Fill-474" fill="#00AA87"></path>
                                        <path d="M80.9869132,57.9093621 C80.2087712,57.6259719 79.807243,56.7653696 80.0911518,55.9870606 C80.3744812,55.2093311 81.2348988,54.8071371 82.0130408,55.0911069 C82.7911828,55.3739176 83.1921316,56.2345199 82.9093816,57.012829 C82.6248933,57.791138 81.7650551,58.1921729 80.9869132,57.9093621" id="Fill-475" fill="#00AA87"></path>
                                        <path d="M3.98668382,29.9094439 C3.20903265,29.6249496 2.80687922,28.7650929 3.09139988,27.9869343 C3.37418212,27.2087757 4.23469775,26.8072388 5.01292838,27.0911538 C5.79115902,27.3744893 6.19215351,28.2349253 5.90937127,29.0130839 C5.62658903,29.7906632 4.76491445,30.1922 3.98668382,29.9094439" id="Fill-476" fill="#00AA87"></path>
                                        <path d="M27.0906163,80.9866816 C27.3750978,80.2085396 28.2349158,79.8075908 29.0136189,80.0909202 C29.7917426,80.3748291 30.192682,81.2346673 29.9087798,82.0128093 C29.625457,82.7909513 28.7656391,83.1924796 27.986936,82.9091501 C27.2088123,82.6258207 26.8078729,81.7648236 27.0906163,80.9866816" id="Fill-477" fill="#00AA87"></path>
                                        <path d="M55.0911662,3.98685104 C55.3745219,3.20857541 56.2344396,2.80755774 57.0126536,3.09093584 C57.7914471,3.37431393 58.192433,4.2342998 57.9090773,5.01257543 C57.6263011,5.79143056 56.764645,6.19244823 55.986431,5.90907014 C55.2087965,5.62627155 54.8072311,4.76454716 55.0911662,3.98685104" id="Fill-478" fill="#00AA87"></path>
                                        <path d="M83.2397477,51.9769976 C82.4242415,51.8332678 81.8788319,51.0555041 82.0231539,50.2394897 C82.1668963,49.4240549 82.944728,48.8792726 83.7602342,49.0230024 C84.5763199,49.1661527 85.1211499,49.9450755 84.9768279,50.7605103 C84.8336651,51.5759451 84.0552538,52.1207274 83.2397477,51.9769976" id="Fill-479" fill="#00AA87"></path>
                                        <path d="M2.23999958,36.9769815 C1.42403063,36.8326802 0.879278625,36.0549597 1.02300043,35.2395703 C1.16672224,34.4241808 1.94502217,33.8788493 2.7604116,34.0231506 C3.57638056,34.1662929 4.12113256,34.9445928 3.97683124,35.7599823 C3.83310943,36.5765308 3.05538902,37.1207033 2.23999958,36.9769815" id="Fill-480" fill="#00AA87"></path>
                                        <path d="M34.0228319,83.2394897 C34.1671287,82.4240549 34.9448247,81.8792726 35.7601885,82.0230024 C36.5761318,82.1667322 37.1202872,82.9444959 36.9771494,83.7605103 C36.8334322,84.5759451 36.0557362,85.1207274 35.2403723,84.9769976 C34.424429,84.8338473 33.8796941,84.0549245 34.0228319,83.2394897" id="Fill-481" fill="#00AA87"></path>
                                        <path d="M48.0231286,2.23957027 C48.1668307,1.42418082 48.9444447,0.878849273 49.7597225,1.02315061 C50.5767387,1.16687241 51.1202573,1.94459285 50.9771346,2.75998231 C50.832853,3.57653081 50.055239,4.12070331 49.2399612,3.9769815 C48.4246833,3.83268017 47.878847,3.05495973 48.0231286,2.23957027" id="Fill-482" fill="#00AA87"></path>
                                        <g id="handshake" transform="translate(27.000000, 26.000000)" fill-rule="nonzero">
                                            <path d="M16,8 C13.7945,8 12,6.2055 12,4 C12,1.7945 13.7945,0 16,0 C18.2055,0 20,1.7945 20,4 C20,6.2055 18.2055,8 16,8 Z" id="Shape" fill="#FFFFFF"></path>
                                            <path d="M19,3.64015905 C19,3.2027833 18.8201058,2.79191518 18.4885362,2.48045063 C18.1604938,2.17229954 17.7195767,2 17.2539683,2 C16.7883598,2 16.35097,2.17229954 16.0194004,2.48045063 L15.9982363,2.50033135 L15.9770723,2.48045063 C15.6455026,2.16898608 15.2081129,2 14.7425044,2 C14.2768959,2 13.8395062,2.16898608 13.5114638,2.48045063 C13.1834215,2.78860172 13,3.2027833 13,3.64015905 C13,4.07753479 13.1834215,4.48840292 13.5114638,4.79986746 L15.7477954,6.90059642 L15.7513228,6.90390987 C15.8183422,6.96686547 15.9065256,7 15.9982363,7 L15.9982363,7 C16.0899471,7 16.1781305,6.96686547 16.2451499,6.90390987 L18.4850088,4.79986746 C18.8201058,4.49171637 19,4.07753479 19,3.64015905 Z M17.7361291,4.42031687 L16.0030314,6 L14.2668664,4.41752097 C14.0950903,4.26095061 14,4.05125815 14,3.83038211 C14,3.60950606 14.0950903,3.39981361 14.2668664,3.24324324 C14.4386424,3.08667288 14.6656322,3 14.9079591,3 C15.1502861,3 15.3803433,3.08667288 15.5521193,3.24324324 L15.7852439,3.45573159 C15.9048737,3.56477167 16.0950543,3.56477167 16.2146841,3.45573159 L16.4478087,3.24324324 C16.6195848,3.08667288 16.849642,3 17.0919689,3 C17.3342958,3 17.5612856,3.08667288 17.7330617,3.24324324 C17.9048377,3.39981361 17.999928,3.60671016 17.999928,3.83038211 C18.0029955,4.05405405 17.9079051,4.26374651 17.7361291,4.42031687 Z" id="Shape" fill="#00D2AA"></path>
                                            <g id="Group" transform="translate(0.000000, 3.000000)" fill="#FFFFFF">
                                                <path d="M29.8711733,6.35513682 C27.1217837,3.45655637 22.5774744,3.20061566 19.5298774,5.77042677 L15.9993701,8.74651772 L12.4688628,5.77042677 C9.419202,3.20009546 4.87695646,3.45707657 2.12756681,6.35513682 C0.664905961,7.89702349 -0.105893089,10.0069737 0.0117388943,12.1439745 C0.129886808,14.2788945 1.12614716,16.2879249 2.74719844,17.6545026 L4.30479037,18.966979 C3.98130241,19.7290789 4.03857061,20.6243511 4.54366584,21.2938545 C4.92854944,21.8036551 5.48523764,22.1241012 6.11106043,22.1943288 C6.26222785,22.2109754 6.41236341,22.2140966 6.56095117,22.2010915 C6.54856886,22.3072132 6.5423777,22.4148956 6.54392549,22.5236184 C6.55476002,23.2284957 6.87773204,23.8855142 7.4318406,24.3250872 C7.89050215,24.68819 8.46215231,24.84061 9.0307069,24.7885895 C9.01626087,24.8993931 9.01006971,25.0117574 9.0116175,25.125162 C9.02245203,25.8300393 9.34490812,26.4860174 9.89901667,26.9255904 C10.3576782,27.2886932 10.9288125,27.4452748 11.497883,27.3890927 C11.4839529,27.4998963 11.4772458,27.6127807 11.4787936,27.7261854 C11.4896281,28.4310627 11.8126001,29.087561 12.3667087,29.5266137 C12.7655224,29.8428982 13.2525601,30 13.745273,30 C14.2859674,30 14.8328529,29.8111657 15.2775843,29.4360981 L15.4762173,29.2685922 C15.9095983,29.664468 16.4585476,29.8637064 17.0069809,29.8631862 C17.5750195,29.8631862 18.1415104,29.6525033 18.5805666,29.2316577 C19.0412919,28.7894837 19.3013205,28.1678391 19.2966771,27.5259066 C19.2961612,27.4681638 19.2822311,27.4125019 19.2775877,27.3552794 C19.3823215,27.3698452 19.4870552,27.3838907 19.5928208,27.3838907 C20.1603435,27.3838907 20.7268344,27.173728 21.1658906,26.7528824 C21.6261,26.3112286 21.8866445,25.6901043 21.8820011,25.0476515 C21.8814852,24.9899088 21.8675551,24.9337267 21.8629117,24.8765041 C21.9676454,24.8910699 22.0728951,24.9051154 22.1786607,24.9051154 C22.7456675,24.9051154 23.3126743,24.6939123 23.7512146,24.2730667 C24.2119399,23.8319331 24.4724844,23.2108088 24.467841,22.568356 C24.4673251,22.5100931 24.453395,22.4544312 24.4487516,22.3966884 C24.5534854,22.4112542 24.6582191,22.4252997 24.7639847,22.4252997 C25.3315074,22.4252997 25.8985142,22.2146168 26.3375705,21.7937712 C26.7982957,21.3515972 27.0583243,20.7299527 27.053681,20.0880201 C27.0521332,19.917393 27.0294323,19.7493668 26.9917694,19.5855024 C26.9969287,19.5813407 27.0031198,19.5803003 27.0082791,19.5756185 L29.2530895,17.6545026 C30.8741408,16.2879249 31.8704011,14.2794147 31.988549,12.1439745 C32.1046332,10.0064535 31.3338342,7.89702349 29.8711733,6.35513682 Z M3.42142661,16.7488616 C1.97239619,15.5561683 1.11600765,13.8721227 1.0109293,12.0065352 C0.90532556,10.1399133 1.56784455,8.37001026 2.87554459,7.0237047 C5.29444817,4.53384108 9.29110315,4.3124739 11.9727026,6.52097361 L20.5292325,13.5633465 C20.8108425,13.7955751 20.9773917,14.122971 20.9978819,14.4860546 C21.0183722,14.8491381 20.8896512,15.193602 20.6353616,15.4553118 C20.167763,15.9368372 19.4185544,15.9839035 18.8926372,15.567547 L15.0178731,12.4942671 C14.7919547,12.314277 14.4609579,12.3499647 14.2796977,12.5723663 C14.2786469,12.5739179 14.2786469,12.5754696 14.2775962,12.576504 L14.273393,12.5728835 C13.6329405,13.3719776 12.6762021,13.8302284 11.6485359,13.8302284 C9.79863157,13.8302284 8.29390962,12.3359999 8.29390962,10.5004108 L7.24312614,10.5004108 C7.24312614,12.1135983 8.13366514,13.5219694 9.45029684,14.2771005 L5.01283819,17.9301762 C4.987094,17.951382 4.9676545,17.9777598 4.94296109,18 L3.42142661,16.7488616 Z M13.4493082,27.7971506 C13.1691136,27.6007179 13.0053147,27.3085764 13.000152,26.9955378 C12.9945199,26.6816634 13.1456467,26.3870143 13.4141079,26.1868201 L13.6647342,26 C13.7332575,26.4237932 13.9538462,26.8204202 14.3100736,27.1121437 L15,27.6772013 L14.9145805,27.7407284 C14.4799738,28.0637976 13.8637334,28.0876203 13.4493082,27.7971506 Z M17.6068284,28.6499347 C17.1357996,29.1103152 16.3905592,29.1181985 15.9092795,28.6641245 L14.4080354,27.2482967 C14.1476626,27.00234 14.0026124,26.66704 14.0000496,26.3017838 C13.9969744,25.9375786 14.1368991,25.5991254 14.3931716,25.3494898 C14.6320175,25.1166718 14.9400571,25 15.2491217,25 C15.5510106,25 15.8528996,25.1114163 16.0902079,25.3353 L16.5832761,25.8004104 L17.5935022,26.7537555 C17.8523374,26.9991867 17.9968751,27.3339611 17.9999504,27.6971152 C18.0030256,28.0613203 17.8631009,28.4002992 17.6068284,28.6499347 Z M20.6068284,25.6508199 C20.1347745,26.1101945 19.3900467,26.1175529 18.9097921,25.6655367 L18.7211756,25.4873582 C18.7196379,25.4857814 18.7186128,25.4842046 18.7170752,25.4826278 L17.4080354,24.2479926 L17.4080354,24.2479926 C17.1481751,24.0025372 17.0031249,23.6672042 17.0000496,23.3024376 C16.9969744,22.937671 17.1368991,22.5991844 17.3931716,22.3495242 C17.6320175,22.1172089 17.9400571,22 18.2491217,22 C18.5510106,22 18.8534121,22.1119529 19.0907205,22.3358586 L20.5919646,23.7518259 C20.8523374,23.9978068 20.9973876,24.3331398 20.9999504,24.6984321 C21.0030256,25.0621475 20.8631009,25.4006341 20.6068284,25.6508199 Z M22.6072905,23.6502986 C22.1351761,24.110725 21.3903529,24.1175579 20.9100368,23.6644898 L19.4080877,22.2479953 C19.1476815,22.0025396 19.0031253,21.6666806 19.0000496,21.3019136 C18.996974,20.9371465 19.1369167,20.5991851 19.393222,20.3495246 C19.6320985,20.1166834 19.9406901,20 20.2497943,20 C20.5517219,20 20.8536496,20.1114274 21.0904757,20.3353334 L22.1843867,21.3670881 L22.59345,21.7534048 C22.8528309,21.9983348 22.9968745,22.3341938 22.9999502,22.6984353 C23.0030258,23.0626767 22.8635958,23.4001126 22.6072905,23.6502986 Z M25.6068284,20.6505103 C25.1347745,21.1108309 24.3895342,21.1171367 23.9092795,20.6652238 L23.7201505,20.4865605 C23.7186128,20.4855096 23.7181003,20.4834076 23.7165626,20.4823567 L22.5505229,19.3825268 L22.4080354,19.2480039 C22.1476626,19.0020792 22.0026124,18.6668229 22.0000496,18.3016142 C21.9969744,17.9374565 22.1368991,17.5990473 22.3931716,17.3494443 C22.631505,17.1166566 22.9395445,17 23.2486091,17 C23.5504981,17 23.8528996,17.1119273 24.0902079,17.3357818 L25.5919646,18.7519507 C25.8518249,18.9973499 25.9968751,19.3326062 25.9999504,19.6972894 C26.0030256,20.0619726 25.8631009,20.4009073 25.6068284,20.6505103 Z M30.9891022,11.941678 C30.8852885,13.7892458 30.0392072,15.4580003 28.6045024,16.6420627 L26.5204432,18.3881834 C26.4534834,18.3082554 26.3901571,18.2257655 26.3122968,18.1550599 L24.7914267,16.7742515 C23.9053771,15.9703596 22.5277699,15.9800945 21.654697,16.7998694 C21.1916881,17.2348625 20.9295586,17.8466196 20.9342302,18.4793834 C20.9347493,18.5362553 20.9487641,18.5910777 20.9534357,18.6474373 C20.2817614,18.5557249 19.5768666,18.7509339 19.0531267,19.2417741 C18.5901178,19.6767672 18.3274692,20.2890366 18.3326599,20.9212881 C18.333179,20.97816 18.3471938,21.0329824 18.3518654,21.089342 C17.6801911,20.9976296 16.9752963,21.1918138 16.4515564,21.6831664 C15.9880284,22.1186719 15.726418,22.7309413 15.7310896,23.3631928 C15.7316087,23.4200647 15.7456235,23.4748871 15.7502951,23.5307343 C15.0786207,23.439022 14.3742451,23.6337185 13.8505052,24.1250711 C13.7150283,24.2521363 13.6029096,24.3976463 13.5032485,24.5513541 C13.4368077,24.5708238 13.3724433,24.6025901 13.3153457,24.6492148 L12.2237451,25.5509672 C12.223226,25.5514796 12.2221879,25.5514796 12.2216688,25.5519919 L12.0643911,25.6821312 C11.584253,26.0776726 10.9032354,26.1079018 10.4438599,25.7512997 C10.1339761,25.5104908 9.95334038,25.1523516 9.94763063,24.7685945 C9.94140181,24.384325 10.1080227,24.0241363 10.4033726,23.7787162 L10.4059679,23.7766668 L10.4059679,23.7766668 L15.8053164,19.3201651 L15.1393517,18.5336935 L9.74000331,22.9901952 L9.74052238,22.9907075 L9.74000331,22.9907075 L9.73948424,22.9907075 L9.58272561,23.1203344 C9.10206837,23.5174129 8.42105077,23.5461051 7.96219439,23.1900153 C7.65231062,22.9492064 7.47115578,22.5905549 7.46544603,22.2062853 C7.45973628,21.8220158 7.6263572,21.4618272 7.92170706,21.2169194 L7.92378334,21.2153824 L13.3989157,16.6963728 L12.7329511,15.9099012 L7.25781871,20.4289107 C7.25678058,20.4299355 7.25574244,20.4309602 7.2547043,20.4319849 L7.05434394,20.5964523 C6.7880619,20.8167668 6.45222471,20.9141151 6.10756337,20.8787623 C5.76290202,20.8403353 5.45509452,20.6666455 5.24123838,20.3894591 C4.83376976,19.8601919 4.95471268,19.0552753 5.51167296,18.595689 L10.315131,14.6310523 C10.6629067,14.7202028 11.0257355,14.7729758 11.4010219,14.7729758 C12.5601014,14.7729758 13.6485876,14.3226119 14.4593723,13.5243561 L17.9070239,16.2665033 C18.8496519,17.0176221 20.1919625,16.9310334 21.0307769,16.0661708 C21.4761375,15.6065845 21.7117945,14.9774072 21.6754597,14.3405445 C21.639644,13.7041942 21.3359891,13.1052461 20.8423551,12.6974081 L16.7500207,9.31993518 L20.1582231,6.50708231 C22.8075477,4.3187955 26.7566193,4.5380853 29.1458907,7.0050956 C30.4394089,8.33927937 31.093954,10.0925731 30.9891022,11.941678 Z" id="Shape"></path>
                                                <path d="M21.9515906,2 L22,1.00745156 C21.9151683,1.00248385 21.8294145,1 21.7441217,1 L21,1 L21,1.99354198 L21.7436607,1.99354198 C21.813278,1.99354198 21.8824343,1.99602583 21.9515906,2 Z" id="Shape"></path>
                                                <path d="M24,1.34101208 C23.7491713,1.19675227 23.481768,1.08194864 23.2044199,1 L23,1.72583082 C23.2228361,1.79191843 23.4383057,1.88406344 23.6401473,2 L24,1.34101208 Z" id="Shape"></path>
                                                <path d="M26,2.60538117 C25.8455679,2.38427044 25.6651662,2.18075198 25.4646814,2 L25,2.51121076 C25.1617036,2.65712315 25.307133,2.8213177 25.4317867,3 L26,2.60538117 Z" id="Shape"></path>
                                                <path d="M7,2.51190066 L6.53617169,2 C6.33541018,2.18040704 6.15507096,2.38358055 6,2.60469127 L6.56732433,3 C6.69262721,2.82166264 6.83835237,2.65746809 7,2.51190066 Z" id="Shape"></path>
                                                <path d="M8,1.72637944 L7.79631676,1 C7.51933702,1.08163265 7.25156538,1.19614512 7,1.34013605 L7.35911602,2 C7.56095764,1.88435374 7.77679558,1.79213908 8,1.72637944 Z" id="Shape"></path>
                                                <path d="M10.2509208,1.99403579 L11,1.99403579 L11,1 L10.2509208,1 C10.1662063,1 10.0833333,1.00198807 10,1.00695825 L10.0492634,2 C10.1164825,1.99602386 10.1837017,1.99403579 10.2509208,1.99403579 Z" id="Shape"></path>
                                            </g>
                                        </g>
                                    </g>
                                </g>
                            </g>
                        </g>
                    </g>
                </g>
            </g>
        </g>
    </g>
</svg>