<?xml version="1.0" encoding="UTF-8"?>
<svg width="85px" height="85px" viewBox="0 0 85 85" version="1.1" xmlns="http://www.w3.org/2000/svg" xmlns:xlink="http://www.w3.org/1999/xlink">
    <!-- Generator: Sketch 47 (45396) - http://www.bohemiancoding.com/sketch -->
    <title>icon-vir1</title>
    <desc>Created with Sketch.</desc>
    <defs></defs>
    <g id="mobile" stroke="none" stroke-width="1" fill="none" fill-rule="evenodd">
        <g id="Author-page-(-320px)-" transform="translate(-118.000000, -5207.000000)">
            <g id="body" transform="translate(0.000000, 650.000000)">
                <g id="about-section" transform="translate(15.000000, 60.000000)">
                    <g id="text" transform="translate(0.000000, 244.000000)">
                        <g id="P2" transform="translate(0.000000, 2589.000000)">
                            <g id="wrao" transform="translate(0.000000, 1236.000000)">
                                <g id="icons-svg">
                                    <g id="icon-vir1" transform="translate(103.000000, 428.000000)">
                                        <path d="M41,83.5 C41,82.6711747 41.6718841,82 42.4997101,82 C43.3281159,82 44,82.6711747 44,83.5 C44,84.3282457 43.3281159,85 42.4997101,85 C41.6718841,85 41,84.3282457 41,83.5" id="Fill-558" fill="#FF5656"></path>
                                        <path d="M41,1.5 C41,0.67175425 41.6718841,0 42.4997101,0 C43.3281159,0 44,0.67175425 44,1.5 C44,2.32824575 43.3281159,3 42.4997101,3 C41.6718841,3 41,2.32824575 41,1.5" id="Fill-559" fill="#FF5656"></path>
                                        <path d="M1.4994204,41 C2.32824575,41 3,41.6717543 3,42.5005796 C3,43.3288253 2.32824575,44 1.4994204,44 C0.671174652,44 0,43.3288253 0,42.5005796 C0,41.6717543 0.671174652,41 1.4994204,41" id="Fill-560" fill="#FF5656"></path>
                                        <path d="M83.5002899,41 C84.3281159,41 85,41.6717543 85,42.5005796 C85,43.3288253 84.3281159,44 83.5002899,44 C82.6713043,44 82,43.3288253 82,42.5005796 C82,41.6717543 82.6713043,41 83.5002899,41" id="Fill-561" fill="#FF5656"></path>
                                        <path d="M48.0229804,83.7605103 C47.8792711,82.9450755 48.4245551,82.1667322 49.2398736,82.0230024 C50.055192,81.8792726 50.8328447,82.4240549 50.9771335,83.2394897 C51.1202633,84.0555041 50.5767177,84.8332678 49.7596608,84.9769976 C48.9443424,85.1207274 48.1666897,84.5759451 48.0229804,83.7605103" id="Fill-562" fill="#FF5656"></path>
                                        <path d="M34.0228319,2.76017987 C33.8796941,1.94463801 34.424429,1.16677221 35.2403723,1.02302353 C36.0557362,0.879274862 36.8334322,1.42354907 36.9771494,2.23967057 C37.1202872,3.05579206 36.5761318,3.83307823 35.7601885,3.9768269 C34.9454042,4.12115521 34.1671287,3.57630137 34.0228319,2.76017987" id="Fill-563" fill="#FF5656"></path>
                                        <path d="M2.23999958,48.0228524 C3.05538902,47.879703 3.83310943,48.4239024 3.97683124,49.2399118 C4.12113256,50.0553415 3.57638056,50.8331004 2.7604116,50.9768294 C1.94502217,51.1211378 1.16672224,50.5763589 1.02300043,49.7609291 C0.879278625,48.9449198 1.42403063,48.1671609 2.23999958,48.0228524" id="Fill-564" fill="#FF5656"></path>
                                        <path d="M83.2397477,34.0230023 C84.0552538,33.8792734 84.8336651,34.4240524 84.9768279,35.2394823 C85.1211499,36.0554917 84.5763199,36.8326711 83.7602342,36.9769796 C82.944728,37.1207086 82.1668963,36.5765091 82.0231539,35.7604997 C81.8788319,34.9450698 82.4242415,34.1667312 83.2397477,34.0230023" id="Fill-565" fill="#FF5656"></path>
                                        <path d="M55.0911662,82.0130058 C54.8072311,81.234206 55.2087965,80.3742813 55.986431,80.0909234 C56.764645,79.8075655 57.6263011,80.2085546 57.9090773,80.9873543 C58.192433,81.7649951 57.7914471,82.6260788 57.0126536,82.9094367 C56.2344396,83.1922152 55.3745219,82.7906466 55.0911662,82.0130058" id="Fill-566" fill="#FF5656"></path>
                                        <path d="M27.0906163,5.01261863 C26.8078729,4.2343263 27.2088123,3.37374245 27.986936,3.09093779 C28.7656391,2.80755361 29.625457,3.20857989 29.9087798,3.98687222 C30.192682,4.76516455 29.7917426,5.6257484 29.0136189,5.90913258 C28.2349158,6.19251675 27.3750978,5.79091096 27.0906163,5.01261863" id="Fill-567" fill="#FF5656"></path>
                                        <path d="M3.98668382,55.0909299 C4.76491445,54.8075518 5.62658903,55.2085694 5.90937127,55.9874246 C6.19215351,56.7657002 5.79115902,57.6262656 5.01292838,57.9090642 C4.23469775,58.1924423 3.37418212,57.7914246 3.09139988,57.013149 C2.80687922,56.2342938 3.20903265,55.3737285 3.98668382,55.0909299" id="Fill-568" fill="#FF5656"></path>
                                        <path d="M80.9869132,27.0909378 C81.7650551,26.8075536 82.6248933,27.2085799 82.9093816,27.9868722 C83.1921316,28.7651646 82.7911828,29.6257484 82.0130408,29.9091326 C81.2348988,30.1925168 80.3744812,29.790911 80.0911518,29.0126186 C79.807243,28.2343263 80.2087712,27.374322 80.9869132,27.0909378" id="Fill-569" fill="#FF5656"></path>
                                        <path d="M62.2014066,79.2503413 C61.7869483,78.5328233 62.032725,77.6153507 62.7497668,77.2009522 C63.4673883,76.7871332 64.3844134,77.0328745 64.7988717,77.7503925 C65.2127503,78.4679105 64.9675533,79.3848035 64.2499319,79.7986224 C63.5328901,80.213021 62.6147056,79.9672797 62.2014066,79.2503413" id="Fill-570" fill="#FF5656"></path>
                                        <path d="M21.2012304,8.24980886 C20.7868319,7.53289568 21.0331527,6.61545544 21.7500911,6.20107151 C22.4670296,5.78726713 23.3845022,6.03242014 23.7989007,6.75049244 C24.2127197,7.46740563 23.967558,8.38426631 23.25004,8.79865024 C22.532522,9.21303418 21.6150494,8.9673016 21.2012304,8.24980886" id="Fill-571" fill="#FF5656"></path>
                                        <path d="M6.75012156,62.2013762 C7.46754776,61.7869805 8.38490291,62.03272 8.79866891,62.7496535 C9.21301442,63.4671666 8.96730464,64.3846329 8.24987844,64.7990285 C7.53245224,65.2128446 6.61567659,64.9671051 6.20133109,64.2501716 C5.78698558,63.5326585 6.03269536,62.6151923 6.75012156,62.2013762" id="Fill-572" fill="#FF5656"></path>
                                        <path d="M77.7503977,21.2010964 C78.4673411,20.7872834 79.3848199,21.0324415 79.7986418,21.7499491 C80.2130432,22.4674566 79.9673002,23.3849158 79.2497773,23.7993083 C78.5322543,24.2125417 77.6147754,23.9673836 77.2009536,23.249876 C76.7871318,22.5323685 77.0328747,21.6154888 77.7503977,21.2010964" id="Fill-573" fill="#FF5656"></path>
                                        <path d="M68.3503341,75.4639965 C67.8188272,74.8292544 67.9011325,73.8832277 68.5358109,73.3510878 C69.1704893,72.8183681 70.116421,72.9012614 70.6490871,73.5360035 C71.1817533,74.170166 71.0982888,75.1161926 70.4647696,75.6489122 C69.8295116,76.1816319 68.8830003,76.0987386 68.3503341,75.4639965" id="Fill-574" fill="#FF5656"></path>
                                        <path d="M15.3507305,12.4640055 C14.8186935,11.829274 14.9009911,10.8832633 15.53619,10.3511322 C16.1702298,9.8184215 17.1166529,9.90131337 17.6492695,10.5354652 C18.1813065,11.1701967 18.0990089,12.1167871 17.46381,12.6489181 C16.8291907,13.1816289 15.8833471,13.098737 15.3507305,12.4640055" id="Fill-575" fill="#FF5656"></path>
                                        <path d="M10.5359605,68.350669 C11.1700722,67.8185134 12.1166026,67.9014091 12.6487,68.5355902 C13.1813769,69.1703511 13.0990699,70.1164056 12.4643787,70.649141 C11.8296874,71.1812966 10.8837366,71.0989806 10.3510596,70.4642198 C9.81838265,69.8294589 9.90126927,68.8834044 10.5359605,68.350669" id="Fill-576" fill="#FF5656"></path>
                                        <path d="M73.5355725,15.3510199 C74.1703123,14.8184032 75.1163355,14.9012804 75.6490532,15.5358999 C76.1817709,16.1699399 76.0982983,17.1163633 75.4647178,17.6489801 C74.829978,18.1815968 73.8833751,18.0987196 73.3506574,17.4641001 C72.8185194,16.8294805 72.9014123,15.8830571 73.5355725,15.3510199" id="Fill-577" fill="#FF5656"></path>
                                        <path d="M73.5355725,70.649141 C72.9014123,70.1164056 72.8185194,69.1703511 73.3506574,68.5355902 C73.8833751,67.9014091 74.829978,67.8185134 75.4647178,68.350669 C76.0982983,68.8834044 76.1817709,69.8294589 75.6490532,70.4642198 C75.1163355,71.0989806 74.1703123,71.1812966 73.5355725,70.649141" id="Fill-578" fill="#FF5656"></path>
                                        <path d="M10.5359605,17.6489801 C9.90126927,17.1163633 9.81838265,16.1699399 10.3510596,15.5358999 C10.8837366,14.9012804 11.8296874,14.8184032 12.4643787,15.3510199 C13.0990699,15.8830571 13.1813769,16.8294805 12.6487,17.4641001 C12.1166026,18.0987196 11.1700722,18.1815968 10.5359605,17.6489801" id="Fill-579" fill="#FF5656"></path>
                                        <path d="M15.3507305,73.5360035 C15.8833471,72.9012614 16.8291907,72.8183681 17.46381,73.3510878 C18.0990089,73.8832277 18.1813065,74.8292544 17.6492695,75.4639965 C17.1166529,76.0987386 16.1702298,76.1816319 15.53619,75.6489122 C14.9009911,75.1161926 14.8186935,74.170166 15.3507305,73.5360035" id="Fill-580" fill="#FF5656"></path>
                                        <path d="M68.3503341,10.5354652 C68.8830003,9.90131337 69.8295116,9.8184215 70.4647696,10.3511322 C71.0982888,10.8832633 71.1817533,11.829274 70.6490871,12.4640055 C70.116421,13.098737 69.1704893,13.1816289 68.5358109,12.6489181 C67.9011325,12.1167871 67.8188272,11.1701967 68.3503341,10.5354652" id="Fill-581" fill="#FF5656"></path>
                                        <path d="M77.7503977,64.7990285 C77.0328747,64.3846329 76.7871318,63.4671666 77.2009536,62.7496535 C77.6147754,62.03272 78.5322543,61.7869805 79.2497773,62.2013762 C79.9673002,62.6151923 80.2130432,63.5326585 79.7986418,64.2501716 C79.3848199,64.9671051 78.4673411,65.2128446 77.7503977,64.7990285" id="Fill-582" fill="#FF5656"></path>
                                        <path d="M6.75012156,23.7993083 C6.03269536,23.3849158 5.78698558,22.4674566 6.20133109,21.7499491 C6.61567659,21.0324415 7.53245224,20.7872834 8.24987844,21.2010964 C8.96730464,21.6154888 9.21301442,22.5323685 8.79866891,23.249876 C8.38490291,23.9673836 7.46754776,24.2125417 6.75012156,23.7993083" id="Fill-583" fill="#FF5656"></path>
                                        <path d="M21.2012304,77.7503925 C21.6150494,77.0328745 22.532522,76.7871332 23.25004,77.2009522 C23.967558,77.6153507 24.2127197,78.5328233 23.7989007,79.2503413 C23.3845022,79.9672797 22.4670296,80.213021 21.7500911,79.7986224 C21.0331527,79.3848035 20.7868319,78.4679105 21.2012304,77.7503925" id="Fill-584" fill="#FF5656"></path>
                                        <path d="M62.2014066,6.75049244 C62.6147056,6.03242014 63.5328901,5.78726713 64.2499319,6.20107151 C64.9675533,6.61545544 65.2127503,7.53289568 64.7988717,8.24980886 C64.3844134,8.9673016 63.4673883,9.21303418 62.7497668,8.79865024 C62.032725,8.38426631 61.7869483,7.46740563 62.2014066,6.75049244" id="Fill-585" fill="#FF5656"></path>
                                        <path d="M80.9869132,57.9090642 C80.2087712,57.6262656 79.807243,56.7657002 80.0911518,55.9874246 C80.3744812,55.2085694 81.2348988,54.8075518 82.0130408,55.0909299 C82.7911828,55.3737285 83.1921316,56.2342938 82.9093816,57.013149 C82.6248933,57.7914246 81.7650551,58.1924423 80.9869132,57.9090642" id="Fill-586" fill="#FF5656"></path>
                                        <path d="M3.98668382,29.9091326 C3.20903265,29.6257484 2.80687922,28.7651646 3.09139988,27.9868722 C3.37418212,27.2085799 4.23469775,26.8075536 5.01292838,27.0909378 C5.79115902,27.374322 6.19215351,28.2343263 5.90937127,29.0126186 C5.62658903,29.790911 4.76491445,30.1925168 3.98668382,29.9091326" id="Fill-587" fill="#FF5656"></path>
                                        <path d="M27.0906163,80.9873543 C27.3750978,80.2085546 28.2349158,79.8075655 29.0136189,80.0909234 C29.7917426,80.3742813 30.192682,81.234206 29.9087798,82.0130058 C29.625457,82.7906466 28.7656391,83.1922152 27.986936,82.9094367 C27.2088123,82.6260788 26.8078729,81.7649951 27.0906163,80.9873543" id="Fill-588" fill="#FF5656"></path>
                                        <path d="M55.0911662,3.98687222 C55.3745219,3.20857989 56.2344396,2.80755361 57.0126536,3.09093779 C57.7914471,3.37374245 58.192433,4.2343263 57.9090773,5.01261863 C57.6263011,5.79091096 56.764645,6.19251675 55.986431,5.90913258 C55.2087965,5.6257484 54.8072311,4.76516455 55.0911662,3.98687222" id="Fill-589" fill="#FF5656"></path>
                                        <path d="M83.2397477,50.9768294 C82.4242415,50.8331004 81.8788319,50.0553415 82.0231539,49.2399118 C82.1668963,48.4239024 82.944728,47.879703 83.7602342,48.0228524 C84.5763199,48.1671609 85.1211499,48.9449198 84.9768279,49.7609291 C84.8336651,50.5763589 84.0552538,51.1211378 83.2397477,50.9768294" id="Fill-590" fill="#FF5656"></path>
                                        <path d="M2.23999958,36.9769796 C1.42403063,36.8326711 0.879278625,36.0554917 1.02300043,35.2394823 C1.16672224,34.4240524 1.94502217,33.8792734 2.7604116,34.0230023 C3.57638056,34.1667312 4.12113256,34.9450698 3.97683124,35.7604997 C3.83310943,36.5765091 3.05538902,37.1207086 2.23999958,36.9769796" id="Fill-591" fill="#FF5656"></path>
                                        <path d="M34.0228319,83.2394897 C34.1671287,82.4240549 34.9454042,81.8792726 35.7601885,82.0230024 C36.5761318,82.1667322 37.1202872,82.9450755 36.9771494,83.7605103 C36.8334322,84.5759451 36.0557362,85.1207274 35.2403723,84.9769976 C34.424429,84.8332678 33.8796941,84.0555041 34.0228319,83.2394897" id="Fill-592" fill="#FF5656"></path>
                                        <path d="M48.0229804,2.23967057 C48.1666897,1.42354907 48.9443424,0.879274862 49.7596608,1.02302353 C50.5767177,1.16677221 51.1202633,1.94463801 50.9771335,2.76017987 C50.8328447,3.57630137 50.055192,4.12115521 49.2398736,3.9768269 C48.4245551,3.83307823 47.8792711,3.05579206 48.0229804,2.23967057" id="Fill-593" fill="#FF5656"></path>
                                        <path d="M78,43 C78,62.3301283 62.3295263,78 43,78 C23.6704737,78 8,62.3301283 8,43 C8,23.6698717 23.6704737,8 43,8 C62.3295263,8 78,23.6698717 78,43" id="Fill-408" fill="#FF5656"></path>
                                        <g id="icon" transform="translate(29.000000, 25.000000)" fill-rule="nonzero" fill="#FFFFFF">
                                            <path d="M26.6062777,11.5192767 C27.3776868,11.5192767 28,10.8969635 28,10.1255544 L28,8.86148072 C28,8.09007165 27.3776868,7.46775844 26.6062777,7.46775844 L25.9515524,7.46775844 C25.7830092,6.83248038 25.5301945,6.22961447 25.1995906,5.6591607 L25.6598431,5.19890822 C26.2043671,4.65438417 26.2043671,3.7727738 25.6598431,3.22824974 L24.7652678,2.33367451 C24.4994882,2.06789492 24.1494371,1.92528147 23.7799386,1.92528147 C23.4104401,1.92528147 23.0603889,2.06789492 22.7946093,2.33367451 L22.3343569,2.79392699 C21.7639031,2.46980553 21.1610372,2.21699079 20.5257591,2.0419652 L20.5257591,1.39372228 C20.5257591,0.622313204 19.9034459,0 19.1320368,0 L17.8679632,0 C17.0965541,0 16.4742409,0.622313204 16.4742409,1.39372228 L16.4742409,2.04844763 C15.8389628,2.21699079 15.2360969,2.46980553 14.6656431,2.80040942 L14.2053907,2.34015694 C13.9396111,2.07437735 13.5895599,1.9317639 13.2200614,1.9317639 C12.8505629,1.9317639 12.5005118,2.07437735 12.2347322,2.34015694 L11.3401569,3.23473217 C10.7956329,3.77925623 10.7956329,4.6608666 11.3401569,5.20539065 L11.8004094,5.66564313 C11.476288,6.2360969 11.2234732,6.83896281 11.0484476,7.47424087 L10.3937223,7.47424087 C9.6223132,7.47424087 9,8.09655408 9,8.86796315 L9,10.1320368 C9,10.9034459 9.6223132,11.5257591 10.3937223,11.5257591 L11.0484476,11.5257591 C11.2169908,12.1610372 11.4698055,12.7639031 11.8004094,13.3343569 L11.3401569,13.7946093 C10.7956329,14.3391334 10.7956329,15.2207438 11.3401569,15.7652678 L12.2347322,16.6598431 C12.5005118,16.9256227 12.8505629,17.0682361 13.2200614,17.0682361 C13.5895599,17.0682361 13.9396111,16.9256227 14.2053907,16.6598431 L14.6656431,16.1995906 C15.2360969,16.523712 15.8389628,16.7765268 16.4742409,16.9515524 L16.4742409,17.6062777 C16.4742409,18.3776868 17.0965541,19 17.8679632,19 L19.1320368,19 C19.9034459,19 20.5257591,18.3776868 20.5257591,17.6062777 L20.5257591,16.9515524 C21.1610372,16.7830092 21.7639031,16.5301945 22.3343569,16.1995906 L22.7946093,16.6598431 C23.0603889,16.9256227 23.4104401,17.0682361 23.7799386,17.0682361 C24.1494371,17.0682361 24.4994882,16.9256227 24.7652678,16.6598431 L25.6598431,15.7652678 C26.2043671,15.2207438 26.2043671,14.3391334 25.6598431,13.7946093 L25.1995906,13.3343569 C25.523712,12.7639031 25.7765268,12.1610372 25.9515524,11.5257591 L26.6062777,11.5257591 L26.6062777,11.5192767 Z M24.1492302,10.2285827 C23.9913146,11.0371101 23.6754836,11.7951046 23.2143703,12.4836163 C23.0501382,12.7299645 23.0817213,13.0647454 23.2901698,13.2731938 L24.0923806,14.0754047 C24.1365969,14.119621 24.1365969,14.1827872 24.0923806,14.2270036 L23.2206869,15.0923806 C23.1954205,15.1176471 23.1638373,15.1239637 23.1448875,15.1239637 C23.1259376,15.1239637 23.0943545,15.1176471 23.069088,15.0923806 L22.2668772,14.2901698 C22.0584287,14.0817213 21.7236478,14.0438216 21.4772996,14.2143703 C20.788788,14.6754836 20.0307935,14.984998 19.2222661,15.1492302 C18.9317015,15.2060797 18.7169364,15.4650612 18.7169364,15.7619424 L18.7169364,16.8926174 C18.7169364,16.949467 18.6664035,17 18.6095539,17 L17.3778129,17 C17.3209633,17 17.2704303,16.949467 17.2704303,16.8926174 L17.2704303,15.7619424 C17.2704303,15.4650612 17.0619818,15.2060797 16.7651007,15.1492302 C15.9565732,14.9913146 15.1985788,14.6754836 14.5100671,14.2143703 C14.4026846,14.1448875 14.2826688,14.1069878 14.162653,14.1069878 C13.9984208,14.1069878 13.8405053,14.170154 13.7204895,14.2901698 L12.930912,15.0923806 C12.9056455,15.1176471 12.8740624,15.1239637 12.8551125,15.1239637 C12.8361627,15.1239637 12.8045795,15.1176471 12.7793131,15.0923806 L11.9076194,14.2206869 C11.8634031,14.1764706 11.8634031,14.1133044 11.9076194,14.069088 L12.7098302,13.2668772 C12.9182787,13.0584287 12.9561784,12.7236478 12.7856297,12.4772996 C12.3245164,11.788788 12.015002,11.0307935 11.8507698,10.2222661 C11.7939203,9.93170154 11.5349388,9.71693644 11.2380576,9.71693644 L10.1073826,9.71693644 C10.050533,9.71693644 10,9.66640347 10,9.60955389 L10,8.37781287 C10,8.32096328 10.050533,8.27043032 10.1073826,8.27043032 L11.2380576,8.27043032 C11.5349388,8.27043032 11.7939203,8.06198184 11.8507698,7.76510067 C12.0086854,6.95657323 12.3245164,6.19857876 12.7856297,5.51006711 C12.9498618,5.26371891 12.9182787,4.92893802 12.7098302,4.72048954 L11.9076194,3.91827872 C11.8634031,3.87406238 11.8634031,3.81089617 11.9076194,3.76667983 L12.7793131,2.89498618 C12.8045795,2.8697197 12.8361627,2.86340308 12.8551125,2.86340308 C12.8740624,2.86340308 12.9056455,2.8697197 12.930912,2.89498618 L13.7331228,3.697197 C13.9415713,3.90564548 14.2763522,3.9435452 14.5227004,3.77299645 C15.211212,3.31188314 15.9692065,3.00236873 16.7777339,2.8381366 C17.0682985,2.78128701 17.2830636,2.52230557 17.2830636,2.2254244 L17.2830636,1.10738255 C17.2830636,1.05053296 17.3335965,1 17.3904461,1 L18.6221871,1 C18.6790367,1 18.7295697,1.05053296 18.7295697,1.10738255 L18.7295697,2.23805764 C18.7295697,2.53493881 18.9380182,2.79392025 19.2348993,2.85076984 C20.0434268,3.00868535 20.8014212,3.32451638 21.4899329,3.78562969 C21.7362811,3.94986182 22.071062,3.91827872 22.2795105,3.70983024 L23.0817213,2.90761942 C23.1069878,2.88235294 23.1385709,2.87603632 23.1575207,2.87603632 C23.1764706,2.87603632 23.2080537,2.88235294 23.2333202,2.90761942 L24.1050138,3.77931307 C24.1492302,3.82352941 24.1492302,3.88669562 24.1050138,3.93091196 L23.2901698,4.73312278 C23.0817213,4.94157126 23.0438216,5.27635215 23.2143703,5.52270036 C23.6754836,6.211212 23.984998,6.96920647 24.1492302,7.77773391 C24.2060797,8.06829846 24.4650612,8.28306356 24.7619424,8.28306356 L25.8926174,8.28306356 C25.949467,8.28306356 26,8.33359653 26,8.39044611 L26,9.62218713 C26,9.67903672 25.949467,9.72956968 25.8926174,9.72956968 L24.7619424,9.72956968 C24.4650612,9.72325306 24.2060166,9.93170154 24.1492302,10.2285827 Z" id="Shape"></path>
                                            <path d="M19,5 C16.7948718,5 15,6.79487179 15,9 C15,11.2051282 16.7948718,13 19,13 C21.2051282,13 23,11.2051282 23,9 C23,6.79487179 21.2051282,5 19,5 Z M18.5,11 C17.120892,11 16,9.87910798 16,8.5 C16,7.12089202 17.120892,6 18.5,6 C19.879108,6 21,7.12089202 21,8.5 C21,9.87910798 19.879108,11 18.5,11 Z" id="Shape"></path>
                                            <path d="M5.05600487,29.4521299 L7.20520263,29.1229477 L7.20520263,31.3482193 C7.20520263,31.7103197 7.48748532,32 7.84033868,32 L19.6320565,32 C19.9849099,32 20.2671926,31.7103197 20.2671926,31.3482193 L20.2671926,23.1713338 C21.5053871,21.9467761 22.4356369,20.4259544 22.9681247,18.7537089 C23.0771885,18.4113594 22.897554,18.0426753 22.5639472,17.9307534 C22.2303404,17.8188315 21.8710715,18.0031735 21.7620077,18.345523 C21.2615975,19.8926792 20.3762564,21.301579 19.202217,22.4076311 C19.0739067,22.5327204 18.9969205,22.7038951 18.9969205,22.8882371 L18.9969205,30.6898549 L8.47547474,30.6898549 L8.47547474,28.3658287 C8.47547474,28.174903 8.39207303,27.9971446 8.2573472,27.8720554 C8.11620586,27.7469662 7.9301559,27.694297 7.75052146,27.7206316 L4.92127904,28.1551521 C4.13217061,28.1288175 3.50345007,27.4704531 3.50345007,26.6540813 L3.50345007,22.8684862 C3.50345007,22.5063858 3.22116738,22.2167055 2.86831402,22.2167055 L1.91240218,22.2167055 C1.61728846,22.2167055 1.39274541,22.1311181 1.3093437,21.9928616 C1.225942,21.8546051 1.25801958,21.6110102 1.39916092,21.3410808 L3.42646388,17.3579764 C3.47137249,17.2658054 3.49703456,17.1604671 3.49703456,17.0551288 L3.49703456,15.3565487 C3.49703456,11.6499573 5.61415474,8.23962987 8.90531429,6.67272267 C9.21967456,6.52129886 9.54045034,6.38304235 9.86764164,6.2711204 C10.2012485,6.15261482 10.3744674,5.78393077 10.2654036,5.4415813 C10.1499243,5.09923182 9.79065546,4.92147344 9.45704864,5.03339539 C9.08494873,5.16506826 8.71926433,5.31649207 8.37282649,5.4876668 C4.64541187,7.2652506 2.23959348,11.1364331 2.23959348,15.3499651 L2.23959348,16.8905377 L0.276445675,20.728802 C-0.0764076883,21.4135009 -0.0892387197,22.1179508 0.22512155,22.6578096 C0.545897334,23.1976684 1.16178684,23.5070996 1.91240218,23.5070996 L2.23317796,23.5070996 L2.23317796,26.640914 C2.23317796,28.1880703 3.45854146,29.4455462 4.96618765,29.4455462 C4.99184971,29.4587135 5.02392729,29.4521299 5.05600487,29.4521299 Z" id="Shape"></path>
                                        </g>
                                    </g>
                                </g>
                            </g>
                        </g>
                    </g>
                </g>
            </g>
        </g>
    </g>
</svg>